<?xml version="1.0" encoding="utf-8"?>
<!-- Generator: Adobe Illustrator 19.0.0, SVG Export Plug-In . SVG Version: 6.00 Build 0)  -->
<svg version="1.1" id="Layer_1" xmlns="http://www.w3.org/2000/svg" xmlns:xlink="http://www.w3.org/1999/xlink" x="0px" y="0px"
	 viewBox="0 0 217.7 212.3" style="enable-background:new 0 0 217.7 212.3;" xml:space="preserve">
<style type="text/css">
	.st0{fill:url(#XMLID_15_);}
	.st1{fill:#FFFFFF;}
	.st2{fill:url(#XMLID_16_);}
</style>
<linearGradient id="XMLID_15_" gradientUnits="userSpaceOnUse" x1="15.3333" y1="106.7122" x2="205.5033" y2="106.7122">
	<stop  offset="0" style="stop-color:#4481EB"/>
	<stop  offset="1" style="stop-color:#04BEFE"/>
</linearGradient>
<path id="XMLID_172_" class="st0" d="M193,201.8H27.8c-6.9,0-12.5-5.6-12.5-12.5V24.1c0-6.9,5.6-12.5,12.5-12.5H193
	c6.9,0,12.5,5.6,12.5,12.5v165.2C205.5,196.2,199.9,201.8,193,201.8z"/>
<path id="XMLID_222_" class="st1" d="M121.9,123.2l15.5,21.4c0.3,0.5,1,0.5,1.3,0l15.9-21.3c0.5-0.7-0.3-1.7-1.1-1.2l-14.8,8.4
	c-0.3,0.1-0.6,0.1-0.8,0l-14.9-8.5C122.2,121.5,121.3,122.4,121.9,123.2z"/>
<path id="XMLID_217_" class="st1" d="M119.5,116.6l18.1,10.7c0.3,0.2,0.6,0.2,0.8,0l18.5-10.7c0.4-0.2,0.5-0.8,0.3-1.2l-18.5-28.9
	c-0.3-0.5-1.1-0.5-1.4,0l-18.1,28.9C119,115.8,119.1,116.3,119.5,116.6z"/>
<path id="XMLID_171_" class="st1" d="M90.1,59.9H74.4v-4.3c0-0.7,0.4-1.3,1.1-1.5L88,49.7c1-0.4,2.1,0.4,2.1,1.5V59.9z"/>
<path id="XMLID_169_" class="st1" d="M53.2,78.6l5.4-12.4c0.3-0.6,0.9-1,1.5-1h81.6c0.6,0,1.2,0.3,1.5,0.9l6.4,12.4
	c0.6,1.1-0.2,2.4-1.5,2.4H54.7C53.5,80.8,52.7,79.6,53.2,78.6z"/>
<rect id="XMLID_168_" x="135.6" y="78" class="st1" width="5.2" height="29.2"/>
<linearGradient id="XMLID_16_" gradientUnits="userSpaceOnUse" x1="200.5033" y1="138.7578" x2="138.2433" y2="138.7578">
	<stop  offset="0.4301" style="stop-color:#4481EB;stop-opacity:0"/>
	<stop  offset="1" style="stop-color:#00142A;stop-opacity:0.1"/>
</linearGradient>
<path id="XMLID_242_" class="st2" d="M141.2,90.3l59.3,61.3v4.1c0,13.9-6.3,26.3-16.2,34.6l-45.8-45.6l-0.4-0.3v-57l2.6,2.6
	L141.2,90.3z"/>
<path id="XMLID_206_" class="st1" d="M99.7,152.4v7.2H64.8v-7.2c0-2,1.7-3.7,3.7-3.7h0c3.3,0,5.9-2.6,5.9-5.9V86.4h15.7v56.4
	c0,3.3,2.6,5.9,5.9,5.9h0C98.1,148.7,99.7,150.4,99.7,152.4z"/>
</svg>
