<?xml version="1.0" encoding="utf-8"?>
<!-- Generator: Adobe Illustrator 19.0.0, SVG Export Plug-In . SVG Version: 6.00 Build 0)  -->
<svg version="1.1" id="Layer_1" xmlns="http://www.w3.org/2000/svg" xmlns:xlink="http://www.w3.org/1999/xlink" x="0px" y="0px"
	 viewBox="-461 263 36 35" style="enable-background:new -461 263 36 35;" xml:space="preserve">
<style type="text/css">
	.st0{fill:#191919;}
	.st1{fill:#444444;}
</style>
<path class="st0" d="M-434.001,275.682l0.749-1.348l0.817,1.348l5.245,8.351l-6.041,3.376l-5.923-3.376L-434.001,275.682z"/>
<path class="st0" d="M-433.231,289.068l-5.153-2.784l5.153,7.699l5.12-7.794L-433.231,289.068z"/>
<path class="st1" d="M-433.232,287.404v-12.048v-1.003l6.061,9.673L-433.232,287.404z"/>
<path class="st1" d="M-433.227,293.972l0.04-4.881l5.087-2.92L-433.227,293.972z"/>
<path class="st0" d="M-440.04,292.86l2.54,3.63h-21.33l2.47-3.63h1.15c2.04,0,3.69-1.65,3.69-3.69v-16.5h-6.52l1.06-2.22l0.06-0.13
	l0.96-2.02h4.44v-3.03l2.74-0.92v28.37c0.04-0.79,0.58-2.85,2.24-3.73v-9.12l0.02-1.41v10.71c0,2.04,1.65,3.69,3.69,3.69H-440.04z"
	/>
<path class="st0" d="M-446.54,271.7l0.02-3.4h15.14l1.15,2.06h-13.53C-445.66,270.36-446.54,271.7-446.54,271.7z"/>
<path class="st0" d="M-442.8,272.66h13.86l0.01,0.01h-13.93c-0.12,0-0.25,0.01-0.37,0.02C-443.09,272.67-442.95,272.66-442.8,272.66
	z"/>
<path class="st1" d="M-428.94,272.66h-13.86c-0.15,0-0.29,0.01-0.43,0.03c-0.12,0.01-0.24,0.03-0.36,0.06
	c-0.35,0.07-0.68,0.2-0.99,0.36c-0.21,0.11-0.4,0.24-0.57,0.39c0,0,0,0.01-0.01,0c-0.81,0.66-1.33,1.65-1.36,2.76v2.2l-0.02,1.41
	v9.12c-1.66,0.88-2.2,2.94-2.24,3.73v-28.37l2.26-0.77v4.72l-0.02,3.4c0,0,0.88-1.34,2.78-1.34h13.53l0.21,0.37L-428.94,272.66z"/>
<polygon class="st1" points="-446.5,263.57 -446.52,266.73 -446.52,263.58 "/>
<path class="st1" d="M-446.52,276.26c0.03-1.11,0.55-2.1,1.36-2.76c-0.81,0.69-1.33,1.71-1.33,2.85l-0.03,2.11V276.26z"/>
<polygon class="st1" points="-428.91,272.66 -428.94,272.66 -430.02,270.73 "/>
<path class="st1" d="M-456.92,270.322l-1.147,2.36h6.554v-2.36H-456.92z"/>
</svg>
