<?xml version="1.0" encoding="utf-8"?>
<!-- Generator: Adobe Illustrator 19.0.0, SVG Export Plug-In . SVG Version: 6.00 Build 0)  -->
<svg version="1.1" id="Layer_1" xmlns="http://www.w3.org/2000/svg" xmlns:xlink="http://www.w3.org/1999/xlink" x="0px" y="0px"
	 viewBox="-349 168 261 226" style="enable-background:new -349 168 261 226;" xml:space="preserve">
<style type="text/css">
	.st0{fill:#B091FB;}
</style>
<path class="st0" d="M-231.5,234.6c2,0,3.6-1.6,3.6-3.5s-1.6-3.5-3.6-3.5s-3.6,1.6-3.6,3.5S-233.5,234.6-231.5,234.6z"/>
<path class="st0" d="M-205.9,234.6c2,0,3.6-1.6,3.6-3.5s-1.6-3.5-3.6-3.5c-2,0-3.6,1.6-3.6,3.5S-207.9,234.6-205.9,234.6z"/>
<path class="st0" d="M-144.1,204.3l-5.9-4.9c-0.7-0.5-1.6-0.4-2.2,0.2l-11.4,13.8l-4.9-4.1c-0.3-0.3-0.8-0.2-1.1,0.1l-1.4,1.7
	c-0.3,0.3-0.2,0.8,0.1,1.1l3.3,2.7l-3.4,4.1c-6.4-18.1-25.1-31.2-47-31.2c-18,0-33.7,8.8-42.4,21.9c-4.1-2.1-6.8-9.9-8.2-14.4
	c-2.3,2.5-11.7,3-11.7,3c1.6,6.1,12.9,16.8,12.9,16.8c-1.3,2.4-17,0.3-24.1-3.4c0.8,3.6,0.8,11.1,1.4,12.9
	c7.5,1.7,17.4,1.5,23.6-0.2c-0.6,2.7-0.9,5.5-0.9,8.4c0,2.2,0.2,4.3,0.5,6.4c-3.9,0-7.1,0-9.3,0.1c-1.7,0-3.1,1.5-2.9,3.2l6.2,56.5
	c0.2,1.5,1.4,2.6,2.9,2.6H-168c1.5,0,2.7-1.1,2.9-2.5l7.2-56.6c0.2-1.7-1.1-3.3-2.8-3.3c-2.4,0-4.9-0.1-7.4-0.1l12.1-14.7l2.7,2.2
	c0.3,0.3,0.8,0.2,1.1-0.1l1.4-1.7c0.3-0.3,0.2-0.8-0.1-1.1l-4.4-3.6l11.4-13.8C-143.4,205.8-143.5,204.9-144.1,204.3L-144.1,204.3z
	 M-257.1,215.5c6.4-2.8,20.1-8,39.8-7.8c20.2,0.2,33.6,5.2,38.4,7.7c1.3,2.3,2.3,4.7,3.1,7.3c-8.1-3.5-22.5-7.5-41.4-7.5
	c-20,0-34.6,4.5-42.9,7.7C-259.4,220.4-258.4,217.9-257.1,215.5z M-217.7,280.9c-2.9,0-5.6-1.3-7.3-3.4c-0.1-0.2-0.3-0.3-0.4-0.5
	c0-0.1-0.1-0.1-0.1-0.2c-0.1-0.1-0.2-0.3-0.3-0.5c-0.1-0.1-0.1-0.2-0.2-0.3c-0.1-0.1-0.2-0.3-0.2-0.4c-0.1-0.1-0.1-0.2-0.2-0.3
	c-0.1-0.1-0.1-0.3-0.2-0.4c0-0.1-0.1-0.3-0.1-0.4c-0.1-0.1-0.1-0.3-0.1-0.4c-0.1-0.2-0.1-0.3-0.1-0.5c0-0.1-0.1-0.3-0.1-0.4
	c0-0.2-0.1-0.4-0.1-0.6c0-0.1,0-0.2,0-0.3c0-0.3-0.1-0.6-0.1-0.9c0-5.3,4.3-9.6,9.6-9.6c5.3,0,9.6,4.3,9.6,9.6c0,0.3,0,0.6-0.1,0.9
	c0,0.1,0,0.2,0,0.3c0,0.2-0.1,0.4-0.1,0.6c0,0.1,0,0.2-0.1,0.3c0,0.2-0.1,0.4-0.1,0.5c0,0.1-0.1,0.2-0.1,0.4
	c-0.1,0.2-0.1,0.3-0.2,0.5c-0.1,0.1-0.1,0.2-0.1,0.3c-0.1,0.2-0.1,0.3-0.2,0.5c-0.1,0.1-0.1,0.2-0.2,0.3c-0.1,0.2-0.2,0.3-0.3,0.5
	c-0.1,0.1-0.1,0.2-0.2,0.3C-211.6,279.2-214.4,280.9-217.7,280.9L-217.7,280.9z M-211,239.1c-1.8-0.6-3.8-0.9-6.3-0.9
	c-2.3,0-4.3,0.4-6,1c-8.1,0-15.9,0-23,0.1c-2.2-3.8-2-8.5-1.7-12.7c0-0.5,0-1,0.1-1.4c7.8-2.2,18.2-4,30.8-4
	c11.9,0,21.7,1.7,29.2,3.7c0.3,4.4-0.1,10.3-1.8,14.4C-196.9,239.1-204,239.1-211,239.1L-211,239.1z M-168.6,235
	c0-0.7,0.1-1.4,0.1-2.1c0-3.6-0.5-7-1.3-10.3l3.9-4.7l6.9,5.7L-168.6,235L-168.6,235z"/>
<path d="M-326.6,358h8.3l3.6-9h16l3.6,9h8.4l-15.5-38h-9L-326.6,358z M-311.8,341.7l5-12.7l5.1,12.7H-311.8z"/>
<path d="M-283.3,358h18.7c6.7,0,11.2-4.6,11.2-10.8c0-4.1-2-7.3-5.4-9.2c2.4-1.6,3.9-4.5,3.9-8c0-5.6-4.1-9.9-10.6-9.9h-17.7V358z
	 M-275.7,335v-7.9h9c2.9,0,4.5,1.6,4.5,3.8c0,2.6-1.6,4.1-4.5,4.1H-275.7L-275.7,335z M-275.7,350.9v-9h9.5c3.1,0,4.9,1.9,4.9,4.5
	c0,2.6-1.8,4.5-4.9,4.5L-275.7,350.9L-275.7,350.9z"/>
<path d="M-248.8,358h7.6v-38h-7.6V358z"/>
<path d="M-222,358h5.2l0.1-31l21.2,31h6.2v-38h-5.2v30.5l-20.9-30.5h-6.6L-222,358L-222,358z"/>
<path d="M-182.3,358h5.2v-26.2h-5.2V358z M-179.8,320.6c-2,0-3.5,1.6-3.5,3.5c0,1.9,1.5,3.5,3.5,3.5c2,0,3.4-1.5,3.4-3.5
	C-176.4,322.2-177.9,320.6-179.8,320.6z"/>
<path d="M-170.7,358h5.2v-14.1c0-5,2.6-8.2,6.7-8.2c3.7,0,5.5,2.1,5.5,6.4V358h5.2v-16.9c0-6.2-3.4-10-9.1-10
	c-3.6,0-6.4,1.5-8.3,3.9v-3h-5.2V358L-170.7,358z"/>
<path d="M-151.3,364.1c0,4.1,3.2,6.9,7.6,6.9c5.2,0,8.3-3.5,8.3-8.5v-30.7h-5.2v30.9c0,2.2-1.1,3.6-3.1,3.6c-1.8,0-2.9-1-3-3
	L-151.3,364.1L-151.3,364.1z M-137.8,320.6c-2,0-3.5,1.6-3.5,3.5c0,1.9,1.5,3.5,3.5,3.5c2,0,3.4-1.5,3.4-3.5
	C-134.4,322.2-135.9,320.6-137.8,320.6z"/>
<path d="M-119.8,342.3c-6.6,1.1-9.9,3.8-9.9,8.7c0,3.9,3,7.8,9,7.8c3.5,0,6-1.6,7.5-4.1v3.3h4.8v-17.7c0-5.8-3.8-9.4-10.7-9.4
	c-6,0-10.8,3.6-10.5,10.3l4.9,0.4l-0.1-0.8c0-3.3,2.1-5.4,5.8-5.4c3.6,0,5.7,1.9,5.7,4.7v1.1L-119.8,342.3L-119.8,342.3z
	 M-119.8,354.2c-3.1,0-5-1.5-5-3.7c0-2.4,2.2-3.5,5.8-4.2l5.8-0.9v1.5C-113.3,351.2-116,354.2-119.8,354.2L-119.8,354.2z"/>
</svg>
