<?xml version="1.0" encoding="utf-8"?>
<!-- Generator: Adobe Illustrator 19.0.0, SVG Export Plug-In . SVG Version: 6.00 Build 0)  -->
<svg version="1.1" id="Layer_1" xmlns="http://www.w3.org/2000/svg" xmlns:xlink="http://www.w3.org/1999/xlink" x="0px" y="0px"
	 viewBox="0 0 500 500" style="enable-background:new 0 0 500 500;" xml:space="preserve">
<path id="XMLID_102_" d="M80.3,235.8v-35c0-0.7-0.6-1.1-1.1-1.1c-0.6,0-1.1,0.6-1.1,1.1v35c0,0.7,0.6,1.1,1.1,1.1
	C79.8,237,80.3,236.5,80.3,235.8z"/>
<path id="XMLID_101_" d="M67.7,269.7l-10.2-19.2V233h6.5v8.8h9.5V233h6.1v36.5L67.7,269.7z"/>
<path id="XMLID_100_" d="M91.1,269.7l10.2-19.2V233h-6.5v8.8h-9.3V233h-6.1v36.5L91.1,269.7z"/>
<path id="XMLID_99_" d="M79.4,201.5c2.5,0,5,5,8.1,5.7c3,0.7,4.3-1.7,8.5-1.1c3.8,0.5,3.4,5.6,9.8,6c-2.3,1.7-5.6,3.9-10.6,3.5
	c-3.8-0.3-4.9-2.8-9.1-1.9c-4.3,0.8-5.2,3.6-6.7,4C79.4,209.6,79.4,201.5,79.4,201.5z"/>
<path id="XMLID_90_" d="M46.6,258l-20-5.9v-0.7l20-5.9v-5.6l-25.7,7.9v7.9l25.7,7.9V258z M226.2,270.7c4.3,0,6.8-2.2,8.1-5.1h0.7
	v4.7h6.3v-41.4h-6.4v16.8h-0.7c-1.4-2.7-3.8-4.9-8.1-4.9h-0.2c-6.3,0-10.1,5-10.1,13.5v3.3c0,8.5,3.8,13.3,10.2,13.3L226.2,270.7
	L226.2,270.7z M228.2,264.8c-4,0-6-2.7-6-7.8v-2.7c0-5,2-7.8,6-7.8h0.2c4.2,0,6.4,2.7,6.4,7.8v2.6c0,5.1-2.2,7.8-6.4,7.8
	L228.2,264.8L228.2,264.8z M265.9,264.5c-1.6,0-1.9-0.5-1.9-1.8v-33.9h-16.6v5.6h10.2V262c0,4.8,3.1,8.1,8.2,8.1H276v-5.6
	L265.9,264.5L265.9,264.5z M394.8,270.7c4.3,0,6.8-2.2,8.1-5.1h0.7v4.7h6.3v-41.4h-6.4v16.8h-0.7c-1.4-2.7-3.8-4.9-8.1-4.9h-0.2
	c-6.3,0-10.1,5-10.1,13.5v3.3c0,8.5,3.8,13.3,10.2,13.3L394.8,270.7L394.8,270.7z M396.7,264.8c-4,0-6-2.7-6-7.8v-2.7
	c0-5,2-7.8,6-7.8h0.2c4.2,0,6.4,2.7,6.4,7.8v2.6c0,5.1-2.2,7.8-6.4,7.8L396.7,264.8L396.7,264.8z M434.3,264.5
	c-1.6,0-1.9-0.5-1.9-1.8v-33.9h-16.6v5.6H426V262c0,4.8,3.1,8.1,8.2,8.1h10.2v-5.6L434.3,264.5L434.3,264.5z M477.6,255.7v-7.9
	l-25.7-7.9v5.6l20,5.9v0.7l-20,5.9v5.6L477.6,255.7z"/>
<path id="XMLID_79_" d="M135.2,249.7c3.5-1.1,5.5-3.8,5.5-7.9v-0.5c0-6.4-4.3-10.2-12.1-10.2h-13v39.3h14.5
	c7.6,0,12.1-3.8,12.1-10.7v-0.5c0-5-2.6-7.8-6.9-8.9C135.2,250.4,135.2,249.7,135.2,249.7z M128.7,236.9c4.1,0,5.5,1.4,5.5,5v0.2
	c0,3.8-1.4,5.2-5.5,5.2h-6.9v-10.5L128.7,236.9L128.7,236.9z M135.7,258.8c0,3.9-1.5,5.4-5.5,5.4h-8.2v-11h8.2
	c4.1,0,5.5,1.5,5.5,5.4V258.8z M167.4,241.4v16.5c0,4.2-2.3,7.1-6.6,7.1h-0.2c-3.2,0-5.1-1.7-5.1-5.8v-17.7h-6.5v18.1
	c0,7.3,3.9,11.2,9.6,11.2h0.2c3.9,0,6.7-1.8,8.1-4.9h0.7v4.2h6.4v-28.7L167.4,241.4L167.4,241.4z M192.3,227.8v8.4h8.9v-8.4H192.3z
	 M201.8,264.5c-1.5,0-1.9-0.5-1.9-1.8v-21.3h-16.7v5.7h10.4v15c0,4.8,3.1,8.1,8.2,8.1h8.5v-5.6L201.8,264.5L201.8,264.5L201.8,264.5
	z M303.5,256.2v0.2c0,6.5-2.8,8.6-7.1,8.6h-0.3c-4.8,0-6.9-2.1-6.9-8.6v-11.6c0-6.5,2.2-8.6,7.1-8.6h0.3c4.8,0,6.9,2.1,6.9,8.6h6.4
	c0-9.6-5.6-14.3-13.4-14.3h-0.3c-7.9,0-13.4,4.8-13.4,14.3v11.6c0,9.6,4.7,14.3,11.8,14.3h0.3c4.5,0,7.1-1.7,8.4-5.1h0.7v4.5h6
	v-19.8h-13v5.9L303.5,256.2L303.5,256.2z M336,241.4v16.5c0,4.2-2.3,7.1-6.6,7.1h-0.2c-3.2,0-5.1-1.7-5.1-5.8v-17.7h-6.4v18.1
	c0,7.3,3.9,11.2,9.6,11.2h0.2c3.9,0,6.7-1.8,8.1-4.9h0.6v4.2h6.4v-28.7L336,241.4L336,241.4z M360.8,227.8v8.4h8.9v-8.4H360.8z
	 M370.3,264.5c-1.5,0-1.9-0.5-1.9-1.8v-21.3h-16.7v5.7h10.4v15c0,4.8,3.1,8.1,8.2,8.1h8.5v-5.6L370.3,264.5L370.3,264.5L370.3,264.5
	z"/>
</svg>
