<?xml version="1.0" encoding="utf-8"?>
<!-- Generator: Adobe Illustrator 19.0.0, SVG Export Plug-In . SVG Version: 6.00 Build 0)  -->
<svg version="1.1" id="Layer_1" xmlns="http://www.w3.org/2000/svg" xmlns:xlink="http://www.w3.org/1999/xlink" x="0px" y="0px"
	 viewBox="0 0 500 500" style="enable-background:new 0 0 500 500;" xml:space="preserve">
<style type="text/css">
	.st0{fill:#629FFC;}
	.st1{fill:#A9CBFF;}
</style>
<path class="st0" d="M80.3,235.7v-35c0-0.6-0.5-1.2-1.2-1.2c-0.6,0-1.2,0.5-1.2,1.2v35c0,0.6,0.5,1.2,1.2,1.2
	C79.8,237,80.3,236.4,80.3,235.7z"/>
<path class="st0" d="M67.7,269.6l-10.2-19.2v-17.5H64v8.8h9.5v-8.8h6.1v36.5L67.7,269.6z"/>
<path class="st1" d="M91.1,269.6l10.2-19.2v-17.5h-6.5v8.8h-9.4v-8.8h-6.1v36.5L91.1,269.6z"/>
<path class="st0" d="M79.4,201.5c2.5,0,5.1,5,8.1,5.7c3,0.7,4.3-1.7,8.5-1.2c3.8,0.4,3.4,5.6,9.8,6c-2.3,1.7-5.6,3.9-10.5,3.5
	c-3.8-0.3-4.8-2.8-9.1-1.9c-4.3,0.8-5.3,3.6-6.7,4C79.4,209.5,79.4,201.5,79.4,201.5z"/>
<path class="st0" d="M46.6,257.9l-20-5.9v-0.7l20-5.9v-5.6l-25.7,7.9v7.9l25.7,7.9V257.9z M226.2,270.6c4.3,0,6.9-2.2,8.1-5.2h0.6
	v4.6h6.2v-41.4h-6.4v16.9h-0.6c-1.4-2.7-3.8-4.8-8.1-4.8h-0.2c-6.2,0-10.1,5-10.1,13.5v3.3c0,8.5,3.8,13.3,10.2,13.3h0.3V270.6z
	 M228.3,264.7c-4,0-6-2.7-6-7.8v-2.6c0-5.1,2-7.8,6-7.8h0.2c4.2,0,6.4,2.7,6.4,7.8v2.6c0,5.2-2.2,7.8-6.4,7.8H228.3z M265.9,264.4
	c-1.6,0-1.9-0.4-1.9-1.8v-33.9h-16.7v5.6h10.2v27.6c0,4.7,3.1,8.1,8.2,8.1H276v-5.6L265.9,264.4L265.9,264.4z M394.8,270.6
	c4.3,0,6.9-2.2,8.1-5.2h0.6v4.6h6.2v-41.4h-6.4v16.9h-0.6c-1.4-2.7-3.8-4.8-8.1-4.8h-0.2c-6.2,0-10.1,5-10.1,13.5v3.3
	c0,8.5,3.8,13.3,10.2,13.3h0.3V270.6z M396.7,264.7c-4,0-6-2.7-6-7.8v-2.6c0-5.1,2-7.8,6-7.8h0.2c4.2,0,6.4,2.7,6.4,7.8v2.6
	c0,5.2-2.2,7.8-6.4,7.8H396.7z M434.4,264.4c-1.6,0-1.9-0.4-1.9-1.8v-33.9h-16.7v5.6H426v27.6c0,4.7,3.1,8.1,8.2,8.1h10.2v-5.6
	L434.4,264.4L434.4,264.4z M477.6,255.6v-7.9l-25.7-7.9v5.6l20,5.9v0.7l-20,5.9v5.6L477.6,255.6z"/>
<path d="M135.2,249.5c3.5-1.2,5.5-3.8,5.5-7.9v-0.4c0-6.4-4.3-10.2-12-10.2h-13v39.2h14.4c7.6,0,12-3.8,12-10.6v-0.4
	c0-5-2.6-7.8-7-8.9V249.5z M128.7,236.8c4.1,0,5.5,1.4,5.5,5v0.2c0,3.8-1.4,5.3-5.5,5.3h-6.9v-10.4L128.7,236.8L128.7,236.8z
	 M135.7,258.7c0,3.9-1.5,5.4-5.5,5.4H122V253h8.2c4.1,0,5.5,1.5,5.5,5.4V258.7z M167.4,241.3v16.4c0,4.2-2.3,7.1-6.6,7.1h-0.2
	c-3.2,0-5.2-1.7-5.2-5.8v-17.7H149v18.1c0,7.3,3.9,11.2,9.6,11.2h0.2c3.9,0,6.7-1.8,8.1-4.8h0.6v4.2h6.4v-28.7H167.4z M192.3,227.7
	v8.4h8.9v-8.4H192.3z M201.8,264.4c-1.5,0-1.9-0.4-1.9-1.8v-21.3h-16.8v5.7h10.3v15c0,4.7,3.1,8.1,8.2,8.1h8.5v-5.6h-8.4V264.4z
	 M303.4,256.1v0.2c0,6.5-2.8,8.6-7.1,8.6H296c-4.7,0-7-2.1-7-8.6v-11.6c0-6.5,2.2-8.6,7.1-8.6h0.3c4.7,0,7,2.1,7,8.6h6.4
	c0-9.6-5.6-14.3-13.4-14.3h-0.3c-7.9,0-13.4,4.7-13.4,14.3v11.6c0,9.6,4.6,14.3,11.8,14.3h0.3c4.5,0,7.1-1.7,8.4-5.2h0.6v4.5h6
	v-19.8h-13v5.9L303.4,256.1L303.4,256.1z M336,241.3v16.4c0,4.2-2.3,7.1-6.6,7.1h-0.2c-3.2,0-5.2-1.7-5.2-5.8v-17.7h-6.4v18.1
	c0,7.3,3.9,11.2,9.6,11.2h0.2c3.9,0,6.7-1.8,8.1-4.8h0.5v4.2h6.4v-28.7H336z M360.8,227.7v8.4h8.9v-8.4H360.8z M370.3,264.4
	c-1.5,0-1.9-0.4-1.9-1.8v-21.3h-16.8v5.7h10.3v15c0,4.7,3.1,8.1,8.2,8.1h8.5v-5.6h-8.4V264.4z"/>
</svg>
