<?xml version="1.0" encoding="utf-8"?>
<!-- Generator: Adobe Illustrator 19.0.0, SVG Export Plug-In . SVG Version: 6.00 Build 0)  -->
<svg version="1.1" id="Layer_1" xmlns="http://www.w3.org/2000/svg" xmlns:xlink="http://www.w3.org/1999/xlink" x="0px" y="0px"
	 viewBox="0 0 500 500" style="enable-background:new 0 0 500 500;" xml:space="preserve">
<style type="text/css">
	.st0{fill:#FFFFFF;}
</style>
<path id="XMLID_102_" class="st0" d="M69.6,241.2v-37.4c0-0.7-0.6-1.2-1.2-1.2s-1.2,0.6-1.2,1.2v37.4c0,0.7,0.6,1.2,1.2,1.2
	C69,242.5,69.6,241.9,69.6,241.2z"/>
<path id="XMLID_101_" class="st0" d="M56.1,277.4l-10.9-20.5v-18.7h7v9.4h10.2v-9.4h6.5v39L56.1,277.4z"/>
<path id="XMLID_100_" class="st0" d="M81.1,277.4l10.9-20.5v-18.7h-7v9.4H75v-9.4h-6.5v39L81.1,277.4z"/>
<path id="XMLID_99_" class="st0" d="M68.6,204.5c2.7,0,5.4,5.3,8.7,6.1c3.2,0.8,4.6-1.8,9.1-1.2c4.1,0.5,3.6,6,10.5,6.4
	c-2.5,1.8-6,4.2-11.3,3.7c-4.1-0.3-5.2-3-9.7-2c-4.6,0.9-5.6,3.8-7.2,4.3C68.6,213.1,68.6,204.5,68.6,204.5z"/>
<path id="XMLID_90_" class="st0" d="M33.5,264.9l-21.4-6.3v-0.8l21.4-6.3v-6L6,253.9v8.5l27.5,8.5V264.9z M225.7,278.5
	c4.6,0,7.3-2.4,8.7-5.5h0.7v5h6.7v-44.3h-6.9v18h-0.7c-1.5-2.9-4.1-5.2-8.7-5.2h-0.2c-6.7,0-10.8,5.3-10.8,14.4v3.5
	c0,9.1,4.1,14.2,10.9,14.2h0.3C225.7,278.6,225.7,278.5,225.7,278.5z M227.8,272.2c-4.3,0-6.4-2.9-6.4-8.3V261
	c0-5.4,2.1-8.3,6.4-8.3h0.2c4.5,0,6.9,2.9,6.9,8.3v2.8c0,5.5-2.4,8.3-6.9,8.3H227.8z M268.1,271.9c-1.7,0-2-0.5-2-1.9v-36.3h-17.8v6
	h10.9v29.5c0,5.1,3.3,8.7,8.8,8.7h10.9v-6L268.1,271.9L268.1,271.9z M406,278.5c4.6,0,7.3-2.4,8.7-5.5h0.7v5h6.7v-44.3h-6.9v18h-0.7
	c-1.5-2.9-4.1-5.2-8.7-5.2h-0.2c-6.7,0-10.8,5.3-10.8,14.4v3.5c0,9.1,4.1,14.2,10.9,14.2h0.3V278.5z M408.1,272.2
	c-4.3,0-6.4-2.9-6.4-8.3V261c0-5.4,2.1-8.3,6.4-8.3h0.2c4.5,0,6.9,2.9,6.9,8.3v2.8c0,5.5-2.4,8.3-6.9,8.3H408.1z M448.3,271.9
	c-1.7,0-2-0.5-2-1.9v-36.3h-17.8v6h10.9v29.5c0,5.1,3.3,8.7,8.8,8.7h10.9v-6L448.3,271.9L448.3,271.9z M494.6,262.5v-8.5l-27.5-8.5
	v6l21.4,6.3v0.8l-21.4,6.3v6L494.6,262.5z"/>
<path id="XMLID_79_" class="st0" d="M128.3,256c3.7-1.2,5.9-4.1,5.9-8.5v-0.5c0-6.9-4.6-10.9-12.9-10.9h-13.9v42h15.5
	c8.1,0,12.9-4.1,12.9-11.4v-0.5c0-5.3-2.8-8.3-7.4-9.5C128.3,256.8,128.3,256,128.3,256z M121.4,242.3c4.4,0,5.9,1.5,5.9,5.3v0.2
	c0,4.1-1.5,5.6-5.9,5.6H114v-11.2L121.4,242.3L121.4,242.3z M128.8,265.8c0,4.2-1.6,5.8-5.9,5.8h-8.8v-11.8h8.8
	c4.4,0,5.9,1.6,5.9,5.8V265.8z M162.8,247.2v17.6c0,4.5-2.5,7.6-7.1,7.6h-0.2c-3.4,0-5.5-1.8-5.5-6.2v-18.9H143v19.4
	c0,7.8,4.2,12,10.3,12h0.2c4.2,0,7.2-1.9,8.7-5.2h0.7v4.5h6.9v-30.7H162.8z M189.4,232.6v9h9.5v-9H189.4z M199.5,271.9
	c-1.6,0-2-0.5-2-1.9v-22.8h-17.9v6.1h11.1v16c0,5.1,3.3,8.7,8.8,8.7h9.1v-6h-9V271.9z M308.3,263v0.2c0,7-3,9.2-7.6,9.2h-0.3
	c-5.1,0-7.4-2.3-7.4-9.2v-12.4c0-7,2.4-9.2,7.6-9.2h0.3c5.1,0,7.4,2.3,7.4,9.2h6.9c0-10.3-6-15.3-14.3-15.3h-0.3
	c-8.5,0-14.3,5.1-14.3,15.3v12.4c0,10.3,5,15.3,12.6,15.3h0.3c4.8,0,7.6-1.8,9-5.5h0.7v4.8h6.4v-21.2h-13.9v6.3L308.3,263L308.3,263
	z M343.1,247.2v17.6c0,4.5-2.5,7.6-7.1,7.6h-0.2c-3.4,0-5.5-1.8-5.5-6.2v-18.9h-6.9v19.4c0,7.8,4.2,12,10.3,12h0.2
	c4.2,0,7.2-1.9,8.7-5.2h0.6v4.5h6.9v-30.7H343.1z M369.6,232.6v9h9.5v-9H369.6z M379.8,271.9c-1.6,0-2-0.5-2-1.9v-22.8h-17.9v6.1
	h11.1v16c0,5.1,3.3,8.7,8.8,8.7h9.1v-6h-9V271.9z"/>
</svg>
