<?xml version="1.0" encoding="utf-8"?>
<!-- Generator: Adobe Illustrator 19.0.0, SVG Export Plug-In . SVG Version: 6.00 Build 0)  -->
<svg version="1.1" id="Layer_1" xmlns="http://www.w3.org/2000/svg" xmlns:xlink="http://www.w3.org/1999/xlink" x="0px" y="0px"
	 viewBox="-240 225 478 112" style="enable-background:new -240 225 478 112;" xml:space="preserve">
<style type="text/css">
	.st0{fill:#FFFFFF;}
</style>
<path class="st0" d="M-161.2,276.7v-33.2c0-0.6-0.5-1.1-1.1-1.1s-1.1,0.5-1.1,1.1v33.2c0,0.6,0.5,1.1,1.1,1.1
	C-161.7,277.9-161.2,277.3-161.2,276.7z"/>
<path class="st0" d="M-173.2,308.8l-9.7-18.2V274h6.2v8.3h9V274h5.8v34.6L-173.2,308.8z"/>
<path class="st0" d="M-151,308.8l9.7-18.2V274h-6.2v8.3h-8.9V274h-5.8v34.6L-151,308.8z"/>
<path class="st0" d="M-162.1,244.2c2.4,0,4.8,4.7,7.7,5.4c2.8,0.7,4.1-1.6,8.1-1.1c3.6,0.4,3.2,5.3,9.3,5.7c-2.2,1.6-5.3,3.7-10,3.3
	c-3.6-0.3-4.6-2.7-8.6-1.8c-4.1,0.8-5,3.4-6.4,3.8C-162.1,251.8-162.1,244.2-162.1,244.2z"/>
<path class="st0" d="M-193.2,297.7l-19-5.6v-0.7l19-5.6v-5.3l-24.4,7.5v7.5l24.4,7.5V297.7z M-22.8,309.8c4.1,0,6.5-2.1,7.7-4.9h0.6
	v4.4h5.9V270h-6.1v16h-0.6c-1.3-2.6-3.6-4.6-7.7-4.6h-0.2c-5.9,0-9.6,4.7-9.6,12.8v3.1c0,8.1,3.6,12.6,9.7,12.6h0.3V309.8z
	 M-20.9,304.2c-3.8,0-5.7-2.6-5.7-7.4v-2.5c0-4.8,1.9-7.4,5.7-7.4h0.2c4,0,6.1,2.6,6.1,7.4v2.5c0,4.9-2.1,7.4-6.1,7.4H-20.9z
	 M14.8,303.9c-1.5,0-1.8-0.4-1.8-1.7V270H-2.8v5.3h9.7v26.2c0,4.5,2.9,7.7,7.8,7.7h9.7v-5.3L14.8,303.9L14.8,303.9z M137.1,309.8
	c4.1,0,6.5-2.1,7.7-4.9h0.6v4.4h5.9V270h-6.1v16h-0.6c-1.3-2.6-3.6-4.6-7.7-4.6h-0.2c-5.9,0-9.6,4.7-9.6,12.8v3.1
	c0,8.1,3.6,12.6,9.7,12.6h0.3V309.8z M138.9,304.2c-3.8,0-5.7-2.6-5.7-7.4v-2.5c0-4.8,1.9-7.4,5.7-7.4h0.2c4,0,6.1,2.6,6.1,7.4v2.5
	c0,4.9-2.1,7.4-6.1,7.4H138.9z M174.6,303.9c-1.5,0-1.8-0.4-1.8-1.7V270H157v5.3h9.7v26.2c0,4.5,2.9,7.7,7.8,7.7h9.7v-5.3
	L174.6,303.9L174.6,303.9z M215.6,295.6v-7.5l-24.4-7.5v5.3l19,5.6v0.7l-19,5.6v5.3L215.6,295.6z"/>
<path class="st0" d="M-109.2,289.8c3.3-1.1,5.2-3.6,5.2-7.5v-0.4c0-6.1-4.1-9.7-11.4-9.7h-12.3v37.2h13.7c7.2,0,11.4-3.6,11.4-10.1
	v-0.4c0-4.7-2.5-7.4-6.6-8.4V289.8z M-115.3,277.7c3.9,0,5.2,1.3,5.2,4.7v0.2c0,3.6-1.3,5-5.2,5h-6.5v-9.9L-115.3,277.7
	L-115.3,277.7z M-108.7,298.5c0,3.7-1.4,5.1-5.2,5.1h-7.8v-10.5h7.8c3.9,0,5.2,1.4,5.2,5.1V298.5z M-78.6,282v15.6
	c0,4-2.2,6.7-6.3,6.7h-0.2c-3,0-4.9-1.6-4.9-5.5V282h-6.1v17.2c0,6.9,3.7,10.6,9.1,10.6h0.2c3.7,0,6.4-1.7,7.7-4.6h0.6v4h6.1V282
	H-78.6z M-55,269.1v8h8.4v-8H-55z M-46,303.9c-1.4,0-1.8-0.4-1.8-1.7V282h-15.9v5.4h9.8v14.2c0,4.5,2.9,7.7,7.8,7.7h8.1V304h-8
	V303.9z M50.4,296v0.2c0,6.2-2.7,8.2-6.7,8.2h-0.3c-4.5,0-6.6-2-6.6-8.2v-11c0-6.2,2.1-8.2,6.7-8.2h0.3c4.5,0,6.6,2,6.6,8.2h6.1
	c0-9.1-5.3-13.6-12.7-13.6h-0.3c-7.5,0-12.7,4.5-12.7,13.6v11c0,9.1,4.4,13.6,11.2,13.6h0.3c4.3,0,6.7-1.6,8-4.9h0.6v4.3h5.7v-18.8
	H44.3v5.6L50.4,296L50.4,296z M81.3,282v15.6c0,4-2.2,6.7-6.3,6.7h-0.2c-3,0-4.9-1.6-4.9-5.5V282h-6.1v17.2c0,6.9,3.7,10.6,9.1,10.6
	h0.2c3.7,0,6.4-1.7,7.7-4.6h0.5v4h6.1V282H81.3z M104.8,269.1v8h8.4v-8H104.8z M113.8,303.9c-1.4,0-1.8-0.4-1.8-1.7V282H96.1v5.4
	h9.8v14.2c0,4.5,2.9,7.7,7.8,7.7h8.1V304h-8V303.9z"/>
</svg>
