<?xml version="1.0" encoding="utf-8"?>
<!-- Generator: Adobe Illustrator 19.0.0, SVG Export Plug-In . SVG Version: 6.00 Build 0)  -->
<svg version="1.1" id="Layer_1" xmlns="http://www.w3.org/2000/svg" xmlns:xlink="http://www.w3.org/1999/xlink" x="0px" y="0px"
	 viewBox="-240 225 478 112" style="enable-background:new -240 225 478 112;" xml:space="preserve">
<style type="text/css">
	.st0{fill:#629FFC;}
	.st1{fill:#A9CBFF;}
</style>
<path class="st0" d="M-160.5,279.7v-33.2c0-0.6-0.5-1.1-1.1-1.1c-0.6,0-1.1,0.5-1.1,1.1v33.2c0,0.6,0.5,1.1,1.1,1.1
	C-161,280.9-160.5,280.3-160.5,279.7z"/>
<path class="st0" d="M-172.5,311.8l-9.7-18.2V277h6.2v8.3h9V277h5.8v34.6L-172.5,311.8z"/>
<path class="st1" d="M-150.3,311.8l9.7-18.2V277h-6.2v8.3h-8.9V277h-5.8v34.6L-150.3,311.8z"/>
<path class="st0" d="M-161.4,247.2c2.4,0,4.8,4.7,7.7,5.4c2.8,0.7,4.1-1.6,8.1-1.1c3.6,0.4,3.2,5.3,9.3,5.7c-2.2,1.6-5.3,3.7-10,3.3
	c-3.6-0.3-4.6-2.7-8.6-1.8c-4.1,0.8-5,3.4-6.4,3.8C-161.4,254.8-161.4,247.2-161.4,247.2z"/>
<path class="st0" d="M-192.5,300.7l-19-5.6v-0.7l19-5.6v-5.3l-24.4,7.5v7.5l24.4,7.5V300.7z M-22.1,312.8c4.1,0,6.5-2.1,7.7-4.9h0.6
	v4.4h5.9V273h-6.1v16h-0.6c-1.3-2.6-3.6-4.6-7.7-4.6h-0.2c-5.9,0-9.6,4.7-9.6,12.8v3.1c0,8.1,3.6,12.6,9.7,12.6H-22.1z M-20.2,307.2
	c-3.8,0-5.7-2.6-5.7-7.4v-2.5c0-4.8,1.9-7.4,5.7-7.4h0.2c4,0,6.1,2.6,6.1,7.4v2.5c0,4.9-2.1,7.4-6.1,7.4H-20.2z M15.5,306.9
	c-1.5,0-1.8-0.4-1.8-1.7V273H-2.1v5.3h9.7v26.2c0,4.5,2.9,7.7,7.8,7.7h9.7v-5.3H15.5z M137.8,312.8c4.1,0,6.5-2.1,7.7-4.9h0.6v4.4
	h5.9V273h-6.1v16h-0.6c-1.3-2.6-3.6-4.6-7.7-4.6h-0.2c-5.9,0-9.6,4.7-9.6,12.8v3.1c0,8.1,3.6,12.6,9.7,12.6H137.8z M139.6,307.2
	c-3.8,0-5.7-2.6-5.7-7.4v-2.5c0-4.8,1.9-7.4,5.7-7.4h0.2c4,0,6.1,2.6,6.1,7.4v2.5c0,4.9-2.1,7.4-6.1,7.4H139.6z M175.3,306.9
	c-1.5,0-1.8-0.4-1.8-1.7V273h-15.8v5.3h9.7v26.2c0,4.5,2.9,7.7,7.8,7.7h9.7v-5.3H175.3z M216.3,298.6v-7.5l-24.4-7.5v5.3l19,5.6v0.7
	l-19,5.6v5.3L216.3,298.6z"/>
<path d="M-108.5,292.8c3.3-1.1,5.2-3.6,5.2-7.5v-0.4c0-6.1-4.1-9.7-11.4-9.7H-127v37.2h13.7c7.2,0,11.4-3.6,11.4-10.1v-0.4
	c0-4.7-2.5-7.4-6.6-8.4V292.8z M-114.6,280.7c3.9,0,5.2,1.3,5.2,4.7v0.2c0,3.6-1.3,5-5.2,5h-6.5v-9.9H-114.6z M-108,301.5
	c0,3.7-1.4,5.1-5.2,5.1h-7.8v-10.5h7.8c3.9,0,5.2,1.4,5.2,5.1V301.5z M-77.9,285v15.6c0,4-2.2,6.7-6.3,6.7h-0.2
	c-3,0-4.9-1.6-4.9-5.5V285h-6.1v17.2c0,6.9,3.7,10.6,9.1,10.6h0.2c3.7,0,6.4-1.7,7.7-4.6h0.6v4h6.1V285H-77.9z M-54.3,272.1v8h8.4
	v-8H-54.3z M-45.3,306.9c-1.4,0-1.8-0.4-1.8-1.7V285H-63v5.4h9.8v14.2c0,4.5,2.9,7.7,7.8,7.7h8.1v-5.3H-45.3z M51.1,299v0.2
	c0,6.2-2.7,8.2-6.7,8.2h-0.3c-4.5,0-6.6-2-6.6-8.2v-11c0-6.2,2.1-8.2,6.7-8.2h0.3c4.5,0,6.6,2,6.6,8.2h6.1c0-9.1-5.3-13.6-12.7-13.6
	h-0.3c-7.5,0-12.7,4.5-12.7,13.6v11c0,9.1,4.4,13.6,11.2,13.6h0.3c4.3,0,6.7-1.6,8-4.9h0.6v4.3h5.7v-18.8H45v5.6H51.1z M82,285v15.6
	c0,4-2.2,6.7-6.3,6.7h-0.2c-3,0-4.9-1.6-4.9-5.5V285h-6.1v17.2c0,6.9,3.7,10.6,9.1,10.6h0.2c3.7,0,6.4-1.7,7.7-4.6H82v4h6.1V285H82z
	 M105.5,272.1v8h8.4v-8H105.5z M114.5,306.9c-1.4,0-1.8-0.4-1.8-1.7V285H96.8v5.4h9.8v14.2c0,4.5,2.9,7.7,7.8,7.7h8.1v-5.3H114.5z"
	/>
</svg>
