<?xml version="1.0" encoding="utf-8"?>
<!-- Generator: Adobe Illustrator 19.0.0, SVG Export Plug-In . SVG Version: 6.00 Build 0)  -->
<svg version="1.1" id="Layer_1" xmlns="http://www.w3.org/2000/svg" xmlns:xlink="http://www.w3.org/1999/xlink" x="0px" y="0px"
	 viewBox="0 0 500 500" style="enable-background:new 0 0 500 500;" xml:space="preserve">
<style type="text/css">
	.st0{fill:#FFFFFF;}
	.st1{fill:#629FFC;}
	.st2{fill:#A9CBFF;}
	.st3{fill:#ACC6FA;}
	.st4{fill:#DFF9FF;}
	.st5{fill:#EFFBFF;}
	.st6{fill:#BACFF7;}
	.st7{fill:#DEE9FE;}
	.st8{fill:#9EB8EA;}
	.st9{fill:#C3DBFF;}
	.st10{fill:#B9CEF6;}
	.st11{fill:#B7CDF6;}
	.st12{fill:#DFE9FE;}
	.st13{fill:#9AB5E9;}
	.st14{fill:#BACFF6;}
	.st15{fill:#7EAEF5;}
</style>
<rect x="0" class="st0" width="500" height="500"/>
<path class="st1" d="M80.3,214.8v-35c0-0.6-0.5-1.2-1.2-1.2c-0.6,0-1.2,0.5-1.2,1.2v35c0,0.6,0.5,1.2,1.2,1.2
	C79.8,216.1,80.3,215.5,80.3,214.8z"/>
<path class="st1" d="M67.7,248.7l-10.2-19.2V212H64v8.8h9.5V212h6.1v36.5L67.7,248.7z"/>
<path class="st2" d="M91.1,248.7l10.2-19.2V212h-6.5v8.8h-9.4V212h-6.1v36.5L91.1,248.7z"/>
<path class="st1" d="M79.4,180.6c2.5,0,5.1,5,8.1,5.7c3,0.7,4.3-1.7,8.5-1.2c3.8,0.4,3.4,5.6,9.8,6c-2.3,1.7-5.6,3.9-10.5,3.5
	c-3.8-0.3-4.8-2.8-9.1-1.9c-4.3,0.8-5.3,3.6-6.7,4C79.4,188.6,79.4,180.6,79.4,180.6z"/>
<path class="st1" d="M46.6,237l-20-5.9v-0.7l20-5.9v-5.6l-25.7,7.9v7.9l25.7,7.9V237z M226.3,249.7c4.3,0,6.9-2.2,8.1-5.2h0.6v4.6
	h6.2v-41.4h-6.4v16.9h-0.6c-1.4-2.7-3.8-4.8-8.1-4.8h-0.2c-6.2,0-10.1,5-10.1,13.5v3.3c0,8.5,3.8,13.3,10.2,13.3h0.3V249.7z
	 M228.3,243.8c-4,0-6-2.7-6-7.8v-2.6c0-5.1,2-7.8,6-7.8h0.2c4.2,0,6.4,2.7,6.4,7.8v2.6c0,5.2-2.2,7.8-6.4,7.8H228.3z M265.9,243.5
	c-1.6,0-1.9-0.4-1.9-1.8v-33.9h-16.7v5.6h10.2V241c0,4.7,3.1,8.1,8.2,8.1H276v-5.6L265.9,243.5L265.9,243.5z M394.8,249.7
	c4.3,0,6.9-2.2,8.1-5.2h0.6v4.6h6.2v-41.4h-6.4v16.9h-0.6c-1.4-2.7-3.8-4.8-8.1-4.8h-0.2c-6.2,0-10.1,5-10.1,13.5v3.3
	c0,8.5,3.8,13.3,10.2,13.3h0.3V249.7z M396.7,243.8c-4,0-6-2.7-6-7.8v-2.6c0-5.1,2-7.8,6-7.8h0.2c4.2,0,6.4,2.7,6.4,7.8v2.6
	c0,5.2-2.2,7.8-6.4,7.8H396.7z M434.4,243.5c-1.6,0-1.9-0.4-1.9-1.8v-33.9h-16.7v5.6H426V241c0,4.7,3.1,8.1,8.2,8.1h10.2v-5.6
	L434.4,243.5L434.4,243.5z M477.6,234.8v-7.9l-25.7-7.9v5.6l20,5.9v0.7l-20,5.9v5.6L477.6,234.8z"/>
<path d="M135.2,228.6c3.5-1.2,5.5-3.8,5.5-7.9v-0.4c0-6.4-4.3-10.2-12-10.2h-13v39.2h14.4c7.6,0,12-3.8,12-10.6v-0.4
	c0-5-2.6-7.8-7-8.9V228.6z M128.7,215.9c4.1,0,5.5,1.4,5.5,5v0.2c0,3.8-1.4,5.3-5.5,5.3h-6.9v-10.4L128.7,215.9L128.7,215.9z
	 M135.7,237.8c0,3.9-1.5,5.4-5.5,5.4H122v-11.1h8.2c4.1,0,5.5,1.5,5.5,5.4V237.8z M167.4,220.4v16.4c0,4.2-2.3,7.1-6.6,7.1h-0.2
	c-3.2,0-5.2-1.7-5.2-5.8v-17.7H149v18.1c0,7.3,3.9,11.2,9.6,11.2h0.2c3.9,0,6.7-1.8,8.1-4.8h0.6v4.2h6.4v-28.7H167.4z M192.3,206.8
	v8.4h8.9v-8.4H192.3z M201.8,243.5c-1.5,0-1.9-0.4-1.9-1.8v-21.3h-16.8v5.7h10.3v15c0,4.7,3.1,8.1,8.2,8.1h8.5v-5.6h-8.4V243.5z
	 M303.4,235.2v0.2c0,6.5-2.8,8.6-7.1,8.6H296c-4.7,0-7-2.1-7-8.6v-11.6c0-6.5,2.2-8.6,7.1-8.6h0.3c4.7,0,7,2.1,7,8.6h6.4
	c0-9.6-5.6-14.3-13.4-14.3h-0.3c-7.9,0-13.4,4.7-13.4,14.3v11.6c0,9.6,4.6,14.3,11.8,14.3h0.3c4.5,0,7.1-1.7,8.4-5.2h0.6v4.5h6
	v-19.8h-13v5.9L303.4,235.2L303.4,235.2z M336,220.4v16.4c0,4.2-2.3,7.1-6.6,7.1h-0.2c-3.2,0-5.2-1.7-5.2-5.8v-17.7h-6.4v18.1
	c0,7.3,3.9,11.2,9.6,11.2h0.2c3.9,0,6.7-1.8,8.1-4.8h0.5v4.2h6.4v-28.7H336z M360.8,206.8v8.4h8.9v-8.4H360.8z M370.3,243.5
	c-1.5,0-1.9-0.4-1.9-1.8v-21.3h-16.8v5.7h10.3v15c0,4.7,3.1,8.1,8.2,8.1h8.5v-5.6h-8.4V243.5z"/>
<g>
	<path class="st3" d="M295.1,357.8l-2.4-2.3l-2.8-0.5l-3.3,2.9l-2.6,2.9l-3.4,3.1v3.4h20.7v-3.4l-3.1-3.1L295.1,357.8z"/>
	<path class="st3" d="M193.6,357.8l-2.4-2.3l-2.8-0.5l-3.3,2.9l-2.6,2.9l-3.4,3.1v3.4h20.7v-3.4l-3.1-3.1L193.6,357.8z"/>
	<path class="st3" d="M244.4,335.7l-2.2-1.8l-3.2-0.6l-3,2.4l-2.8,3.4l-2.9,2.5l-3.4,3.4l-2.9,3.2l-3.4,3.4l-2.7,2.5l0.4,2.5l44,0.4
		v-2.9l-3.1-2.9l-2.9-3.5l-3.2-2.6l-2.4-2.9l-3.5-3L244.4,335.7z"/>
	<rect x="238.7" y="319.4" class="st4" width="11.7" height="5.9"/>
	<rect x="238.7" y="317.9" class="st5" width="13.4" height="5.9"/>
	<rect x="289.7" y="343.2" class="st5" width="8.7" height="5.9"/>
	<rect x="188.2" y="343.3" class="st5" width="8.7" height="5.9"/>
	<path class="st5" d="M256.1,356.6h-31.8v8.4l-4.7,1.9v9.1h4.3v25.4h-22.5v-33.7h-23.9v87.4h125.3v-57.4v-30.1H279v30.8l-6.7,1.8
		l-2.2,2.5l-3.9-2.5h-5.1l-3,2.5l-3-2.5V376h6l1.6-1.5l-0.3-6l-2.8-3h-3.5V356.6z"/>
	<rect x="201.4" y="401.4" class="st6" width="77.6" height="10.4"/>
	<rect x="279" y="374.5" class="st6" width="23.9" height="12.1"/>
	<rect x="177.5" y="374.5" class="st6" width="23.9" height="12"/>
	<rect x="219.5" y="366.9" class="st6" width="41.4" height="12"/>
	<rect x="243.2" y="358.6" class="st7" width="12.8" height="8.4"/>
	<rect x="243.2" y="378.9" class="st7" width="11.9" height="22.4"/>
	<rect x="293.9" y="368.5" class="st7" width="9" height="6"/>
	<rect x="293.9" y="386.6" class="st7" width="9" height="68.5"/>
	<rect x="268.1" y="411.8" class="st7" width="10.9" height="42.8"/>
	<rect x="192.4" y="368.5" class="st7" width="9" height="6"/>
	<rect x="192.5" y="386.5" class="st7" width="9" height="68.1"/>
	<rect x="254.9" y="450.3" class="st7" width="29.4" height="4.3"/>
	<rect x="173.7" y="450.5" class="st7" width="35.6" height="4.3"/>
	<rect x="222.5" y="428.9" class="st7" width="3" height="25.9"/>
	<rect x="246.1" y="432" class="st6" width="3" height="22.6"/>
	<rect x="231.3" y="432" class="st6" width="3" height="22.6"/>
	<rect x="234.2" y="428.9" class="st6" width="11.9" height="3"/>
	<rect x="245.9" y="384.7" class="st6" width="3" height="9.2"/>
	<rect x="231.1" y="384.7" class="st6" width="3" height="9.2"/>
	<rect x="234.1" y="381.7" class="st6" width="11.9" height="3"/>
	<rect x="231.1" y="390.9" class="st6" width="17.8" height="3"/>
	<rect x="260.8" y="366.9" class="st6" width="3" height="12"/>
	<rect x="216.6" y="366.9" class="st6" width="3" height="12"/>
	<rect x="254.7" y="363.9" class="st6" width="6.1" height="3"/>
	<rect x="260.8" y="352.6" class="st1" width="3" height="3"/>
	<rect x="216.6" y="352.6" class="st3" width="3" height="3"/>
	<rect x="254.9" y="346.6" class="st1" width="3" height="3"/>
	<rect x="254.9" y="346.6" class="st8" width="3" height="3"/>
	<rect x="254.9" y="349.6" class="st8" width="3" height="3"/>
	<rect x="248.9" y="340.7" class="st1" width="3" height="3"/>
	<rect x="248.9" y="340.7" class="st8" width="3" height="3"/>
	<rect x="248.9" y="343.7" class="st8" width="3" height="3"/>
	<rect x="257.9" y="349.6" class="st1" width="3" height="3"/>
	<rect x="257.9" y="349.6" class="st8" width="3" height="3"/>
	<rect x="257.9" y="352.6" class="st8" width="3" height="3"/>
	<rect x="251.9" y="343.7" class="st1" width="3" height="3"/>
	<rect x="251.9" y="343.7" class="st8" width="3" height="3"/>
	<rect x="251.9" y="346.6" class="st8" width="3" height="3"/>
	<rect x="245.9" y="337.7" class="st1" width="3" height="3"/>
	<rect x="245.9" y="337.7" class="st8" width="3" height="3"/>
	<rect x="245.9" y="340.7" class="st8" width="3" height="3"/>
	<rect x="242.9" y="334.7" class="st1" width="3" height="3"/>
	<rect x="242.9" y="334.7" class="st8" width="3" height="3"/>
	<rect x="242.9" y="337.7" class="st8" width="3" height="3"/>
	<rect x="249.2" y="319.4" class="st5" width="3" height="6.9"/>
	<rect x="222.6" y="346.6" class="st3" width="3" height="3"/>
	<rect x="228.5" y="340.7" class="st3" width="3" height="3"/>
	<rect x="219.6" y="349.6" class="st3" width="3" height="3"/>
	<rect x="225.5" y="343.7" class="st3" width="3" height="3"/>
	<rect x="231.5" y="337.7" class="st3" width="3" height="3"/>
	<rect x="234.5" y="334.7" class="st3" width="3" height="3"/>
	<rect x="219.6" y="363.9" class="st6" width="6.1" height="3"/>
	<rect x="228.7" y="363.9" class="st6" width="5.5" height="3"/>
	<rect x="223.8" y="398.4" class="st6" width="8.5" height="3"/>
	<rect x="235.3" y="398.4" class="st6" width="9.2" height="3"/>
	<rect x="247.6" y="398.4" class="st6" width="9" height="3"/>
	<rect x="259.6" y="398.4" class="st6" width="8.5" height="3"/>
	<rect x="271.1" y="398.4" class="st6" width="7.9" height="3"/>
	<rect x="212.3" y="398.4" class="st6" width="8.5" height="3"/>
	<rect x="201.4" y="398.4" class="st6" width="7.9" height="3"/>
	<rect x="237.1" y="363.9" class="st6" width="6.1" height="3"/>
	<rect x="232.3" y="401.4" class="st4" width="3" height="3"/>
	<rect x="234.2" y="366.9" class="st5" width="3" height="6.1"/>
	<rect x="244.5" y="401.4" class="st9" width="3.2" height="3"/>
	<rect x="246.2" y="363.9" class="st6" width="5.5" height="3"/>
	<rect x="225.7" y="366.9" class="st5" width="3" height="6.1"/>
	<rect x="243.2" y="366.9" class="st7" width="3" height="6.1"/>
	<rect x="251.7" y="366.9" class="st7" width="3" height="6.1"/>
	<rect x="216.6" y="355.6" class="st3" width="47.2" height="3"/>
	<rect x="239.2" y="323.8" class="st5" width="12.9" height="3"/>
	<rect x="237.2" y="317.8" class="st6" width="3" height="13.9"/>
	<rect x="237.2" y="331.7" class="st1" width="6" height="3"/>
	<rect x="237.2" y="331.7" class="st8" width="6" height="3"/>
	<rect x="240.2" y="334.7" class="st8" width="3" height="3"/>
	<rect x="293.9" y="398.4" class="st6" width="3" height="11.9"/>
	<rect x="285" y="398.4" class="st6" width="3" height="11.9"/>
	<rect x="287.9" y="395.4" class="st6" width="6" height="3"/>
	<rect x="285" y="407.3" class="st6" width="11.9" height="3"/>
	<rect x="276" y="377.5" class="st6" width="3" height="9"/>
	<rect x="279" y="362.6" class="st3" width="3" height="3"/>
	<rect x="296.7" y="343.3" class="st5" width="3" height="6.9"/>
	<rect x="288.2" y="341.7" class="st5" width="11.5" height="3"/>
	<rect x="288.2" y="347.7" class="st5" width="11.5" height="3"/>
	<rect x="287.9" y="341.7" class="st6" width="3" height="11.9"/>
	<rect x="299.9" y="362.6" class="st1" width="3" height="6"/>
	<rect x="302.9" y="377.5" class="st6" width="3" height="8.8"/>
	<rect x="293.9" y="374.5" class="st7" width="3" height="6"/>
	<rect x="285" y="374.5" class="st4" width="3" height="6"/>
	<rect x="287.9" y="353.6" class="st1" width="6" height="3"/>
	<rect x="282" y="359.6" class="st3" width="3" height="3"/>
	<rect x="296.9" y="359.6" class="st1" width="3" height="3"/>
	<rect x="293.9" y="356.6" class="st1" width="3" height="3"/>
	<rect x="285" y="356.6" class="st3" width="3" height="3"/>
	<rect x="276" y="365.6" class="st3" width="29.8" height="3"/>
	<rect x="293.9" y="425.2" class="st6" width="3" height="11.9"/>
	<rect x="285" y="425.2" class="st6" width="3" height="11.9"/>
	<rect x="287.9" y="422.2" class="st6" width="6" height="3"/>
	<rect x="285" y="434.2" class="st6" width="11.9" height="3"/>
	<rect x="287.9" y="353.6" class="st8" width="6" height="3"/>
	<rect x="297" y="359.6" class="st8" width="3" height="3"/>
	<rect x="294" y="356.6" class="st8" width="3" height="3"/>
	<rect x="290.9" y="356.6" class="st8" width="3.1" height="3"/>
	<rect x="297" y="362.6" class="st8" width="5.8" height="3"/>
	<rect x="300" y="365.6" class="st8" width="5.8" height="3"/>
	<rect x="294" y="359.6" class="st8" width="3" height="3"/>
	<rect x="195.2" y="343.3" class="st5" width="3" height="6.9"/>
	<rect x="186.7" y="341.7" class="st5" width="11.5" height="3"/>
	<rect x="186.7" y="347.7" class="st5" width="11.5" height="3"/>
	<rect x="186.5" y="341.7" class="st6" width="3" height="11.9"/>
	<rect x="192.5" y="398.4" class="st10" width="3" height="11.9"/>
	<rect x="183.5" y="398.4" class="st6" width="3" height="11.9"/>
	<rect x="186.5" y="395.4" class="st6" width="6" height="3"/>
	<rect x="183.5" y="407.3" class="st10" width="11.9" height="3"/>
	<rect x="174.6" y="377.5" class="st6" width="3" height="9"/>
	<rect x="177.6" y="362.6" class="st3" width="3" height="6"/>
	<rect x="198.4" y="362.6" class="st8" width="3" height="6"/>
	<rect x="201.4" y="377.5" class="st6" width="3" height="8.8"/>
	<rect x="192.5" y="374.5" class="st7" width="3" height="5.9"/>
	<rect x="183.5" y="374.5" class="st5" width="3" height="5.9"/>
	<rect x="186.5" y="353.6" class="st8" width="6" height="3"/>
	<rect x="180.5" y="359.6" class="st3" width="3" height="3"/>
	<rect x="195.5" y="359.6" class="st8" width="3" height="3"/>
	<rect x="192.5" y="356.6" class="st8" width="3" height="3"/>
	<rect x="183.5" y="356.6" class="st3" width="3" height="3"/>
	<rect x="174.6" y="365.6" class="st3" width="29.8" height="3"/>
	<rect x="192.5" y="425.2" class="st6" width="3" height="11.9"/>
	<rect x="183.5" y="425.2" class="st6" width="3" height="11.9"/>
	<rect x="186.5" y="422.2" class="st6" width="6" height="3"/>
	<rect x="183.5" y="434.2" class="st6" width="11.9" height="3"/>
	<rect x="189.5" y="356.6" class="st8" width="3" height="3"/>
	<rect x="195.5" y="362.6" class="st8" width="3" height="3"/>
	<rect x="192.5" y="359.6" class="st8" width="3" height="3"/>
	<rect x="225.5" y="428.9" class="st6" width="3" height="25.7"/>
	<rect x="251.9" y="428.9" class="st6" width="3" height="25.7"/>
	<rect x="231.5" y="422.9" class="st6" width="17.5" height="3"/>
	<rect x="228.5" y="425.9" class="st6" width="3" height="3"/>
	<rect x="249" y="425.9" class="st6" width="3" height="3"/>
	<rect x="260.8" y="352.6" class="st8" width="3" height="6"/>
	<rect x="243.2" y="317.9" class="st7" width="3.8" height="9"/>
	<rect x="234.2" y="431.8" class="st7" width="11.9" height="22.8"/>
	<rect x="287.9" y="425.2" class="st7" width="6" height="9"/>
	<rect x="186.4" y="425.2" class="st7" width="6" height="9"/>
	<rect x="287.9" y="398.5" class="st7" width="6" height="9"/>
	<rect x="186.4" y="398.5" class="st7" width="6" height="9"/>
	<rect x="234.1" y="384.7" class="st7" width="11.8" height="6.2"/>
	<rect x="225.5" y="425.9" class="st7" width="3" height="3"/>
	<rect x="228.5" y="422.9" class="st7" width="3" height="3"/>
	<rect x="228.7" y="378.9" class="st7" width="26.4" height="3"/>
	<rect x="181.7" y="386.3" class="st7" width="19.7" height="3"/>
	<rect x="283.1" y="386.3" class="st7" width="19.7" height="3"/>
	<rect x="208" y="411.8" class="st7" width="71" height="3"/>
	<rect x="0" y="454.8" class="st6" width="500" height="31.4"/>
	<rect x="0" y="470.9" class="st8" width="500" height="29.1"/>
	<rect x="168.6" y="469.6" class="st3" width="147.4" height="3.7"/>
	<rect x="297.1" y="473.3" class="st3" width="7.6" height="3.7"/>
	<rect x="259.3" y="465.9" class="st3" width="22.7" height="3.7"/>
	<rect x="293.3" y="465.9" class="st3" width="7.6" height="3.7"/>
	<rect x="308.5" y="465.9" class="st3" width="3.8" height="3.7"/>
	<rect x="312.2" y="473.3" class="st3" width="3.8" height="3.7"/>
	<rect x="316" y="469.6" class="st3" width="147.4" height="3.7"/>
	<rect x="323.6" y="465.9" class="st3" width="3.8" height="3.7"/>
	<rect x="331.1" y="473.3" class="st3" width="3.8" height="3.7"/>
	<rect x="346.2" y="477.1" class="st3" width="3.8" height="3.7"/>
	<rect x="338.7" y="465.9" class="st3" width="7.6" height="3.7"/>
	<rect x="319.8" y="473.3" class="st3" width="7.6" height="3.7"/>
	<rect x="361.4" y="465.9" class="st3" width="7.6" height="3.7"/>
	<rect x="353.8" y="477.1" class="st3" width="7.6" height="3.7"/>
	<rect x="368.9" y="473.3" class="st3" width="7.6" height="3.7"/>
	<rect x="399.2" y="477.1" class="st3" width="7.6" height="3.7"/>
	<rect x="429.4" y="473.3" class="st3" width="7.6" height="3.7"/>
	<rect x="444.5" y="473.3" class="st3" width="7.6" height="3.7"/>
	<rect x="384" y="465.9" class="st3" width="11.3" height="3.7"/>
	<rect x="380.3" y="473.3" class="st3" width="11.3" height="3.7"/>
	<rect x="376.5" y="465.9" class="st3" width="3.8" height="3.7"/>
	<rect x="372.7" y="477.1" class="st3" width="3.8" height="3.7"/>
	<rect x="406.7" y="465.9" class="st3" width="22.7" height="3.7"/>
	<rect x="395.4" y="473.3" class="st3" width="22.7" height="3.7"/>
	<rect x="342.5" y="473.3" class="st3" width="22.7" height="3.7"/>
	<rect x="440.7" y="465.9" class="st3" width="7.6" height="3.7"/>
	<rect x="455.9" y="465.9" class="st3" width="3.8" height="3.7"/>
	<rect x="459.6" y="473.3" class="st3" width="3.8" height="3.7"/>
	<rect x="463.4" y="469.6" class="st3" width="36.6" height="3.7"/>
	<rect x="471" y="465.9" class="st3" width="3.8" height="3.7"/>
	<rect x="478.5" y="473.3" class="st3" width="3.8" height="3.7"/>
	<rect x="493.7" y="477.1" class="st3" width="3.8" height="3.7"/>
	<rect x="486.1" y="465.9" class="st3" width="7.6" height="3.7"/>
	<rect x="467.2" y="473.3" class="st3" width="7.6" height="3.7"/>
	<rect x="489.9" y="473.3" class="st3" width="10.1" height="3.7"/>
	<rect x="0" y="469.6" class="st3" width="80.7" height="3.7"/>
	<rect x="46.7" y="473.3" class="st3" width="7.6" height="3.7"/>
	<rect x="61.8" y="473.3" class="st3" width="7.6" height="3.7"/>
	<rect x="24" y="465.9" class="st3" width="22.7" height="3.7"/>
	<rect x="58" y="465.9" class="st3" width="7.6" height="3.7"/>
	<rect x="73.1" y="465.9" class="st3" width="3.8" height="3.7"/>
	<rect x="76.9" y="473.3" class="st3" width="3.8" height="3.7"/>
	<rect x="80.7" y="469.6" class="st3" width="147.4" height="3.7"/>
	<rect x="88.3" y="465.9" class="st3" width="3.8" height="3.7"/>
	<rect x="95.8" y="473.3" class="st3" width="3.8" height="3.7"/>
	<rect x="110.9" y="477.1" class="st3" width="3.8" height="3.7"/>
	<rect x="103.4" y="465.9" class="st3" width="7.6" height="3.7"/>
	<rect x="84.5" y="473.3" class="st3" width="7.6" height="3.7"/>
	<rect x="0" y="473.3" class="st3" width="1.2" height="3.7"/>
	<rect x="8.8" y="473.3" class="st3" width="7.6" height="3.7"/>
	<rect x="23.9" y="473.3" class="st3" width="3.8" height="3.7"/>
	<rect x="31.5" y="473.3" class="st3" width="7.6" height="3.7"/>
	<rect x="126.1" y="465.9" class="st3" width="7.6" height="3.7"/>
	<rect x="118.5" y="477.1" class="st3" width="7.6" height="3.7"/>
	<rect x="133.6" y="473.3" class="st3" width="7.6" height="3.7"/>
	<rect x="163.8" y="477.1" class="st3" width="7.6" height="3.7"/>
	<rect x="194.1" y="473.3" class="st3" width="7.6" height="3.7"/>
	<rect x="209.2" y="473.3" class="st3" width="7.6" height="3.7"/>
	<rect x="148.7" y="465.9" class="st3" width="11.3" height="3.7"/>
	<rect x="145" y="473.3" class="st3" width="11.3" height="3.7"/>
	<rect x="141.2" y="465.9" class="st3" width="3.8" height="3.7"/>
	<rect x="137.4" y="477.1" class="st3" width="3.8" height="3.7"/>
	<rect x="171.4" y="465.9" class="st3" width="22.7" height="3.7"/>
	<rect x="160.1" y="473.3" class="st3" width="22.7" height="3.7"/>
	<rect x="107.2" y="473.3" class="st3" width="22.7" height="3.7"/>
	<rect x="205.4" y="465.9" class="st3" width="7.6" height="3.7"/>
	<rect x="220.5" y="465.9" class="st3" width="3.8" height="3.7"/>
	<rect x="224.3" y="473.3" class="st3" width="3.8" height="3.7"/>
	<rect x="228.1" y="469.6" class="st3" width="147.4" height="3.7"/>
	<rect x="235.7" y="465.9" class="st3" width="3.8" height="3.7"/>
	<rect x="243.2" y="473.3" class="st3" width="3.8" height="3.7"/>
	<rect x="258.3" y="477.1" class="st3" width="3.8" height="3.7"/>
	<rect x="250.8" y="465.9" class="st3" width="7.6" height="3.7"/>
	<rect x="231.9" y="473.3" class="st3" width="7.6" height="3.7"/>
	<rect x="265.9" y="477.1" class="st3" width="7.6" height="3.7"/>
	<rect x="281" y="473.3" class="st3" width="7.6" height="3.7"/>
	<rect x="284.8" y="477.1" class="st3" width="3.8" height="3.7"/>
	<rect x="254.6" y="473.3" class="st3" width="22.7" height="3.7"/>
</g>
<path class="st11" d="M360.2,453.7h-16.6v1.4h16.6V453.7z"/>
<path class="st12" d="M346.4,449.5h-2.8v4.2h2.8V449.5z"/>
<path class="st8" d="M354.7,450.9h-5.5v1.4h5.5V450.9z"/>
<path class="st12" d="M360.2,449.5h-2.8v4.2h2.8V449.5z"/>
<path class="st8" d="M354.7,449.5v2.8h-5.5v-2.8h-2.8v4.2h11.1v-4.2H354.7z"/>
<path class="st6" d="M360.2,448.1h-2.8v1.4h2.8V448.1z"/>
<path class="st13" d="M357.4,448.1h-2.8v1.4h2.8V448.1z"/>
<path class="st8" d="M353.3,446.8h-2.8v2.8h2.8V446.8z"/>
<path class="st8" d="M349.1,448.1h-2.8v1.4h2.8V448.1z"/>
<path class="st6" d="M346.4,448.1h-2.8v1.4h2.8V448.1z"/>
<path class="st12" d="M360.2,446.8h-5.5v1.4h5.5V446.8z"/>
<path class="st12" d="M353.3,449.5h-2.8v-2.8h-1.4v4.2h5.5v-4.2h-1.4V449.5z"/>
<path class="st12" d="M349.1,446.8h-5.5v1.4h5.5V446.8z"/>
<path class="st8" d="M357.4,445.4h-2.8v1.4h2.8V445.4z"/>
<path class="st12" d="M354.7,445.4h-5.5v1.4h5.5V445.4z"/>
<path class="st8" d="M349.1,445.4h-2.8v1.4h2.8V445.4z"/>
<path class="st12" d="M346.4,438.5h-2.8v8.3h2.8V438.5z"/>
<path class="st10" d="M357.4,444h-2.8v1.4h2.8V444z"/>
<path class="st8" d="M354.7,444h-5.5v1.4h5.5V444z"/>
<path class="st10" d="M349.1,444h-2.8v1.4h2.8V444z"/>
<path class="st8" d="M357.4,442.6h-11.1v1.4h11.1V442.6z"/>
<path class="st14" d="M357.4,441.2h-11.1v1.4h11.1V441.2z"/>
<path class="st8" d="M357.4,439.8h-11.1v1.4h11.1V439.8z"/>
<path class="st12" d="M360.2,438.5h-2.8v8.3h2.8V438.5z"/>
<path class="st6" d="M357.4,438.5h-11.1v1.4h11.1V438.5z"/>
<rect x="33.7" y="125.6" class="st6" width="82.4" height="3.1"/>
<rect x="36.8" y="122.6" class="st12" width="79.3" height="3.1"/>
<rect x="42.5" y="119.5" class="st12" width="73.6" height="3.1"/>
<rect x="45.6" y="116.8" class="st12" width="70.9" height="3.1"/>
<rect x="60.2" y="113.8" class="st15" width="3.1" height="3.1"/>
<rect x="63.2" y="116.8" class="st6" width="3.1" height="3.1"/>
<rect x="60.2" y="119.9" class="st6" width="6.2" height="2.6"/>
<rect x="57.5" y="122.6" class="st6" width="8.8" height="3.1"/>
<rect x="48.3" y="122.6" class="st6" width="3.1" height="3.1"/>
<rect x="98.5" y="111.1" class="st12" width="16.7" height="5.7"/>
<rect x="101.6" y="108" class="st12" width="9.2" height="3.5"/>
<rect x="104.7" y="104.9" class="st12" width="6.2" height="3.1"/>
<rect x="107.3" y="122.6" class="st6" width="8.8" height="3.1"/>
<rect x="110.4" y="119.5" class="st6" width="8.8" height="3.1"/>
<rect x="113.5" y="116.4" class="st6" width="5.7" height="3.1"/>
<rect x="113.5" y="113.3" class="st6" width="5.7" height="3.1"/>
<rect x="113.5" y="111.1" class="st6" width="5.7" height="2.2"/>
<rect x="110.8" y="108" class="st6" width="5.3" height="3.1"/>
<rect x="84" y="110.2" class="st12" width="8.4" height="7"/>
<rect x="54.4" y="104.9" class="st12" width="20.3" height="11.9"/>
<rect x="87" y="122.6" class="st6" width="5.7" height="3.1"/>
<rect x="89.7" y="119.5" class="st6" width="5.7" height="3.1"/>
<rect x="89.7" y="113.3" class="st6" width="5.7" height="3.1"/>
<rect x="87" y="110.2" class="st6" width="5.7" height="3.1"/>
<rect x="92.3" y="116.4" class="st6" width="3.1" height="3.1"/>
<rect x="48.7" y="113.8" class="st12" width="7.9" height="3.5"/>
<rect x="60.2" y="101.9" class="st12" width="7.9" height="3.5"/>
<rect x="63.2" y="98.8" class="st12" width="4.4" height="3.1"/>
<rect x="69.4" y="104.9" class="st6" width="8.4" height="3.1"/>
<rect x="66.3" y="101.9" class="st6" width="8.4" height="3.1"/>
<rect x="71.6" y="108" class="st6" width="6.2" height="3.1"/>
<rect x="74.7" y="111.1" class="st6" width="6.2" height="3.1"/>
<rect x="74.7" y="114.2" class="st6" width="6.2" height="3.1"/>
<rect x="74.7" y="117.3" class="st6" width="3.1" height="3.1"/>
<rect x="66.3" y="98.8" class="st6" width="3.1" height="3.1"/>
<rect x="425.3" y="337.9" class="st6" width="74.7" height="3.3"/>
<rect x="425.3" y="334.6" class="st12" width="74.6" height="3.3"/>
<rect x="425.3" y="331.3" class="st12" width="74.7" height="3.3"/>
<rect x="424.8" y="328.4" class="st12" width="75.2" height="3.3"/>
<rect x="482.2" y="325.1" class="st15" width="3.3" height="3.3"/>
<rect x="478.9" y="328.4" class="st6" width="3.3" height="3.3"/>
<rect x="478.9" y="331.8" class="st6" width="6.6" height="2.8"/>
<rect x="478.9" y="334.6" class="st6" width="9.5" height="3.3"/>
<rect x="495" y="334.6" class="st6" width="3.3" height="3.3"/>
<rect x="426.3" y="322.3" class="st12" width="18" height="6.2"/>
<rect x="431" y="319" class="st12" width="10" height="3.8"/>
<rect x="431" y="315.6" class="st12" width="6.6" height="3.3"/>
<rect x="425.3" y="334.6" class="st6" width="9.5" height="3.3"/>
<rect x="422" y="331.3" class="st6" width="9.5" height="3.3"/>
<rect x="422" y="328" class="st6" width="6.2" height="3.3"/>
<rect x="422" y="324.6" class="st6" width="6.2" height="3.3"/>
<rect x="422" y="322.3" class="st6" width="6.2" height="2.4"/>
<rect x="425.3" y="319" class="st6" width="5.7" height="3.3"/>
<rect x="450.9" y="321.3" class="st12" width="9" height="7.6"/>
<rect x="469.9" y="315.6" class="st12" width="21.8" height="12.8"/>
<rect x="450.5" y="334.6" class="st6" width="6.2" height="3.3"/>
<rect x="447.6" y="331.3" class="st6" width="6.2" height="3.3"/>
<rect x="447.6" y="324.6" class="st6" width="6.2" height="3.3"/>
<rect x="450.5" y="321.3" class="st6" width="6.2" height="3.3"/>
<rect x="447.6" y="328" class="st6" width="3.3" height="3.3"/>
<rect x="489.3" y="325.1" class="st12" width="8.5" height="3.8"/>
<rect x="477" y="312.3" class="st12" width="8.5" height="3.8"/>
<rect x="477.5" y="309" class="st12" width="4.7" height="3.3"/>
<rect x="466.6" y="315.6" class="st6" width="9" height="3.3"/>
<rect x="469.9" y="312.3" class="st6" width="9" height="3.3"/>
<rect x="466.6" y="319" class="st6" width="6.6" height="3.3"/>
<rect x="463.3" y="322.3" class="st6" width="6.6" height="3.3"/>
<rect x="463.3" y="325.6" class="st6" width="6.6" height="3.3"/>
<rect x="466.6" y="328.9" class="st6" width="3.3" height="3.3"/>
<rect x="475.6" y="309" class="st6" width="3.3" height="3.3"/>
<rect x="399.7" y="67.3" class="st12" width="3.5" height="6.4"/>
<rect x="375.9" y="69.2" class="st12" width="9.4" height="7.1"/>
<rect x="384.1" y="72.3" class="st12" width="19.1" height="6.4"/>
<rect x="369.3" y="74.9" class="st12" width="10.4" height="3.3"/>
<rect x="391" y="61.6" class="st12" width="9.4" height="23.1"/>
<rect x="422.2" y="78.2" class="st12" width="9.9" height="3.3"/>
<rect x="369.3" y="78.2" class="st12" width="47.2" height="3.3"/>
<rect x="366" y="81.5" class="st12" width="64.2" height="3.3"/>
<rect x="366" y="84.8" class="st6" width="72.7" height="3.3"/>
<rect x="425.5" y="81.5" class="st6" width="9.9" height="3.3"/>
<rect x="402.3" y="78.2" class="st6" width="6.6" height="3.3"/>
<rect x="402.3" y="71.6" class="st6" width="8" height="3.3"/>
<rect x="402.3" y="68.3" class="st6" width="5.7" height="3.3"/>
<rect x="405.6" y="81.5" class="st6" width="6.6" height="3.3"/>
<rect x="382.5" y="81.5" class="st6" width="6.6" height="3.3"/>
<rect x="379.2" y="74.9" class="st6" width="6.6" height="3.3"/>
<rect x="397.6" y="65" class="st6" width="6.6" height="3.3"/>
<rect x="379.2" y="78.2" class="st6" width="9.9" height="3.3"/>
<rect x="399" y="74.9" class="st6" width="16.5" height="3.3"/>
<rect x="428.8" y="78.2" class="st6" width="3.3" height="3.3"/>
<rect x="415.5" y="78.2" class="st6" width="3.3" height="3.3"/>
<rect x="397.6" y="61.6" class="st6" width="3.3" height="3.3"/>
<rect x="388.2" y="65.9" class="st12" width="4.3" height="12.3"/>
<rect x="7.9" y="316.4" class="st12" width="3.5" height="6.4"/>
<rect x="25.8" y="318.3" class="st12" width="9.4" height="7.1"/>
<rect x="7.9" y="321.3" class="st12" width="19.1" height="6.4"/>
<rect x="31.5" y="323.9" class="st12" width="10.4" height="3.3"/>
<rect x="10.7" y="310.7" class="st12" width="9.4" height="23.1"/>
<rect x="0" y="327.2" class="st12" width="41.9" height="3.3"/>
<rect x="0" y="330.5" class="st12" width="45.2" height="3.3"/>
<rect x="0" y="333.9" class="st6" width="45.2" height="3.3"/>
<rect x="2.2" y="327.2" class="st6" width="6.6" height="3.3"/>
<rect x="0.8" y="320.6" class="st6" width="8" height="3.3"/>
<rect x="3.1" y="317.3" class="st6" width="5.7" height="3.3"/>
<rect x="0" y="330.5" class="st6" width="5.5" height="3.3"/>
<rect x="22" y="330.5" class="st6" width="6.6" height="3.3"/>
<rect x="25.3" y="323.9" class="st6" width="6.6" height="3.3"/>
<rect x="6.9" y="314" class="st6" width="6.6" height="3.3"/>
<rect x="22" y="327.2" class="st6" width="9.9" height="3.3"/>
<rect x="0" y="323.9" class="st6" width="12.1" height="3.3"/>
<rect x="10.2" y="310.7" class="st6" width="3.3" height="3.3"/>
<rect x="18.7" y="315" class="st12" width="4.3" height="12.3"/>
<rect x="2.6" y="36.5" class="st4" width="26.7" height="3.3"/>
<rect x="2.6" y="33.2" class="st12" width="24.1" height="3.3"/>
<rect x="0.6" y="28" class="st12" width="13.7" height="6.5"/>
<rect x="13.7" y="30.6" class="st12" width="3.3" height="3.3"/>
<rect x="4.6" y="24.7" class="st12" width="6.5" height="3.3"/>
<rect x="1.9" y="36.5" class="st6" width="27.4" height="3.3"/>
<rect x="0" y="33.2" class="st6" width="8.5" height="3.3"/>
<rect x="0" y="28" class="st6" width="2.6" height="6.5"/>
<rect x="1.9" y="24.7" class="st6" width="3.3" height="5.9"/>
<rect x="452.3" y="441.4" class="st3" width="43.9" height="13.7"/>
<rect x="496.1" y="444.5" class="st3" width="3.9" height="10.6"/>
<rect x="452.3" y="441.4" class="st6" width="43.9" height="3.1"/>
<rect x="496.1" y="444.5" class="st6" width="3.9" height="3.1"/>
<rect x="474.2" y="444.5" class="st6" width="9.4" height="3.1"/>
<rect x="463.2" y="438.2" class="st6" width="9.4" height="3.1"/>
<rect x="486.7" y="438.2" class="st6" width="9.4" height="3.1"/>
<rect x="455.4" y="444.5" class="st6" width="9.4" height="3.1"/>
<rect x="458.5" y="447.6" class="st6" width="3.1" height="3.1"/>
<rect x="486.7" y="444.5" class="st6" width="3.1" height="3.1"/>
<rect x="496.1" y="447.6" class="st6" width="3.1" height="3.1"/>
<rect x="0" y="441.7" class="st3" width="22.1" height="13.2"/>
<rect x="0" y="441.7" class="st6" width="22.1" height="3.1"/>
<rect x="1.7" y="438.6" class="st6" width="9.4" height="3.1"/>
<rect x="9.5" y="444.9" class="st6" width="9.4" height="3.1"/>
<rect x="12.7" y="448" class="st6" width="3.1" height="3.1"/>
<rect x="399.9" y="444.8" class="st3" width="9.4" height="10.2"/>
<rect x="409.3" y="444.8" class="st3" width="9.4" height="10.2"/>
<rect x="418.7" y="448" class="st3" width="6.3" height="7"/>
<rect x="399.9" y="444.8" class="st6" width="9.4" height="3.1"/>
<rect x="409.3" y="444.8" class="st6" width="9.4" height="3.1"/>
<rect x="406.2" y="448" class="st6" width="3.1" height="3.1"/>
<rect x="399.9" y="448" class="st6" width="3.1" height="3.1"/>
<rect x="409.3" y="448" class="st6" width="3.1" height="3.1"/>
<rect x="391.3" y="451.1" class="st3" width="8.6" height="4"/>
<path class="st8" d="M78.8,438.4v4.1h-4v12.2h8v-16.3H78.8z"/>
<path class="st8" d="M78.8,438.4h-4v4h4V438.4z"/>
<path class="st8" d="M86.8,434.4h-4v4h4V434.4z"/>
<path class="st8" d="M82.8,434.4h-4v4h4V434.4z"/>
<path class="st8" d="M78.8,438.4v-4h-8v-4h-12v-4h-4v8h4v4h8v4h8v-4H78.8z"/>
<path class="st8" d="M102.9,430.4h-4v4h4V430.4z"/>
<path class="st3" d="M98.8,430.4h-4v4h4V430.4z"/>
<path class="st8" d="M94.8,426.4h-4v4h-8v-4h-4v-4h-8v4h4v4h4v4h8v4h-4v4h8v-4h8v-4h-4V426.4z"/>
<path class="st3" d="M78.8,430.4h-8v4h8V430.4z"/>
<path class="st6" d="M102.9,426.4h-8v4h8V426.4z"/>
<path class="st6" d="M74.8,426.4h-4v4h4V426.4z"/>
<path class="st3" d="M70.8,426.4h-8v4h8V426.4z"/>
<path class="st8" d="M62.8,426.4h-4v4h4V426.4z"/>
<path class="st8" d="M102.9,422.4h-8v4h8V422.4z"/>
<path class="st8" d="M90.8,422.4h-4v4h4V422.4z"/>
<path class="st3" d="M86.8,418.4h-8v8h4v4h8v-4h-4V418.4z"/>
<path class="st6" d="M70.8,422.4h-8v4h8V422.4z"/>
<path class="st8" d="M62.8,422.4h-4v4h4V422.4z"/>
<path class="st3" d="M58.8,422.4h4v-4h8v4h4v-8h4v-4h-12v4h-8v4h-4v8h4V422.4z"/>
<path class="st6" d="M90.8,418.4h-4v4h4V418.4z"/>
<path class="st6" d="M78.8,418.4h-4v4h4V418.4z"/>
<path class="st8" d="M70.8,418.4h-8v4h8V418.4z"/>
<path class="st6" d="M102.9,414.4h-4v4h4V414.4z"/>
<path class="st3" d="M98.8,414.4h-8v12h4v-4h8v-4h-4V414.4z"/>
<path class="st8" d="M90.8,414.4h-4v4h4V414.4z"/>
<path class="st6" d="M86.8,414.4h-8v4h8V414.4z"/>
<path class="st8" d="M78.8,414.4h-4v4h4V414.4z"/>
<path class="st6" d="M58.8,414.4h-4v4h4V414.4z"/>
<path class="st6" d="M98.8,410.4h-8v4h8V410.4z"/>
<path class="st3" d="M90.8,410.4h-4v4h4V410.4z"/>
<path class="st8" d="M86.8,410.4h-8v4h8V410.4z"/>
<path class="st6" d="M66.8,410.4h-8v4h8V410.4z"/>
<path class="st6" d="M90.8,406.4h-24v4h24V406.4z"/>
</svg>
