<svg width="600" height="600" viewBox="0 0 600 600" fill="none" xmlns="http://www.w3.org/2000/svg">
<rect width="600" height="600" fill="white"/>
<path d="M168.882 307.35V238.902C168.882 237.598 167.822 236.542 166.515 236.542C165.208 236.542 164.148 237.598 164.148 238.902V307.35C164.148 308.653 165.208 309.71 166.515 309.71C167.822 309.71 168.882 308.653 168.882 307.35Z" fill="#629FFC"/>
<path d="M144.006 373.438L123.918 335.887V301.738H136.633V318.813H155.096V301.738H166.997V373.092L144.006 373.438Z" fill="#629FFC"/>
<path d="M189.872 373.438L209.96 335.887V301.738H197.188V318.813H178.783V301.738H166.882V373.092L189.872 373.438Z" fill="#A9CBFF"/>
<path d="M166.997 240.185C171.99 240.185 176.983 249.875 182.789 251.317C188.594 252.759 191.323 248.087 199.567 249.01C206.941 249.875 206.244 259.912 218.785 260.835C214.198 264.065 207.928 268.507 198.174 267.642C190.801 267.007 188.711 262.162 180.35 263.892C171.99 265.565 170.132 270.814 167.055 271.679C166.997 255.932 166.997 240.185 166.997 240.185Z" fill="#629FFC"/>
<path d="M235.49 297V238.779H254.698C260.389 238.779 264.771 240.116 267.844 242.791C270.918 245.409 272.454 249.137 272.454 253.974V254.657C272.454 260.633 269.751 264.56 264.344 266.438V267.463C267.645 268.259 270.178 269.767 271.942 271.987C273.706 274.15 274.589 277.024 274.589 280.609V281.207C274.589 286.272 273.023 290.171 269.893 292.902C266.763 295.634 262.409 297 256.832 297H235.49ZM244.795 290.939L241.466 288.207H257.003C260.019 288.207 262.125 287.609 263.32 286.414C264.572 285.219 265.198 283.142 265.198 280.182V279.756C265.198 276.853 264.572 274.804 263.32 273.609C262.125 272.414 260.019 271.816 257.003 271.816H241.466L244.795 268.572V290.939ZM244.795 266.438L241.466 263.109H254.868C257.885 263.109 259.991 262.511 261.186 261.316C262.438 260.121 263.064 258.1 263.064 255.255V254.913C263.064 252.238 262.438 250.36 261.186 249.279C259.991 248.141 257.885 247.572 254.868 247.572H241.466L244.795 244.754V266.438ZM321.679 254.23V297H312.203V290.683H311.264C310.239 292.959 308.703 294.724 306.654 295.976C304.605 297.228 302.158 297.854 299.312 297.854H298.971C294.702 297.854 291.259 296.402 288.641 293.5C286.08 290.597 284.799 286.5 284.799 281.207V254.23H294.275V280.439C294.275 283.398 294.93 285.589 296.239 287.012C297.605 288.378 299.511 289.061 301.959 289.061H302.3C305.544 289.061 307.991 288.15 309.642 286.329C311.349 284.451 312.203 281.89 312.203 278.646V254.23H321.679ZM348.963 246.633V234.083H362.11V246.633H348.963ZM362.964 297C359.207 297 356.22 295.89 354 293.671C351.837 291.451 350.756 288.52 350.756 284.878V254.23H360.232V285.902C360.232 286.983 360.403 287.723 360.744 288.122C361.142 288.463 361.882 288.634 362.964 288.634H375.684V297H362.964ZM335.39 262.682V254.23H360.232L357.756 262.682H335.39ZM250.685 373.854C245.279 373.854 241.01 372.032 237.88 368.39C234.807 364.748 233.27 359.455 233.27 352.512V335.267C233.27 330.657 234.095 326.759 235.746 323.572C237.453 320.328 239.787 317.909 242.746 316.315C245.762 314.722 249.234 313.925 253.161 313.925H253.588C257.515 313.925 260.958 314.722 263.918 316.315C266.934 317.909 269.267 320.299 270.918 323.486C272.568 326.673 273.393 330.6 273.393 335.267H263.918C263.918 330.543 263.092 327.242 261.442 325.364C259.848 323.429 257.23 322.462 253.588 322.462H253.161C249.462 322.462 246.787 323.429 245.136 325.364C243.543 327.242 242.746 330.543 242.746 335.267V352.512C242.746 357.235 243.543 360.565 245.136 362.5C246.787 364.378 249.405 365.317 252.99 365.317H253.417C256.832 365.317 259.421 364.349 261.186 362.414C263.007 360.422 263.918 357.121 263.918 352.512V349.524L267.418 352.255H254.442V343.548H273.393V373H264.515V366.256H263.491C262.523 368.874 261.043 370.809 259.052 372.061C257.06 373.256 254.413 373.854 251.112 373.854H250.685ZM321.679 330.23V373H312.203V366.683H311.264C310.239 368.959 308.703 370.724 306.654 371.976C304.605 373.228 302.158 373.854 299.312 373.854H298.971C294.702 373.854 291.259 372.402 288.641 369.5C286.08 366.597 284.799 362.5 284.799 357.207V330.23H294.275V356.439C294.275 359.398 294.93 361.589 296.239 363.012C297.605 364.378 299.511 365.061 301.959 365.061H302.3C305.544 365.061 307.991 364.15 309.642 362.329C311.349 360.451 312.203 357.89 312.203 354.646V330.23H321.679ZM348.963 322.633V310.083H362.11V322.633H348.963ZM362.964 373C359.207 373 356.22 371.89 354 369.671C351.837 367.451 350.756 364.52 350.756 360.878V330.23H360.232V361.902C360.232 362.983 360.403 363.723 360.744 364.122C361.142 364.463 361.882 364.634 362.964 364.634H375.684V373H362.964ZM335.39 338.682V330.23H360.232L357.756 338.682H335.39Z" fill="black"/>
<path d="M399.297 297.854C402.371 297.854 404.875 297.171 406.81 295.805C408.802 294.382 410.31 292.504 411.334 290.171H412.273V297H421.493V235.535H412.017V260.548H411.078C409.997 258.328 408.46 256.592 406.468 255.34C404.533 254.031 402.086 253.377 399.127 253.377H398.87C394.261 253.377 390.618 255.141 387.943 258.67C385.268 262.198 383.931 267.093 383.931 273.353V278.134C383.931 284.451 385.24 289.317 387.858 292.732C390.533 296.146 394.289 297.854 399.127 297.854H399.297ZM402.2 289.061C399.24 289.061 397.021 288.093 395.541 286.158C394.061 284.223 393.321 281.349 393.321 277.536V273.694C393.321 266.011 396.281 262.17 402.2 262.17H402.541C405.671 262.17 408.033 263.166 409.627 265.158C411.22 267.093 412.017 269.938 412.017 273.694V277.536C412.017 281.349 411.22 284.223 409.627 286.158C408.033 288.093 405.671 289.061 402.541 289.061H402.2ZM457.827 297C454.07 297 451.083 295.89 448.863 293.671C446.7 291.451 445.619 288.52 445.619 284.878V235.535H455.095V285.902C455.095 286.927 455.294 287.638 455.692 288.036C456.091 288.435 456.831 288.634 457.912 288.634H472.937V297H457.827ZM430.423 243.901V235.535H455.095L452.619 243.901H430.423ZM399.297 373.854C402.371 373.854 404.875 373.171 406.81 371.805C408.802 370.382 410.31 368.504 411.334 366.171H412.273V373H421.493V311.535H412.017V336.548H411.078C409.997 334.328 408.46 332.592 406.468 331.34C404.533 330.031 402.086 329.377 399.127 329.377H398.87C394.261 329.377 390.618 331.141 387.943 334.67C385.268 338.198 383.931 343.093 383.931 349.353V354.134C383.931 360.451 385.24 365.317 387.858 368.732C390.533 372.146 394.289 373.854 399.127 373.854H399.297ZM402.2 365.061C399.24 365.061 397.021 364.093 395.541 362.158C394.061 360.223 393.321 357.349 393.321 353.536V349.694C393.321 342.011 396.281 338.17 402.2 338.17H402.541C405.671 338.17 408.033 339.166 409.627 341.158C411.22 343.093 412.017 345.938 412.017 349.694V353.536C412.017 357.349 411.22 360.223 409.627 362.158C408.033 364.093 405.671 365.061 402.541 365.061H402.2ZM457.827 373C454.07 373 451.083 371.89 448.863 369.671C446.7 367.451 445.619 364.52 445.619 360.878V311.535H455.095V361.902C455.095 362.927 455.294 363.638 455.692 364.036C456.091 364.435 456.831 364.634 457.912 364.634H472.937V373H457.827ZM430.423 319.901V311.535H455.095L452.619 319.901H430.423Z" fill="#629FFC"/>
<path d="M105.83 324.748V314.074L67.9272 302.964V301.657L105.83 290.548V279.874L57.2533 294.795V309.826L105.83 324.748Z" fill="#629FFC"/>
<path d="M491.873 329.146V318.117L531.037 306.638V305.288L491.873 293.808V282.779L542.066 298.197V313.728L491.873 329.146Z" fill="#629FFC"/>
</svg>
