<?xml version="1.0" encoding="utf-8"?>
<!-- Generator: Adobe Illustrator 19.0.0, SVG Export Plug-In . SVG Version: 6.00 Build 0)  -->
<svg version="1.1" id="Layer_1" xmlns="http://www.w3.org/2000/svg" xmlns:xlink="http://www.w3.org/1999/xlink" x="0px" y="0px"
	 viewBox="-409 210 140 141" style="enable-background:new -409 210 140 141;" xml:space="preserve">
<style type="text/css">
	.st0{fill:#629FFC;}
	.st1{fill:#A9CBFF;}
</style>
<g>
	<path class="st0" d="M-339.5,279.9v-40.7c0-0.8-0.6-1.4-1.4-1.4c-0.8,0-1.4,0.6-1.4,1.4v40.7c0,0.8,0.6,1.4,1.4,1.4
		C-340.1,281.3-339.5,280.7-339.5,279.9z"/>
	<path class="st0" d="M-354.2,319.2l-11.9-22.3v-20.3h7.5v10.2h10.9v-10.2h7V319L-354.2,319.2z"/>
	<path class="st1" d="M-327.1,319.2l11.9-22.3v-20.3h-7.6v10.2h-10.9v-10.2h-7V319L-327.1,319.2z"/>
	<path class="st0" d="M-340.6,240c3,0,5.9,5.8,9.3,6.6c3.4,0.9,5-1.9,9.9-1.4c4.4,0.5,3.9,6.5,11.4,7c-2.7,1.9-6.4,4.6-12.2,4
		c-4.4-0.4-5.6-3.3-10.5-2.2c-4.9,1-6,4.1-7.9,4.6C-340.6,249.3-340.6,240-340.6,240z"/>
</g>
</svg>
