<svg width="384" height="105" viewBox="0 0 384 105" fill="none" xmlns="http://www.w3.org/2000/svg">
<path d="M83.1965 23.6019C83.5111 24.7359 83.6895 25.8836 83.7388 27.0249H95.7356C102.673 27.0249 110.001 28.8091 116.061 33.948C118.157 35.7103 119.862 37.6841 121.213 39.8019H122.233C125.862 39.8019 129.196 41.0684 131.816 43.1835C133.789 41.5904 136.167 40.4787 138.772 40.027C139.865 32.6694 146.209 27.0249 153.871 27.0249H162.176C169.627 27.0249 175.832 32.363 177.173 39.4235C178.278 39.2104 179.396 39.0557 180.525 38.96C182.044 32.1307 188.139 27.0249 195.426 27.0249H201.176C202.552 27.0249 203.886 27.2069 205.154 27.5483C206.422 27.2069 207.756 27.0249 209.132 27.0249H214.881C218.701 27.0249 222.193 28.4278 224.871 30.7466C230.924 27.4765 237.545 26.0666 244.298 26.0666C250.634 26.0666 257.054 27.3384 262.872 30.6669C266.948 32.9494 270.548 35.9794 273.379 39.8019H275.906C279.536 39.8019 282.869 41.0684 285.489 43.1835C287.463 41.5904 289.841 40.4787 292.445 40.027C293.539 32.6694 299.883 27.0249 307.545 27.0249H315.85C323.301 27.0249 329.505 32.363 330.847 39.4235C331.951 39.2104 333.069 39.0557 334.198 38.96C335.718 32.1307 341.813 27.0249 349.1 27.0249H354.849C356.226 27.0249 357.559 27.2069 358.827 27.5483C360.096 27.2069 361.429 27.0249 362.805 27.0249H368.555C376.986 27.0249 383.821 33.8598 383.821 42.291V88.2883C383.821 96.7196 376.986 103.554 368.555 103.554H362.805C361.429 103.554 360.096 103.372 358.827 103.031C357.559 103.372 356.226 103.554 354.849 103.554H349.1C348.062 103.554 347.048 103.451 346.068 103.253C343.12 104.113 340.049 104.513 336.962 104.513C331.983 104.513 327.164 103.412 322.686 101.222C320.336 102.7 317.554 103.554 314.572 103.554H308.822C307.438 103.554 306.097 103.37 304.822 103.025C303.547 103.37 302.206 103.554 300.822 103.554H295.072C294.132 103.554 293.211 103.469 292.318 103.307C289.48 104.131 286.529 104.513 283.573 104.513C277.336 104.513 270.815 102.916 265.323 98.6292C258.975 102.93 251.562 104.513 244.298 104.513C237.532 104.513 230.869 103.152 224.778 99.9123C222.113 102.184 218.657 103.554 214.881 103.554H209.132C207.756 103.554 206.422 103.372 205.154 103.031C203.886 103.372 202.552 103.554 201.176 103.554H195.426C194.388 103.554 193.374 103.451 192.394 103.253C189.446 104.113 186.375 104.513 183.288 104.513C178.309 104.513 173.49 103.412 169.013 101.222C166.662 102.7 163.88 103.554 160.898 103.554H155.149C153.765 103.554 152.423 103.37 151.148 103.025C149.873 103.37 148.532 103.554 147.148 103.554H141.398C140.458 103.554 139.537 103.469 138.644 103.307C135.807 104.131 132.855 104.513 129.899 104.513C124.004 104.513 117.853 103.086 112.559 99.3082C107.247 102.454 101.316 103.554 95.7356 103.554H77.8478C72.2524 103.554 68.3805 101.222 65.0136 99.3082C61.4695 103.025 56.7685 103.938 51.1557 103.853L38.8265 103.667L26.4974 103.853C20.7781 103.94 15.4905 100.822 12.798 95.7752L1.79712 75.1562C0.617206 72.9446 0 70.4766 0 67.97V49.2197C0 40.7885 6.83488 33.9536 15.2661 33.9536H21.5638V17.4715C21.5638 7.82229 29.386 0 39.0353 0C43.6311 0 47.7993 1.7748 50.9081 4.65713C51.6236 5.16486 52.195 5.6342 52.6103 5.98805C52.6851 6.05178 52.7594 6.11586 52.8332 6.18011C54.7402 5.87021 57.042 5.72456 59.6649 6.01897L59.7459 6.02828C66.4738 6.81988 70.6982 10.8611 72.514 12.9568C77.6316 14.3554 81.7406 18.3534 83.1965 23.6019Z" fill="#F1F0ED"/>
<path d="M79.8362 42.4646H97.4121C101.722 42.4646 105.154 43.5527 107.707 45.7287C110.259 47.863 111.536 50.8551 111.536 54.705C111.536 58.7224 109.694 61.7773 106.012 63.8697C105.761 63.9952 105.593 64.1207 105.51 64.2463C105.426 64.33 105.384 64.4765 105.384 64.6857C105.384 64.9786 105.551 65.1879 105.886 65.3134C109.862 66.9036 111.85 70.1677 111.85 75.1057C111.85 79.1231 110.552 82.2198 107.958 84.3959C105.405 86.572 101.89 87.66 97.4121 87.66H79.8362V42.4646ZM96.7844 61.9237C99.5464 61.9237 101.639 61.3797 103.062 60.2917C104.526 59.2037 105.259 57.4461 105.259 55.0189C105.259 52.5917 104.526 50.8341 103.062 49.7461C101.639 48.6581 99.5464 48.114 96.7844 48.114H86.1133V61.9237H96.7844ZM96.7844 82.0106C99.7137 82.0106 101.911 81.4666 103.375 80.3785C104.84 79.2486 105.572 77.3864 105.572 74.7919C105.572 72.1973 104.84 70.356 103.375 69.268C101.911 68.1381 99.7137 67.5732 96.7844 67.5732H86.1133V82.0106H96.7844Z" fill="#182232"/>
<path d="M147.928 87.66H142.279V84.082C142.279 83.7891 142.132 83.6426 141.84 83.6426C141.714 83.6426 141.588 83.7054 141.463 83.8309C141.379 83.9146 141.275 84.0193 141.149 84.1448C138.806 87.116 135.416 88.6016 130.98 88.6016C126.879 88.6016 123.657 87.4508 121.313 85.1491C118.97 82.8475 117.798 79.6043 117.798 75.4196V55.0189H123.448V74.478C123.448 77.4492 124.201 79.709 125.707 81.2573C127.214 82.8057 129.39 83.5799 132.236 83.5799C135.458 83.5799 137.927 82.6174 139.643 80.6924C141.4 78.7255 142.279 75.8171 142.279 71.9672V55.0189H147.928V87.66Z" fill="#182232"/>
<path d="M161.439 55.0189V87.66H155.789V55.0189H161.439ZM162.694 42.4646V49.9972H154.534V42.4646H162.694Z" fill="#182232"/>
<path d="M167.432 71.3395C167.432 67.5732 168.185 64.3928 169.691 61.7982C171.24 59.2037 173.227 57.2787 175.655 56.0232C178.082 54.726 180.676 54.0773 183.438 54.0773C188.083 54.0773 191.682 55.6048 194.235 58.6596C194.444 58.9526 194.674 59.099 194.925 59.099C195.218 59.099 195.365 58.9316 195.365 58.5969V42.4646H201.014V87.66H195.365V84.082C195.365 83.7473 195.218 83.5799 194.925 83.5799C194.674 83.5799 194.444 83.7263 194.235 84.0193C191.682 87.0741 188.083 88.6016 183.438 88.6016C180.676 88.6016 178.082 87.9739 175.655 86.7184C173.227 85.4212 171.24 83.4752 169.691 80.8807C168.185 78.2861 167.432 75.1057 167.432 71.3395ZM173.081 71.3395C173.081 75.1894 174.106 78.2025 176.157 80.3785C178.249 82.5128 180.99 83.5799 184.38 83.5799C187.77 83.5799 190.49 82.5128 192.54 80.3785C194.633 78.2025 195.679 75.1894 195.679 71.3395C195.679 67.4895 194.633 64.4974 192.54 62.3631C190.49 60.1871 187.77 59.099 184.38 59.099C180.99 59.099 178.249 60.1871 176.157 62.3631C174.106 64.4974 173.081 67.4895 173.081 71.3395Z" fill="#182232"/>
<path d="M214.481 42.4646V87.66H208.831V42.4646H214.481Z" fill="#182232"/>
<path d="M220.16 65.0623C220.16 60.3754 221.101 56.2534 222.984 52.6964C224.909 49.1393 227.629 46.3983 231.145 44.4733C234.66 42.5065 238.74 41.5231 243.385 41.5231C247.653 41.5231 251.273 42.3809 254.244 44.0967C257.257 45.7706 259.517 47.9676 261.024 50.6877C262.53 53.4078 263.346 56.3162 263.472 59.4129H257.195C256.86 55.6885 255.542 52.7173 253.24 50.4994C250.938 48.2814 247.549 47.1725 243.071 47.1725C239.765 47.1725 236.857 47.9257 234.346 49.4323C231.835 50.8969 229.889 52.9893 228.508 55.7094C227.127 58.4295 226.437 61.5471 226.437 65.0623C226.437 68.6194 227.106 71.7579 228.445 74.478C229.826 77.1563 231.814 79.2486 234.409 80.7551C237.003 82.2198 240.1 82.9521 243.699 82.9521C247.925 82.9521 251.064 82.0106 253.115 80.1274C255.165 78.2443 256.19 75.7334 256.19 72.5949H239.619V66.9455H262.467V71.4022C262.467 76.7587 260.773 80.9644 257.383 84.0193C254.035 87.0741 249.369 88.6016 243.385 88.6016C238.656 88.6016 234.534 87.6391 231.019 85.7141C227.504 83.7473 224.805 80.9853 222.921 77.4283C221.08 73.8712 220.16 69.7492 220.16 65.0623Z" fill="#182232"/>
<path d="M298.923 87.66H293.273V84.082C293.273 83.7891 293.127 83.6426 292.834 83.6426C292.709 83.6426 292.583 83.7054 292.457 83.8309C292.374 83.9146 292.269 84.0193 292.144 84.1448C289.8 87.116 286.41 88.6016 281.975 88.6016C277.874 88.6016 274.651 87.4508 272.308 85.1491C269.964 82.8475 268.793 79.6043 268.793 75.4196V55.0189H274.442V74.478C274.442 77.4492 275.195 79.709 276.702 81.2573C278.208 82.8057 280.384 83.5799 283.23 83.5799C286.452 83.5799 288.921 82.6174 290.637 80.6924C292.395 78.7255 293.273 75.8171 293.273 71.9672V55.0189H298.923V87.66Z" fill="#182232"/>
<path d="M312.433 55.0189V87.66H306.784V55.0189H312.433ZM313.689 42.4646V49.9972H305.529V42.4646H313.689Z" fill="#182232"/>
<path d="M318.426 71.3395C318.426 67.5732 319.179 64.3928 320.686 61.7982C322.234 59.2037 324.222 57.2787 326.649 56.0232C329.076 54.726 331.671 54.0773 334.433 54.0773C339.078 54.0773 342.677 55.6048 345.229 58.6596C345.439 58.9526 345.669 59.099 345.92 59.099C346.213 59.099 346.359 58.9316 346.359 58.5969V42.4646H352.009V87.66H346.359V84.082C346.359 83.7473 346.213 83.5799 345.92 83.5799C345.669 83.5799 345.439 83.7263 345.229 84.0193C342.677 87.0741 339.078 88.6016 334.433 88.6016C331.671 88.6016 329.076 87.9739 326.649 86.7184C324.222 85.4212 322.234 83.4752 320.686 80.8807C319.179 78.2861 318.426 75.1057 318.426 71.3395ZM324.076 71.3395C324.076 75.1894 325.101 78.2025 327.151 80.3785C329.244 82.5128 331.985 83.5799 335.374 83.5799C338.764 83.5799 341.484 82.5128 343.535 80.3785C345.627 78.2025 346.673 75.1894 346.673 71.3395C346.673 67.4895 345.627 64.4974 343.535 62.3631C341.484 60.1871 338.764 59.099 335.374 59.099C331.985 59.099 329.244 60.1871 327.151 62.3631C325.101 64.4974 324.076 67.4895 324.076 71.3395Z" fill="#182232"/>
<path d="M365.475 42.4646V87.66H359.826V42.4646H365.475Z" fill="#182232"/>
<path d="M43.8672 33.3369V49.2726H47.8689V58.4843H57.772V49.2726H64.6448V67.696L53.8358 87.9555L41.4952 87.7692L29.1546 87.9555L18.3455 67.696V49.2726H25.1871V58.4843H35.1214V49.2726H39.5334V18.0778C39.5334 16.8811 40.5035 15.9109 41.7003 15.9109C42.5636 15.9109 43.309 16.4157 43.6573 17.1463C44.7526 17.5661 45.8558 18.6754 46.9964 19.8224C48.3512 21.1847 49.7589 22.6001 51.2687 22.9761C52.7932 23.3558 53.9235 22.9499 55.1968 22.4925C56.5326 22.0127 58.0259 21.4764 60.2971 21.7313C62.0001 21.9317 62.9031 23.0439 63.9128 24.2875C65.2552 25.941 66.7863 27.8269 70.6375 28.111L70.6132 28.1282C68.1474 29.8695 64.7784 32.2486 59.5473 31.7833C57.9113 31.6421 56.7587 31.1147 55.6536 30.609C54.0787 29.8883 52.6002 29.2118 49.9566 29.7604C47.0953 30.3345 45.6495 31.6891 44.55 32.7192C44.3096 32.9445 44.0857 33.1543 43.8672 33.3369Z" fill="#182232"/>
</svg>
