<?xml version="1.0" encoding="utf-8"?>
<!-- Generator: Adobe Illustrator 19.0.0, SVG Export Plug-In . SVG Version: 6.00 Build 0)  -->
<svg version="1.1" id="Layer_1" xmlns="http://www.w3.org/2000/svg" xmlns:xlink="http://www.w3.org/1999/xlink" x="0px" y="0px"
	 viewBox="-190 180 118 142" style="enable-background:new -190 180 118 142;" xml:space="preserve">
<style type="text/css">
	.st0{fill:#FFFCFC;}
</style>
<path class="st0" d="M-72,230.835v90.617h-37.907v-26.686c0-11.725-9.5-21.23-21.172-21.23c-11.672,0-21.172,9.505-21.172,21.23
	v26.686H-190v-90.617h22.093v13.093c0,5.603,4.547,10.134,10.126,10.134s10.126-4.531,10.126-10.134v-13.093h33.139v13.038
	c0,5.603,4.547,10.134,10.126,10.134c5.578,0,10.126-4.531,10.126-10.134v-13.038H-72z"/>
<path class="st0" d="M-136.228,183.072V239.3h9.851V214.09c0,0,2.517-5.178,11.694-2.894c12.143,3.023,27.104,0.974,36.708-16.408
	C-107.078,204.374-107.858,171.434-136.228,183.072z"/>
</svg>
