<?xml version="1.0" encoding="utf-8"?>
<!-- Generator: Adobe Illustrator 19.0.0, SVG Export Plug-In . SVG Version: 6.00 Build 0)  -->
<svg version="1.1" id="Layer_1" xmlns="http://www.w3.org/2000/svg" xmlns:xlink="http://www.w3.org/1999/xlink" x="0px" y="0px"
	 viewBox="-461 263 36 35" style="enable-background:new -461 263 36 35;" xml:space="preserve">
<style type="text/css">
	.st0{fill:#FFFFFF;}
	.st1{fill:#DFDFDF;}
</style>
<path class="st0" d="M-434,276.05l0.7-1.3l0.8,1.3l5.2,8.4l-6,3.4l-5.9-3.4L-434,276.05z"/>
<path class="st0" d="M-433.2,289.45l-5.2-2.8l5.2,7.7l5.1-7.8L-433.2,289.45z"/>
<path class="st1" d="M-433.2,287.85v-12v-1l6.1,9.7L-433.2,287.85z"/>
<path class="st1" d="M-433.2,294.35v-4.9l5.1-2.9L-433.2,294.35z"/>
<path class="st0" d="M-451.5,265.65v1.5l0,0v1.6h-3.8l0,0h-0.6l-2.1,4.4h6.5v1.7l0,0v14.8c0,2-1.7,3.7-3.7,3.7h-1.2l-2.5,3.6h21.3
	l-2.5-3.6h-2.8c-2,0-3.7-1.7-3.7-3.7v-12.9c0.1-2,1.7-3.6,3.7-3.6h13.9l-2.4-4.4h-10.5l0,0h-4.6v-1.6l0,0v-3.1L-451.5,265.65z"/>
<path class="st1" d="M-448.8,264.75v28.4c0-0.8,0.6-2.8,2.2-3.7v-9.1l0.1-3.5c0-2,1.7-3.7,3.7-3.7h13.9l-1.3-2.3h-13.5
	c-1.9,0-2.8,1.3-2.8,1.3v-8.1L-448.8,264.75z"/>
<path class="st1" d="M-456.9,270.75l-1.1,2.4h6.6v-2.4H-456.9z"/>
</svg>
