<?xml version="1.0" encoding="utf-8"?>
<!-- Generator: Adobe Illustrator 19.0.0, SVG Export Plug-In . SVG Version: 6.00 Build 0)  -->
<svg version="1.1" id="Layer_1" xmlns="http://www.w3.org/2000/svg" xmlns:xlink="http://www.w3.org/1999/xlink" x="0px" y="0px"
	 viewBox="0 0 500 500" style="enable-background:new 0 0 500 500;" xml:space="preserve">
<style type="text/css">
	.st0{fill:url(#XMLID_83_);}
	.st1{fill:#FFFFFF;}
	.st2{fill:#DFDFDF;}
	.st3{fill:none;}
</style>
<linearGradient id="XMLID_83_" gradientUnits="userSpaceOnUse" x1="73.0769" y1="74.0769" x2="425.9232" y2="426.9232">
	<stop  offset="0" style="stop-color:#1C1C1C"/>
	<stop  offset="1" style="stop-color:#000000"/>
</linearGradient>
<circle id="XMLID_1_" class="st0" cx="249.5" cy="250.5" r="249.5"/>
<g id="XMLID_8_">
	<path id="XMLID_80_" class="st1" d="M327.708,208.992l5.035-9.351l5.754,9.351l37.404,60.422l-43.159,24.457l-42.439-24.457
		L327.708,208.992z"/>
</g>
<g id="XMLID_7_">
	<path id="XMLID_79_" class="st1" d="M333.463,305.381l-37.404-20.141l37.404,55.387l36.685-56.106L333.463,305.381z"/>
</g>
<g id="XMLID_6_">
	<path id="XMLID_78_" class="st2" d="M333.463,293.872v-86.318v-7.193l43.878,69.774L333.463,293.872z"/>
</g>
<g id="XMLID_5_">
	<path id="XMLID_77_" class="st2" d="M333.463,340.627v-35.246l36.685-20.86L333.463,340.627z"/>
</g>
<g id="XMLID_4_">
	<path id="XMLID_76_" class="st1" d="M201.828,134.184v10.79l0,0v11.509h-27.334l0,0h-4.316l-15.106,31.65h46.755v12.228l0,0
		v106.458c0,14.386-12.228,26.615-26.615,26.615h-8.632l-17.983,25.895h153.214l-17.983-25.895h-20.141
		c-14.386,0-26.615-12.228-26.615-26.615v-92.791c0.719-14.386,12.228-25.895,26.615-25.895h99.985l-17.263-31.65h-75.528l0,0
		h-33.088v-11.509l0,0v-22.299L201.828,134.184z"/>
</g>
<g id="XMLID_3_">
	<path id="XMLID_17_" class="st2" d="M221.25,127.71v204.285c0-5.754,4.316-20.141,15.825-26.615v-65.458l0.719-25.176
		c0-14.386,12.228-26.615,26.615-26.615h99.985l-9.351-16.544h-97.107c-13.667,0-20.141,9.351-20.141,9.351v-58.264L221.25,127.71z"
		/>
</g>
<g id="XMLID_2_">
	<path id="XMLID_9_" class="st2" d="M162.985,170.869l-7.912,17.263h47.475v-17.263H162.985z"/>
</g>
<g id="XMLID_10_">
	<path id="XMLID_18_" class="st1" d="M427.584,312.588c0.914-1.687,1.862-3.13,2.844-4.326c1.907-2.348,4.02-3.87,6.334-4.566
		c2.313-0.696,4.877-0.773,7.686-0.228l-4.646,11.943c-1.613-0.183-2.987,0.373-4.125,1.665c-1.139,1.291-2.131,3.025-2.977,5.203
		c-0.79,2.027-1.172,3.578-1.143,4.654c0.026,1.074,0.459,1.774,1.295,2.101c0.326,0.127,0.646,0.165,0.959,0.115
		c0.311-0.052,0.592-0.181,0.847-0.391c0.549-0.439,1.212-1.392,1.989-2.858c0.775-1.467,1.822-3.625,3.139-6.479
		c2.207-4.703,4.482-7.947,6.824-9.731c2.344-1.784,5.154-2.037,8.435-0.761c3.399,1.323,5.521,3.813,6.364,7.473
		c0.842,3.658,0.219,8.172-1.87,13.539c-2.124,5.457-4.651,9.393-7.582,11.807c-2.931,2.413-6.638,3.296-11.126,2.649l4.438-11.407
		c1.471,0.194,2.702-0.279,3.695-1.421c0.993-1.141,1.921-2.814,2.778-5.021c0.813-2.088,1.144-3.624,0.995-4.609
		c-0.149-0.984-0.581-1.616-1.297-1.895c-0.388-0.151-0.759-0.167-1.114-0.048s-0.744,0.457-1.168,1.014
		c-0.434,0.586-0.969,1.477-1.605,2.671s-1.415,2.798-2.334,4.809c-0.775,1.726-1.552,3.26-2.333,4.604
		c-0.78,1.345-1.562,2.534-2.342,3.57c-1.58,2.028-3.267,3.338-5.058,3.929c-1.793,0.59-3.822,0.444-6.088-0.438
		c-1.133-0.441-2.133-1.002-3.001-1.683c-0.869-0.682-1.599-1.498-2.19-2.45c-1.205-1.843-1.779-4.229-1.721-7.158
		c0.06-2.931,0.873-6.408,2.438-10.435C425.783,316.223,426.669,314.275,427.584,312.588z"/>
	<path id="XMLID_20_" class="st1" d="M401.693,367.488c-0.255-3.986,1.32-8.517,4.727-13.591c1.23-1.835,2.465-3.415,3.703-4.742
		c1.236-1.328,2.482-2.38,3.737-3.157c2.497-1.599,4.998-2.31,7.501-2.134s5.002,1.102,7.5,2.778
		c1.249,0.838,2.311,1.782,3.187,2.832c0.875,1.05,1.573,2.192,2.093,3.428c1.021,2.496,1.271,5.256,0.746,8.275
		c-0.523,3.021-1.854,6.126-3.994,9.314c-3.191,4.757-6.678,7.812-10.459,9.168c-3.781,1.354-7.475,1.072-11.08-0.847l6.793-10.124
		c1.356,0.563,2.633,0.602,3.828,0.112c1.195-0.49,2.363-1.585,3.504-3.284c1.284-1.913,1.834-3.637,1.646-5.167
		c-0.186-1.532-1.115-2.859-2.789-3.983c-1.542-1.033-3.02-1.331-4.432-0.892c-1.413,0.439-2.76,1.615-4.045,3.529
		c-1.194,1.78-1.773,3.317-1.736,4.614c0.035,1.296,0.566,2.441,1.593,3.439l-6.794,10.124
		C403.69,374.705,401.946,371.474,401.693,367.488z"/>
	<path id="XMLID_22_" class="st1" d="M380.377,393.872c-0.566-2.116-0.428-4.423,0.416-6.917c0.846-2.494,2.584-5.004,5.217-7.529
		c2.68-2.569,5.143-4.033,7.391-4.395c2.248-0.359,4.27,0.396,6.063,2.266l0.035,0.035c1.129,1.179,1.85,2.449,2.16,3.813
		s0.167,2.821-0.432,4.37c-0.168,0.472-0.364,0.938-0.59,1.396c-0.224,0.459-0.477,0.912-0.757,1.359
		c-0.541,0.917-1.287,1.976-2.239,3.178c-0.953,1.202-2.218,2.67-3.793,4.402c-0.742,0.845-1.385,1.583-1.93,2.217
		c-0.546,0.633-0.993,1.186-1.343,1.652c-0.743,0.936-1.172,1.646-1.284,2.13c-0.111,0.483-0.013,0.887,0.298,1.211
		c0.442,0.462,1.096,0.61,1.96,0.448c0.863-0.163,2.045-0.965,3.547-2.404c1.824-1.75,2.906-3.188,3.248-4.312
		c0.34-1.124,0.179-2.101-0.482-2.93l8.521-8.173c2.27,2.967,2.882,6.183,1.836,9.646c-1.045,3.463-3.544,7.089-7.492,10.876
		c-4.135,3.965-7.838,6.263-11.11,6.896c-3.272,0.633-6.459-0.667-9.56-3.9l-11.396-11.882l7.066-6.778L380.377,393.872z
		 M386.104,389.545c-0.466,0.646-0.844,1.328-1.13,2.047c-0.616,1.391-0.899,2.726-0.847,4.006c0.053,1.279,0.455,2.312,1.208,3.097
		l0.199,0.209c0.012-0.543,0.263-1.24,0.757-2.089c0.493-0.852,1.217-1.865,2.168-3.045c1.159-1.334,2.007-2.38,2.545-3.138
		c0.535-0.759,0.877-1.385,1.023-1.88c0.122-0.428,0.158-0.816,0.109-1.169c-0.049-0.352-0.207-0.666-0.473-0.944l-0.033-0.034
		c-0.421-0.438-0.949-0.585-1.586-0.44c-0.637,0.146-1.418,0.661-2.342,1.547C387.104,388.287,386.57,388.898,386.104,389.545z"/>
	<path id="XMLID_25_" class="st1" d="M359.891,422.2l-8.8-13.343l9.056-5.973l8.801,13.344l5.209-3.436l5.152,7.813l-5.208,3.436
		l0.951,1.442c0.811,1.229,1.442,2.374,1.894,3.438c0.452,1.063,0.746,2.047,0.883,2.954c0.267,1.855-0.207,3.606-1.423,5.252
		c-1.216,1.644-3.211,3.383-5.991,5.216l-5.208,3.435l-4.757-7.212l3.967-2.618c1.257-0.826,1.956-1.596,2.102-2.305
		c0.146-0.71-0.23-1.745-1.129-3.107l-0.345-0.521l-7.091,4.677l-5.154-7.813L359.891,422.2z"/>
	<path id="XMLID_27_" class="st1" d="M332.75,436.614l-6.708-14.51l9.847-4.552l6.707,14.508l5.664-2.617l3.928,8.496l-5.664,2.618
		l0.726,1.568c0.617,1.335,1.071,2.563,1.358,3.683c0.287,1.117,0.432,2.135,0.432,3.052c-0.013,1.874-0.745,3.535-2.191,4.979
		c-1.448,1.444-3.682,2.865-6.703,4.262l-5.664,2.618l-3.625-7.843l4.313-1.993c1.367-0.632,2.174-1.287,2.424-1.967
		c0.249-0.679,0.031-1.761-0.653-3.24l-0.262-0.567l-7.712,3.565l-3.927-8.496L332.75,436.614z"/>
	<path id="XMLID_29_" class="st1" d="M303.056,429.96c1.808-0.163,3.438-0.115,4.89,0.143c2.928,0.476,5.265,1.615,7.012,3.416
		c1.745,1.801,2.989,4.159,3.73,7.074c0.371,1.458,0.533,2.869,0.483,4.236c-0.048,1.366-0.291,2.682-0.729,3.948
		c-0.905,2.542-2.56,4.764-4.966,6.663c-2.406,1.9-5.469,3.324-9.191,4.271c-1.891,0.481-3.681,0.779-5.368,0.896
		c-1.688,0.114-3.289,0.051-4.804-0.19c-3.006-0.523-5.497-1.689-7.477-3.496c-1.979-1.809-3.344-4.186-4.093-7.13
		c-0.363-1.428-0.532-2.806-0.507-4.133c0.027-1.327,0.229-2.601,0.613-3.82c0.828-2.457,2.434-4.615,4.815-6.475
		c2.384-1.861,5.606-3.31,9.669-4.343C299.273,430.476,301.248,430.122,303.056,429.96z M294.457,442.499
		c-0.848,1.206-1.053,2.678-0.609,4.414c0.497,1.954,1.428,3.277,2.793,3.97c1.365,0.693,3.18,0.752,5.443,0.175
		c2.232-0.567,3.791-1.483,4.675-2.749c0.884-1.264,1.076-2.873,0.579-4.828c-0.457-1.798-1.359-3.005-2.705-3.62
		c-1.346-0.616-3.134-0.639-5.367-0.071C296.909,440.39,295.307,441.293,294.457,442.499z"/>
	<path id="XMLID_32_" class="st1" d="M273.927,436.403l3.343,36.567l-11.521,1.053l-3.342-36.568L273.927,436.403z"/>
	<path id="XMLID_34_" class="st1" d="M231.204,441.635c1.041-1.63,2.504-2.869,4.39-3.72c1.885-0.848,4.297-1.174,7.235-0.974
		c1.34,0.09,2.617,0.306,3.828,0.645c1.213,0.338,2.342,0.816,3.392,1.433c2.131,1.205,3.78,2.904,4.946,5.101
		c1.166,2.195,1.641,4.874,1.426,8.035c-0.106,1.563-0.364,3.005-0.775,4.325c-0.41,1.319-0.956,2.516-1.639,3.593
		c-1.427,2.116-3.297,3.673-5.61,4.671c-2.313,0.996-4.922,1.396-7.827,1.199c-2.491-0.17-4.577-0.721-6.263-1.652
		c-1.685-0.934-2.981-2.264-3.89-3.994l-0.895,13.17l-11.206-0.762l2.49-36.636l10.057,0.685L231.204,441.635z M232.875,446.416
		c-1.229,0.846-1.905,2.195-2.032,4.047c-0.132,1.947,0.382,3.481,1.54,4.603c1.159,1.121,2.839,1.757,5.042,1.906
		c2.332,0.159,4.099-0.242,5.302-1.203c1.205-0.96,1.873-2.415,2.005-4.361c0.125-1.853-0.355-3.279-1.441-4.284
		c-1.086-1.004-2.779-1.583-5.078-1.739C235.883,445.225,234.104,445.568,232.875,446.416z"/>
	<path id="XMLID_37_" class="st1" d="M186.457,436.695l26.331,7.072l-2.813,10.476l-26.331-7.071L186.457,436.695z"/>
	<path id="XMLID_39_" class="st1" d="M152.624,410.916l30.508,14.864l-15.075,30.938l-29.86-14.548l3.931-8.068l19.936,9.713
		l2.019-4.143l-17.821-8.683l3.006-6.171l17.822,8.683l2.039-4.185l-20.583-10.029L152.624,410.916z"/>
	<path id="XMLID_41_" class="st1" d="M116.448,414.08l14.912-19.232l9.332,7.235l-14.912,19.232l8.8,6.822l-6.177,7.968
		l-27.236-21.118l6.176-7.967L116.448,414.08z"/>
	<path id="XMLID_43_" class="st1" d="M92.771,372.205l9.09,10.922l9.223-7.678l7.462,8.965l-26.452,22.018l-7.462-8.966l9.333-7.769
		l-9.089-10.92l-9.334,7.769l-7.4-8.891l26.452-22.018l7.401,8.892L92.771,372.205z"/>
	<path id="XMLID_45_" class="st1" d="M84.751,339.393l-6.904,2.899c-2.006,0.841-3.831,1.104-5.474,0.788
		c-1.643-0.316-3.156-1.053-4.544-2.205c-1.403-1.112-2.708-2.482-3.912-4.11c-1.204-1.629-2.35-3.325-3.438-5.09
		c-1.552-2.542-2.868-4.497-3.946-5.866c-1.078-1.369-2.104-1.85-3.078-1.441c-0.855,0.359-1.343,1.059-1.462,2.098
		c-0.118,1.039,0.267,2.621,1.159,4.745c1.053,2.508,2.199,4.162,3.436,4.961c1.239,0.799,2.601,0.904,4.088,0.313l4.496,10.711
		c-4.34,1.648-8.231,1.451-11.675-0.591c-3.443-2.043-6.415-6.043-8.917-12.004c-0.806-1.919-1.423-3.698-1.852-5.34
		c-0.429-1.642-0.67-3.146-0.723-4.512c-0.147-2.75,0.332-4.998,1.437-6.746c1.106-1.748,2.691-3.056,4.756-3.923
		c0.885-0.372,1.747-0.611,2.586-0.722c0.839-0.108,1.641-0.081,2.404,0.085c1.51,0.372,2.968,1.2,4.375,2.483
		c1.406,1.284,2.864,2.979,4.374,5.088c0.724,0.98,1.394,1.913,2.009,2.801c0.616,0.887,1.197,1.735,1.746,2.546
		c1.044,1.575,1.987,2.871,2.83,3.889c0.844,1.017,1.674,1.631,2.492,1.843l-9.625-22.926l9.073-3.809L84.751,339.393z"/>
	<path id="XMLID_47_" class="st1" d="M76.507,181.129c-0.968,1.658-1.962,3.069-2.981,4.234c-1.983,2.285-4.143,3.738-6.478,4.359
		c-2.335,0.622-4.899,0.616-7.69-0.019l5.029-11.788c1.606,0.233,2.998-0.277,4.176-1.532c1.179-1.254,2.226-2.955,3.144-5.104
		c0.853-2.002,1.283-3.54,1.29-4.616c0.007-1.075-0.402-1.789-1.227-2.141c-0.323-0.138-0.642-0.188-0.955-0.146
		s-0.599,0.162-0.86,0.363c-0.562,0.422-1.255,1.352-2.079,2.793c-0.823,1.44-1.938,3.565-3.346,6.374
		c-2.357,4.63-4.736,7.8-7.134,9.507c-2.399,1.709-5.217,1.871-8.455,0.49c-3.356-1.432-5.396-3.989-6.121-7.674
		c-0.725-3.683,0.043-8.174,2.303-13.472c2.298-5.387,4.951-9.238,7.957-11.558c3.007-2.317,6.742-3.081,11.206-2.29l-4.802,11.259
		c-1.463-0.241-2.709,0.192-3.739,1.301c-1.029,1.109-2.009,2.753-2.938,4.931c-0.878,2.061-1.259,3.585-1.143,4.574
		c0.118,0.989,0.529,1.635,1.235,1.937c0.383,0.163,0.753,0.19,1.113,0.083c0.359-0.107,0.759-0.433,1.199-0.976
		c0.453-0.572,1.017-1.445,1.691-2.618c0.675-1.174,1.504-2.751,2.488-4.731c0.829-1.699,1.655-3.208,2.479-4.526
		c0.823-1.318,1.642-2.483,2.456-3.492c1.644-1.978,3.37-3.233,5.181-3.766s3.834-0.321,6.07,0.633
		c1.119,0.478,2.101,1.07,2.946,1.778c0.846,0.709,1.55,1.549,2.109,2.518c1.146,1.881,1.643,4.285,1.49,7.212
		s-1.077,6.377-2.771,10.351C78.423,177.555,77.474,179.473,76.507,181.129z"/>
	<path id="XMLID_49_" class="st1" d="M104.158,127.083c0.126,3.992-1.596,8.47-5.163,13.433c-1.289,1.792-2.573,3.333-3.853,4.619
		c-1.28,1.288-2.559,2.299-3.837,3.035c-2.549,1.518-5.071,2.148-7.566,1.892c-2.495-0.257-4.964-1.263-7.406-3.019
		c-1.221-0.878-2.252-1.855-3.094-2.934c-0.841-1.077-1.501-2.241-1.981-3.493c-0.941-2.528-1.102-5.294-0.48-8.297
		c0.621-3.001,2.052-6.062,4.293-9.18c3.343-4.65,6.926-7.592,10.748-8.825c3.822-1.232,7.505-0.832,11.047,1.202l-7.116,9.899
		c-1.337-0.606-2.612-0.685-3.822-0.234c-1.21,0.45-2.413,1.507-3.608,3.17c-1.345,1.87-1.949,3.574-1.812,5.111
		c0.137,1.537,1.023,2.894,2.66,4.07c1.507,1.083,2.974,1.428,4.4,1.033c1.426-0.393,2.811-1.525,4.156-3.396
		c1.251-1.741,1.88-3.26,1.886-4.557c0.006-1.296-0.488-2.459-1.482-3.489l7.116-9.899
		C102.394,119.805,104.033,123.09,104.158,127.083z"/>
	<path id="XMLID_51_" class="st1" d="M126.293,101.406c0.499,2.134,0.287,4.435-0.636,6.899c-0.924,2.467-2.741,4.92-5.453,7.36
		c-2.76,2.482-5.268,3.868-7.526,4.156c-2.259,0.289-4.255-0.53-5.988-2.457l-0.033-0.036c-1.091-1.213-1.771-2.507-2.038-3.88
		c-0.267-1.374-0.078-2.824,0.57-4.354c0.184-0.466,0.395-0.925,0.634-1.377c0.239-0.451,0.506-0.896,0.801-1.334
		c0.568-0.898,1.349-1.934,2.339-3.105c0.991-1.171,2.301-2.598,3.931-4.279c0.769-0.82,1.435-1.538,2-2.154
		c0.565-0.615,1.03-1.152,1.393-1.609c0.774-0.91,1.224-1.605,1.352-2.087c0.127-0.479,0.042-0.887-0.259-1.221
		c-0.428-0.475-1.076-0.646-1.944-0.51s-2.075,0.899-3.622,2.29c-1.879,1.691-3.007,3.093-3.383,4.206
		c-0.376,1.113-0.247,2.094,0.388,2.943l-8.778,7.897c-2.173-3.037-2.682-6.271-1.527-9.699c1.155-3.428,3.768-6.973,7.835-10.633
		c4.259-3.831,8.033-6.01,11.324-6.539c3.291-0.529,6.435,0.872,9.43,4.202l11.012,12.239l-7.28,6.55L126.293,101.406z
		 M120.432,105.549c0.486-0.632,0.885-1.302,1.194-2.011c0.661-1.37,0.986-2.695,0.974-3.977c-0.012-1.28-0.381-2.325-1.108-3.134
		l-0.192-0.215c-0.029,0.543-0.303,1.231-0.823,2.063c-0.52,0.835-1.274,1.825-2.264,2.975c-1.201,1.296-2.082,2.314-2.643,3.055
		c-0.56,0.741-0.921,1.356-1.083,1.846c-0.135,0.424-0.185,0.813-0.146,1.165c0.038,0.354,0.186,0.673,0.442,0.958l0.033,0.036
		c0.407,0.452,0.93,0.615,1.572,0.491c0.64-0.125,1.437-0.615,2.388-1.472C119.393,106.774,119.945,106.18,120.432,105.549z"/>
	<path id="XMLID_54_" class="st1" d="M147.687,73.731l8.371,13.617l-9.242,5.681l-8.371-13.616l-5.316,3.267l-4.901-7.973
		l5.315-3.269l-0.905-1.472c-0.77-1.254-1.365-2.419-1.782-3.496c-0.418-1.076-0.681-2.069-0.79-2.98
		c-0.208-1.863,0.323-3.598,1.59-5.203c1.267-1.604,3.317-3.278,6.153-5.022l5.316-3.268l4.524,7.36l-4.048,2.488
		c-1.282,0.788-2.006,1.535-2.174,2.238c-0.168,0.704,0.175,1.751,1.03,3.142l0.327,0.531l7.238-4.448l4.901,7.974L147.687,73.731z"
		/>
	<path id="XMLID_56_" class="st1" d="M175.258,60.198l6.241,14.715l-9.987,4.236l-6.241-14.715l-5.745,2.436l-3.655-8.616
		l5.745-2.437l-0.675-1.591c-0.575-1.355-0.989-2.596-1.24-3.724c-0.252-1.127-0.364-2.147-0.335-3.064
		c0.074-1.873,0.857-3.509,2.35-4.907c1.493-1.397,3.771-2.746,6.835-4.046l5.745-2.437l3.374,7.954l-4.375,1.855
		c-1.385,0.588-2.213,1.218-2.484,1.888c-0.272,0.672-0.089,1.759,0.548,3.261l0.244,0.574l7.822-3.316l3.654,8.617L175.258,60.198z
		"/>
	<path id="XMLID_58_" class="st1" d="M204.75,67.791c-1.813,0.104-3.439,0.005-4.883-0.3c-2.911-0.57-5.209-1.784-6.897-3.642
		c-1.687-1.855-2.854-4.253-3.501-7.19c-0.323-1.469-0.439-2.885-0.346-4.249c0.093-1.363,0.377-2.672,0.855-3.924
		c0.986-2.512,2.712-4.678,5.179-6.499c2.465-1.821,5.573-3.146,9.323-3.972c1.906-0.42,3.705-0.66,5.396-0.722
		c1.69-0.062,3.288,0.054,4.794,0.344c2.987,0.62,5.44,1.865,7.361,3.736c1.919,1.87,3.206,4.29,3.86,7.259
		c0.317,1.438,0.441,2.819,0.374,4.145c-0.069,1.326-0.313,2.593-0.736,3.8c-0.907,2.429-2.581,4.533-5.022,6.316
		c-2.442,1.783-5.709,3.126-9.803,4.028C208.546,67.397,206.562,67.686,204.75,67.791z M213.747,55.535
		c0.888-1.178,1.139-2.642,0.753-4.393c-0.434-1.969-1.322-3.321-2.664-4.058c-1.342-0.736-3.154-0.854-5.435-0.351
		c-2.25,0.496-3.837,1.362-4.761,2.598c-0.924,1.235-1.168,2.838-0.734,4.807c0.399,1.813,1.261,3.048,2.586,3.706
		c1.324,0.659,3.112,0.74,5.362,0.244C211.229,57.565,212.86,56.713,213.747,55.535z"/>
	<path id="XMLID_61_" class="st1" d="M234.058,62.293l-2.16-36.656l11.548-0.681l2.16,36.656L234.058,62.293z"/>
	<path id="XMLID_63_" class="st1" d="M276.926,58.439c-1.093,1.595-2.595,2.786-4.506,3.576c-1.913,0.789-4.334,1.037-7.263,0.743
		c-1.337-0.134-2.606-0.39-3.807-0.767c-1.201-0.377-2.315-0.891-3.343-1.541c-2.092-1.271-3.686-3.022-4.78-5.255
		s-1.485-4.925-1.169-8.076c0.156-1.561,0.461-2.993,0.912-4.299c0.453-1.306,1.038-2.484,1.754-3.539
		c1.493-2.068,3.412-3.565,5.756-4.488s4.965-1.239,7.863-0.949c2.482,0.249,4.551,0.866,6.205,1.853
		c1.654,0.985,2.907,2.357,3.761,4.115l1.315-13.135l11.176,1.119l-3.659,36.537l-10.029-1.005L276.926,58.439z M275.408,53.607
		c1.254-0.807,1.975-2.133,2.16-3.98c0.193-1.942-0.271-3.492-1.393-4.649c-1.122-1.158-2.781-1.847-4.979-2.066
		c-2.324-0.233-4.104,0.111-5.338,1.032c-1.234,0.923-1.947,2.354-2.142,4.296c-0.186,1.847,0.249,3.29,1.303,4.327
		c1.054,1.039,2.727,1.673,5.019,1.902C272.363,54.701,274.152,54.415,275.408,53.607z"/>
	<path id="XMLID_66_" class="st1" d="M321.488,64.789l-26.093-7.904l3.146-10.382l26.092,7.904L321.488,64.789z"/>
	<path id="XMLID_68_" class="st1" d="M354.479,91.648l-30.013-15.839l16.063-30.438l29.376,15.504l-4.188,7.938l-19.613-10.351
		l-2.15,4.074l17.531,9.253l-3.203,6.071l-17.532-9.254l-2.173,4.118l20.248,10.687L354.479,91.648z"/>
	<path id="XMLID_70_" class="st1" d="M390.731,89.643l-15.52,18.744l-9.096-7.53l15.521-18.745l-8.578-7.102l6.429-7.764
		l26.546,21.979l-6.43,7.765L390.731,89.643z"/>
	<path id="XMLID_72_" class="st1" d="M413.07,132.264l-8.736-11.205l-9.463,7.379l-7.172-9.198l27.141-21.162l7.172,9.198
		l-9.576,7.467l8.736,11.205l9.576-7.467l7.113,9.123l-27.142,21.161l-7.112-9.123L413.07,132.264z"/>
	<path id="XMLID_74_" class="st1" d="M420.044,165.319l6.993-2.676c2.032-0.778,3.865-0.982,5.496-0.612
		c1.632,0.368,3.122,1.152,4.471,2.349c1.367,1.156,2.627,2.567,3.779,4.234c1.15,1.666,2.242,3.398,3.273,5.197
		c1.469,2.589,2.722,4.586,3.755,5.989s2.044,1.916,3.03,1.538c0.867-0.331,1.377-1.014,1.529-2.049
		c0.152-1.034-0.184-2.628-1.007-4.78c-0.972-2.54-2.064-4.229-3.274-5.068c-1.213-0.838-2.571-0.986-4.077-0.444l-4.151-10.85
		c4.391-1.509,8.274-1.187,11.65,0.966c3.375,2.151,6.219,6.246,8.527,12.282c0.744,1.943,1.305,3.742,1.681,5.396
		c0.376,1.655,0.568,3.166,0.579,4.533c0.057,2.753-0.494,4.984-1.653,6.696c-1.163,1.712-2.788,2.969-4.88,3.769
		c-0.896,0.343-1.767,0.556-2.608,0.639c-0.842,0.081-1.642,0.028-2.399-0.161c-1.498-0.421-2.93-1.296-4.293-2.624
		c-1.365-1.327-2.768-3.069-4.209-5.225c-0.692-1.003-1.332-1.957-1.918-2.863c-0.588-0.906-1.141-1.773-1.664-2.602
		c-0.992-1.607-1.893-2.934-2.703-3.977c-0.811-1.044-1.621-1.685-2.432-1.922l8.886,23.222l-9.191,3.517L420.044,165.319z"/>
</g>
<g id="XMLID_11_">
</g>
<g id="XMLID_13_">
</g>
<g id="XMLID_12_">
	<path id="XMLID_16_" class="st1" d="M60.184,271.664l-4.751,16.128l-4.751-16.128c-1.228-4.166-3.53-7.96-6.69-11.024
		s-7.072-5.296-11.368-6.487l-16.638-4.613l16.632-4.607c4.296-1.191,8.209-3.423,11.368-6.487c3.16-3.064,5.462-6.858,6.69-11.024
		l4.757-16.134l4.751,16.128c1.228,4.166,3.53,7.96,6.69,11.024c3.16,3.064,7.072,5.296,11.368,6.487l16.638,4.613l-16.632,4.607
		c-4.296,1.191-8.209,3.423-11.368,6.487c-3.16,3.064-5.462,6.858-6.69,11.024L60.184,271.664z"/>
</g>
<g id="XMLID_15_">
	<path id="XMLID_14_" class="st1" d="M454.184,271.664l-4.751,16.128l-4.751-16.128c-1.228-4.166-3.53-7.96-6.69-11.024
		s-7.072-5.296-11.368-6.487l-16.638-4.613l16.632-4.607c4.296-1.191,8.209-3.423,11.368-6.487s5.462-6.858,6.69-11.024
		l4.757-16.134l4.751,16.128c1.228,4.166,3.53,7.96,6.69,11.024s7.072,5.296,11.368,6.487l16.638,4.613l-16.632,4.607
		c-4.296,1.191-8.209,3.423-11.368,6.487c-3.16,3.064-5.462,6.858-6.69,11.024L454.184,271.664z"/>
</g>
<line id="XMLID_81_" class="st3" x1="490.333" y1="176.667" x2="459" y2="176.667"/>
</svg>
