<?xml version="1.0" encoding="utf-8"?>
<!-- Generator: Adobe Illustrator 19.0.0, SVG Export Plug-In . SVG Version: 6.00 Build 0)  -->
<svg version="1.1" id="Layer_1" xmlns="http://www.w3.org/2000/svg" xmlns:xlink="http://www.w3.org/1999/xlink" x="0px" y="0px"
	 viewBox="-238 209 482 143" style="enable-background:new -238 209 482 143;" xml:space="preserve">
<style type="text/css">
	.st0{fill:#FFFFFF;}
	.st1{fill:#A8E7F4;}
	.st2{fill:#088484;}
	.st3{fill:#29B8B8;fill-opacity:0.9624;}
	.st4{fill:#009E9E;}
	.st5{fill:#017171;}
</style>
<g>
	<path class="st0" d="M-194.5,333c0.1-0.2,0.2-0.4,0.3-0.6C-194.3,332.6-194.4,332.8-194.5,333z"/>
	<path class="st1" d="M207.7,243.2h-18.5v22.2h3.8v11.1h7.4v-11.1h7.4V243.2z"/>
	<path class="st2" d="M155.9,239.4h-3.8v3.8h3.8V239.4z"/>
	<path class="st2" d="M181.8,232.1h-7.4v3.8h-3.8h-3.8v3.6h-3.6v3.8h-7.4v3.6h14.8v-3.6h3.8h3.6v-3.8h3.8h3.6v-3.6v-3.8H181.8z"/>
	<path class="st3" d="M207.7,250.6h-3.8v3.8h3.8V250.6z"/>
	<path class="st4" d="M204.1,258h-3.8v3.8h3.8V258z"/>
	<path class="st3" d="M196.7,250.6h-3.8v3.8h3.8V250.6z"/>
	<path class="st2" d="M207.7,239.4v-3.6h-3.8h-3.6h-3.8h-3.3h-0.3h-3.8v3.6h-3.8v3.8h-3.6v3.6v3.6v0.1v3.5h3.6v3.5v0.3v3.5h3.8v-3.5
		v-0.3v-3.5v-3.5v-0.1v-3.6h3.8v-3.6h0.3h3.3h3.8h3.6h3.5h0.3h3.8v-3.8H207.7z"/>
	<path class="st3" d="M189.2,235.8h-3.8v3.8h3.8V235.8z"/>
	<path class="st3" d="M185.6,239.4h-3.8v3.8h3.8V239.4z"/>
	<path class="st3" d="M203.9,276.5v-7.4h-3.6v7.4h-7.4v-7.4h-3.8v7.4v0.7v14.2h14.8V276.5z"/>
	<path class="st1" d="M203.9,291.4h-14.8v3.8h14.8V291.4z"/>
	<path class="st5" d="M185.4,295h18.5v3.8h3.8v11.1h-7.4v-3.8h-7.4v3.8h-7.5v-3.8V295z"/>
	<path class="st1" d="M207.7,269.1h-3.8v7.4h3.8V269.1z"/>
	<path class="st1" d="M215.1,276.5h-7.4v3.8h7.4V276.5z"/>
	<path class="st1" d="M189.2,276.5v-7.4h-3.8v3.8h-3.8v3.8h3.8h3.8V276.5z"/>
	<path class="st1" d="M181.8,276.5H178v7.4h3.8V276.5z"/>
	<path class="st1" d="M218.9,272.9h-3.8v3.8h3.8V272.9z"/>
	<path class="st1" d="M185.6,283.9h-3.8v3.8h3.8V283.9z"/>
	<path class="st1" d="M185.4,309.9h-3.8v3.8h3.8h3.8v-3.8H185.4z"/>
	<path class="st2" d="M181.8,309.9H178v7.4h3.8V309.9z"/>
	<path class="st1" d="M200.3,309.9v3.6h3.6v3.6v3.8h3.8v-3.8v-3.6v-0.1v-3.5H200.3z"/>
	<path class="st2" d="M211.3,320.9h-7.4v3.8h7.4V320.9z"/>
	<path class="st2" d="M-204.8,278.9c3.6,2.1,8.7,3.3,14.2,3.3c13.3,0,20.9-4.6,20.9-12.6c0-8.5-7.4-13.2-21-13.2
		c-1.1,0-1.8-0.6-1.8-1.7c0-0.9,0.8-1.6,1.9-1.6c1.1,0,1.8,0.7,1.8,1.6c0,0.4,0.3,0.5,0.5,0.5h17.8c0.2,0,0.4-0.1,0.4-0.3
		c0-3.8-2.1-7-6-9.3c-3.6-2.1-8.7-3.2-14.2-3.2c-11.5,0-20.9,5.8-20.9,13.1c0,7.8,7.6,12.2,20.7,12.3c1.5,0,2.4,0.7,2.4,1.9
		c0,0.9-0.8,1.6-1.8,1.6c-1.2,0-1.9-0.7-1.9-1.8c0-0.2-0.2-0.3-0.4-0.3h-18.3c-0.2,0-0.4,0.1-0.4,0.3
		C-210.8,273.3-208.7,276.6-204.8,278.9z"/>
	<path class="st2" d="M-139.5,269.8c7.5,0,13.4-6.1,13.4-14c0-7.5-6-13.5-13.4-13.5h-24.9c-0.1,0-0.2,0-0.2,0.3V282
		c0,0.1,0,0.2,0.2,0.2h18.2c0.2,0,0.3-0.1,0.3-0.3v-11.8v-0.3h0.3H-139.5z M-146.2,258.7h-0.4v-0.4v-4.3v-0.4h0.4h1.2
		c1.4,0,2.6,1.1,2.6,2.5c0,1.4-1.1,2.5-2.6,2.5L-146.2,258.7L-146.2,258.7z"/>
	<path class="st2" d="M-82.5,282.2c0.2,0,0.2-0.1,0.2-0.2v-11c0-0.1,0-0.2-0.2-0.2h-20.4c-0.2,0-0.3-0.1-0.3-0.3v-2
		c0-0.2,0.1-0.3,0.3-0.3h13.2c0.1,0,0.2,0,0.2-0.2v-11.2c0-0.2-0.1-0.2-0.2-0.2h-13.2c-0.2,0-0.3-0.1-0.3-0.3v-2
		c0-0.2,0.1-0.3,0.3-0.3h20.4c0.2,0,0.2-0.1,0.2-0.2v-11.1c0-0.2-0.1-0.2-0.2-0.2H-121c-0.2,0-0.2,0.2-0.2,0.2V282
		c0,0.1,0.1,0.2,0.2,0.2H-82.5z"/>
	<path class="st2" d="M-38.6,242.3h-38.5c-0.2,0-0.2,0.2-0.2,0.2V282c0,0.1,0.1,0.2,0.2,0.2h38.5c0.2,0,0.2-0.1,0.2-0.2v-11
		c0-0.1,0-0.2-0.2-0.2h-20.4c-0.2,0-0.3-0.1-0.3-0.3v-2c0-0.2,0.1-0.3,0.3-0.3h13.2c0.1,0,0.2,0,0.2-0.2v-11.2
		c0-0.2-0.1-0.2-0.2-0.2h-13.2c-0.2,0-0.3-0.1-0.3-0.3v-2c0-0.2,0.1-0.3,0.3-0.3h20.4c0.2,0,0.2-0.1,0.2-0.2v-11c0-0.1,0-0.1,0-0.2
		C-38.4,242.4-38.4,242.3-38.6,242.3z"/>
	<path class="st2" d="M-14.7,242.3h-18.5c-0.2,0-0.2,0.2-0.2,0.2V282c0,0.1,0.1,0.2,0.2,0.2h18.4c11,0,19.9-8.9,19.9-19.9
		C5.1,251.3-3.8,242.3-14.7,242.3z M-14.5,264.5h-1.4h-0.4v-0.4v-4.8V259h0.4h1.4c1.5,0,2.8,1.3,2.8,2.8S-12.9,264.5-14.5,264.5z"/>
	<path class="st2" d="M40.1,268.2l-0.2-0.3l0.4-0.1c4.8-2,8-7,8-12.2c0-7.8-5.6-13.2-13.6-13.2H10.3c-0.1,0-0.2,0.1-0.2,0.2v39.3
		c0,0.2,0.1,0.2,0.2,0.2h16.4c0.1,0,0.2-0.1,0.2-0.2v-7.2l3.8,7.4c0.1,0.1,0.1,0.1,0.2,0.1h18.3c0.1,0,0.2,0,0.2-0.1
		c0.1-0.1,0.1-0.2,0-0.2L40.1,268.2z M28.2,258.1h-1.1h-0.4v-0.4v-4.2v-0.4h0.4h1.1c1.4,0,2.6,1.1,2.6,2.5
		C30.8,257,29.7,258.1,28.2,258.1z"/>
	<path class="st2" d="M74.6,282.2c11.2,0,20.3-8.9,20.3-19.8v-19.8c0-0.2-0.1-0.2-0.2-0.2H76.6c-0.1,0-0.2,0.1-0.2,0.2v19.5
		c0,1-0.8,1.7-1.7,1.7S73,263,73,262.1v-19.5c0-0.2-0.1-0.2-0.2-0.2H54.7c-0.1,0-0.2,0.1-0.2,0.2v19.8
		C54.3,273.3,63.4,282.2,74.6,282.2z"/>
	<path class="st2" d="M118.7,261.7c0.2,0,0.4,0.2,0.4,0.4l2.6,19.9c0.1,0.1,0.1,0.2,0.2,0.2h18.2c0.1,0,0.2-0.1,0.2-0.2v-39.4
		c0-0.2-0.2-0.2-0.2-0.2h-18.1c-0.1,0-0.2,0.1-0.2,0.2V262c0,0.2-0.2,0.4-0.4,0.4c-0.2,0-0.4-0.2-0.4-0.4l-2.5-19.4
		c0-0.1-0.1-0.2-0.3-0.2H100c-0.1,0-0.2,0.1-0.2,0.2v39.4c0,0.1,0.1,0.2,0.2,0.2h18.1c0.1,0,0.2-0.1,0.2-0.2v-19.9
		C118.4,261.9,118.5,261.7,118.7,261.7z"/>
	<path class="st2" d="M-210,324.8h37.2c0.2,0,0.2-0.1,0.2-0.2v-10.8c0-0.1,0-0.2-0.2-0.2h-19.8h-0.3v-0.3v-1.9v-0.3h0.3h12.7
		c0.1,0,0.2,0,0.2-0.2V300c0-0.2-0.1-0.2-0.2-0.2h-12.7h-0.3v-0.3v-1.9v-0.4h0.3h19.7c0.2,0,0.2-0.1,0.2-0.2v-10.8
		c0-0.2-0.1-0.2-0.2-0.2H-210c-0.2,0-0.2,0.1-0.2,0.2v38.4C-210.3,324.7-210.2,324.8-210,324.8z"/>
	<path class="st2" d="M-131.4,305.3c0.1,0,0.2-0.1,0.2-0.2v-19c0-0.1-0.1-0.2-0.2-0.2h-37.9c-0.1,0-0.2,0.1-0.2,0.2v19
		c0,0.1,0.1,0.2,0.2,0.2h9.8h0.3v0.3v19c0,0.1,0.1,0.2,0.2,0.2h17.4c0.1,0,0.2-0.1,0.2-0.2v-19v-0.3h0.3H-131.4z"/>
	<path class="st2" d="M-105.7,324.5c0,0.2,0.1,0.2,0.2,0.2h17.8c0.1,0,0.2-0.1,0.2-0.2v-38.4c0-0.1-0.1-0.2-0.2-0.2h-17.8
		c-0.1,0-0.2,0.1-0.2,0.2v13.6v0.3h-0.3h-2.3h-0.3v-0.3v-13.6c0-0.1-0.1-0.2-0.2-0.2h-17.8c-0.1,0-0.2,0.1-0.2,0.2v38.4
		c0,0.1,0.1,0.2,0.2,0.2h17.8c0.2,0,0.2-0.1,0.2-0.2v-12.7v-0.2h0.3h2.3h0.3v0.3V324.5z"/>
	<path class="st2" d="M-81.6,324.8h37.2c0.2,0,0.2-0.1,0.2-0.2v-10.8c0-0.1,0-0.2-0.2-0.2h-19.7h-0.3v-0.3v-1.9v-0.3h0.3h12.7
		c0.1,0,0.2,0,0.2-0.2V300c0-0.2-0.1-0.2-0.2-0.2h-12.7h-0.3v-0.3v-1.9v-0.4h0.3h19.7c0.2,0,0.2-0.1,0.2-0.2v-10.8
		c0-0.2-0.1-0.2-0.2-0.2h-37.2c-0.2,0-0.2,0.1-0.2,0.2v38.4C-81.9,324.7-81.7,324.8-81.6,324.8z"/>
	<path class="st2" d="M-10,311.2l-0.2-0.3l0.4-0.1c4.6-2,7.7-6.8,7.7-11.9c0-7.6-5.4-12.9-13.1-12.9h-23.5c-0.2,0-0.2,0.1-0.2,0.2
		v38.4c0,0.2,0.1,0.2,0.2,0.2H-23c0.2,0,0.2-0.1,0.2-0.2v-6.3l3.7,6.4c0.1,0.1,0.1,0.1,0.2,0.1h17.8c0.1,0,0.2,0,0.2-0.1
		c0.1-0.1,0.1-0.1,0-0.2L-10,311.2z M-21.5,301.3h-1.1H-23V301v-4.2v-0.4h0.4h1.1c1.4,0,2.6,1.1,2.6,2.5
		C-18.9,300.2-20.1,301.3-21.5,301.3z"/>
	<path class="st2" d="M3,324.8h37.2c0.2,0,0.2-0.1,0.2-0.2v-10.8c0-0.1,0-0.2-0.2-0.2H20.6h-0.3v-0.3v-1.9v-0.3h0.3h12.6
		c0.1,0,0.2,0,0.2-0.2V300c0-0.2-0.1-0.2-0.2-0.2H20.5h-0.3v-0.3v-1.9v-0.4h0.3h19.7c0.2,0,0.2-0.1,0.2-0.2v-10.8
		c0-0.2-0.1-0.2-0.2-0.2H3c-0.2,0-0.2,0.1-0.2,0.2v38.4C2.8,324.7,2.9,324.8,3,324.8z"/>
	<path class="st2" d="M83.7,286.2c0-0.2-0.1-0.2-0.2-0.2H66c-0.1,0-0.2,0.1-0.2,0.2v19c0,1-0.7,1.7-1.7,1.7s-1.7-0.7-1.7-1.7v-19
		c0-0.1-0.1-0.2-0.2-0.2H44.9c-0.2,0-0.2,0.1-0.2,0.2v19.3c0,10.6,8.8,19.3,19.6,19.3c10.8,0,19.6-8.7,19.6-19.3v-19.3H83.7z"/>
	<path class="st2" d="M134.8,324.8h17.3c0.1,0,0.2-0.1,0.2-0.2v-38.4c0-0.1-0.1-0.2-0.2-0.2H124c-0.1,0-0.1,0-0.2,0.3l-2.4,8.7
		c-0.1,0.4-0.4,0.7-0.9,0.7c-0.4,0-0.7-0.2-0.9-0.7l-2.4-8.7c-0.1-0.3-0.1-0.3-0.2-0.3H89c-0.1,0-0.2,0.1-0.2,0.2v38.4
		c0,0.1,0.1,0.2,0.2,0.2h17.3c0.1,0,0.2-0.1,0.2-0.2v-13.8c0-0.4,0.4-0.9,0.8-0.9c0.4,0,0.8,0.3,1,0.8l4.3,14c0,0.1,0.1,0.1,0.1,0.1
		s0.1,0,0.1,0h15.8c0.1,0,0.1,0,0.1,0c0,0,0-0.1,0.1-0.1l4.3-14c0.1-0.5,0.5-0.8,1-0.8c0.5,0,0.8,0.5,0.8,0.9v13.8
		C134.6,324.7,134.7,324.8,134.8,324.8z"/>
</g>
</svg>
