<svg width="281" height="162" viewBox="0 0 281 162" fill="none" xmlns="http://www.w3.org/2000/svg">
<path d="M25.9631 138.143C25.6828 138.037 25.6442 137.898 25.6442 137.779C25.6442 137.587 25.6913 137.534 25.7239 137.494C25.7565 137.447 25.8496 137.348 26.1298 137.209C29.8194 135.124 31.6955 132.027 31.6955 128.016C31.6955 124.006 30.398 121.167 27.8381 119.035C25.2914 116.878 21.8326 115.78 17.55 115.78H0V160.512H17.5367C21.9788 160.512 25.5294 159.413 28.07 157.256C30.6711 155.085 31.9867 151.961 31.9867 147.965C31.9867 143.041 29.9583 139.731 25.9559 138.137L25.9631 138.143ZM22.9308 133.273C21.5874 134.298 19.5651 134.815 16.9254 134.815H6.7037V121.838H16.9254C19.5651 121.838 21.5874 122.354 22.9368 123.38C24.2996 124.387 24.9918 126.047 24.9918 128.324C24.9918 130.601 24.3008 132.262 22.9368 133.268L22.9308 133.273ZM6.7037 140.87H16.9254C19.7318 140.87 21.8532 141.406 23.2425 142.471C24.6064 143.478 25.2974 145.225 25.2974 147.66C25.2974 150.096 24.6064 151.87 23.2425 152.908C21.8592 153.934 19.7318 154.451 16.9254 154.451H6.7037V140.864V140.87Z" fill="#182232"/>
<path d="M61.0547 144.9C61.0547 148.58 60.203 151.392 58.5334 153.258C56.9109 155.071 54.5238 155.991 51.4516 155.991C48.7455 155.991 46.6506 155.256 45.2263 153.8C43.8019 152.345 43.0783 150.174 43.0783 147.355V128.057H36.9931V148.276C36.9931 152.425 38.1831 155.688 40.5244 157.978C42.8657 160.269 46.1239 161.433 50.2145 161.433C54.6361 161.433 58.0671 159.93 60.3951 156.999L60.7007 156.694C60.7672 156.628 60.8349 156.589 60.8808 156.589C61.0197 156.589 61.0463 156.615 61.0463 156.754V160.52H67.1314V128.058H61.0463V144.901H61.0547V144.9Z" fill="#182232"/>
<path d="M80.1133 128.057H74.0281V160.512H80.1133V128.057Z" fill="#182232"/>
<path d="M77.0677 115.668C74.9197 115.668 73.1704 117.409 73.1704 119.552V119.798C73.1704 121.935 74.9197 123.682 77.0677 123.682C79.2157 123.682 80.965 121.941 80.965 119.798V119.552C80.965 117.416 79.2157 115.668 77.0677 115.668Z" fill="#182232"/>
<path d="M112.612 131.823C112.612 132.048 112.546 132.048 112.446 132.048C112.386 132.048 112.214 132.048 111.973 131.71C109.427 128.672 105.782 127.13 101.161 127.13C98.4137 127.13 95.8006 127.778 93.3868 129.062C90.967 130.307 88.9592 132.239 87.4225 134.814C85.9257 137.382 85.1682 140.565 85.1682 144.278C85.1682 147.991 85.9257 151.175 87.4285 153.749C88.9652 156.317 90.9731 158.269 93.3941 159.559C95.8078 160.804 98.4209 161.433 101.167 161.433C105.795 161.433 109.433 159.89 111.994 156.84C112.22 156.522 112.399 156.522 112.459 156.522C112.552 156.522 112.624 156.522 112.624 156.747V160.513H118.71V115.781H112.624V131.823H112.612ZM109.912 135.694C111.907 137.719 112.918 140.611 112.918 144.284C112.918 147.957 111.907 150.877 109.906 152.941C107.952 154.965 105.318 155.992 102.079 155.992C98.8414 155.992 96.1812 154.967 94.1926 152.948C92.2379 150.884 91.2401 147.965 91.2401 144.292C91.2401 140.619 92.2307 137.72 94.1866 135.695C96.1812 133.631 98.8341 132.585 102.073 132.585C105.311 132.585 107.944 133.631 109.9 135.695H109.912V135.694Z" fill="#182232"/>
<path d="M131.618 115.781H125.533V160.513H131.618V115.781Z" fill="#182232"/>
<path d="M152.698 123.087C155.112 121.644 157.952 120.916 161.138 120.916C165.447 120.916 168.745 121.988 170.946 124.092C173.149 126.203 174.432 129.082 174.751 132.643L174.771 132.881H181.46L181.447 132.603C181.322 129.546 180.502 126.64 179.007 123.954C177.51 121.261 175.229 119.057 172.244 117.409C169.297 115.715 165.661 114.854 161.438 114.854C156.849 114.854 152.76 115.834 149.282 117.773C145.796 119.673 143.064 122.413 141.155 125.92C139.292 129.421 138.348 133.53 138.348 138.136C138.348 142.742 139.273 146.853 141.094 150.352C142.963 153.859 145.677 156.626 149.161 158.565C152.639 160.458 156.768 161.424 161.444 161.424C167.368 161.424 172.057 159.895 175.381 156.871C178.753 153.846 180.469 149.624 180.469 144.336V139.71H157.48V145.766H173.766C173.706 148.625 172.721 150.947 170.834 152.675C168.878 154.462 165.827 155.368 161.764 155.368C158.293 155.368 155.259 154.66 152.766 153.257C150.272 151.814 148.337 149.782 147.014 147.228C145.724 144.614 145.065 141.556 145.065 138.135C145.065 134.713 145.737 131.722 147.073 129.108C148.403 126.508 150.299 124.476 152.713 123.079L152.698 123.087Z" fill="#182232"/>
<path d="M209.896 144.9C209.896 148.58 209.045 151.392 207.376 153.258C205.754 155.071 203.367 155.991 200.293 155.991C197.58 155.991 195.492 155.256 194.069 153.8C192.646 152.345 191.921 150.174 191.921 147.355V128.057H185.836V148.276C185.836 152.425 187.026 155.688 189.374 157.978C191.716 160.269 194.974 161.433 199.063 161.433C203.486 161.433 206.923 159.93 209.244 156.999L209.551 156.694C209.617 156.628 209.684 156.589 209.73 156.589C209.87 156.589 209.896 156.615 209.896 156.754V160.52H215.982V128.058H209.896V144.9Z" fill="#182232"/>
<path d="M228.955 128.057H222.87V160.512H228.955V128.057Z" fill="#182232"/>
<path d="M225.91 115.668C223.762 115.668 222.005 117.409 222.005 119.552V119.798C222.005 121.935 223.755 123.682 225.91 123.682C228.064 123.682 229.813 121.941 229.813 119.798V119.552C229.812 117.416 228.064 115.668 225.91 115.668Z" fill="#182232"/>
<path d="M261.453 131.823C261.453 132.048 261.386 132.048 261.286 132.048C261.227 132.048 261.054 132.048 260.814 131.71C258.267 128.672 254.624 127.13 250.001 127.13C247.255 127.13 244.642 127.778 242.229 129.062C239.808 130.307 237.8 132.239 236.263 134.814C234.767 137.382 234.009 140.565 234.009 144.278C234.009 147.991 234.767 151.175 236.27 153.749C237.806 156.317 239.815 158.269 242.235 159.559C244.648 160.804 247.261 161.433 250.009 161.433C254.637 161.433 258.274 159.89 260.834 156.84C261.06 156.522 261.24 156.522 261.299 156.522C261.393 156.522 261.466 156.522 261.466 156.747V160.513H267.551V115.781H261.466V131.823H261.453ZM258.754 135.694C260.749 137.719 261.76 140.611 261.76 144.284C261.76 147.957 260.749 150.877 258.747 152.941C256.792 154.965 254.158 155.992 250.921 155.992C247.682 155.992 245.022 154.967 243.033 152.948C241.078 150.884 240.081 147.965 240.081 144.292C240.081 140.619 241.072 137.72 243.027 135.695C245.022 133.631 247.676 132.585 250.914 132.585C254.152 132.585 256.786 133.631 258.741 135.695H258.754V135.694Z" fill="#182232"/>
<path d="M280.46 115.781H274.375V160.513H280.46V115.781Z" fill="#182232"/>
<path d="M171.716 33.5883V93.0911H146.824V75.5681C146.824 67.8692 140.586 61.6274 132.921 61.6274C125.257 61.6274 119.019 67.8692 119.019 75.5681V93.0911H94.2312V33.5883H108.738V42.1858C108.738 45.8652 111.724 48.8404 115.387 48.8404C119.05 48.8404 122.036 45.8652 122.036 42.1858V33.5883H143.797V42.1494C143.797 45.8288 146.783 48.804 150.446 48.804C154.109 48.804 157.095 45.8288 157.095 42.1494V33.5883H171.716Z" fill="#182232"/>
<path d="M129.54 2.22423V39.1462H136.009V22.5926C136.009 22.5926 137.662 19.1927 143.688 20.6925C151.662 22.6773 161.486 21.3323 167.792 9.91801C148.681 16.2124 148.17 -5.41755 129.54 2.22423Z" fill="#182232"/>
</svg>
