<?xml version="1.0" encoding="utf-8"?>
<!-- Generator: Adobe Illustrator 19.0.0, SVG Export Plug-In . SVG Version: 6.00 Build 0)  -->
<svg version="1.1" id="Layer_1" xmlns="http://www.w3.org/2000/svg" xmlns:xlink="http://www.w3.org/1999/xlink" x="0px" y="0px"
	 viewBox="-109 170 281 162" style="enable-background:new -109 170 281 162;" xml:space="preserve">
<style type="text/css">
	.st0{fill:#7F8CFF;}
</style>
<path class="st0" d="M-83.037,308.143c-0.28-0.106-0.319-0.245-0.319-0.364c0-0.192,0.047-0.245,0.08-0.285
	c0.033-0.047,0.126-0.146,0.406-0.285c3.69-2.085,5.566-5.182,5.566-9.193c0-4.01-1.297-6.849-3.857-8.981
	c-2.547-2.157-6.006-3.255-10.288-3.255H-109v44.732h17.537c4.442,0,7.993-1.099,10.533-3.256c2.601-2.171,3.917-5.295,3.917-9.291
	c0-4.924-2.028-8.234-6.031-9.828L-83.037,308.143z M-86.069,303.273c-1.343,1.025-3.366,1.542-6.005,1.542h-10.222v-12.977h10.222
	c2.64,0,4.662,0.516,6.011,1.542c1.363,1.007,2.055,2.667,2.055,4.944s-0.691,3.938-2.055,4.944L-86.069,303.273z M-102.296,310.87
	h10.222c2.806,0,4.928,0.536,6.317,1.601c1.364,1.007,2.055,2.754,2.055,5.189c0,2.436-0.691,4.21-2.055,5.248
	c-1.383,1.026-3.511,1.543-6.317,1.543h-10.222v-13.587V310.87z"/>
<path class="st0" d="M-47.945,314.9c0,3.68-0.852,6.492-2.521,8.358c-1.623,1.813-4.01,2.733-7.082,2.733
	c-2.706,0-4.801-0.735-6.225-2.191c-1.424-1.455-2.148-3.626-2.148-6.445v-19.298h-6.085v20.219c0,4.149,1.19,7.412,3.531,9.702
	c2.341,2.291,5.6,3.455,9.69,3.455c4.422,0,7.853-1.503,10.181-4.434l0.306-0.305c0.067-0.066,0.134-0.105,0.18-0.105
	c0.139,0,0.166,0.026,0.166,0.165v3.766h6.085v-32.462h-6.085v16.843h0.008V314.9z"/>
<path class="st0" d="M-28.887,298.057h-6.085v32.455h6.085V298.057z"/>
<path class="st0" d="M-31.932,285.668c-2.148,0-3.897,1.741-3.897,3.884v0.246c0,2.137,1.749,3.884,3.897,3.884
	c2.148,0,3.897-1.741,3.897-3.884v-0.246C-28.035,287.416-29.784,285.668-31.932,285.668z"/>
<path class="st0" d="M3.612,301.823c0,0.225-0.066,0.225-0.166,0.225c-0.06,0-0.232,0-0.473-0.338
	c-2.546-3.038-6.191-4.58-10.812-4.58c-2.747,0-5.36,0.648-7.774,1.932c-2.42,1.245-4.428,3.177-5.964,5.752
	c-1.497,2.568-2.254,5.751-2.254,9.464c0,3.713,0.757,6.897,2.26,9.471c1.537,2.568,3.545,4.52,5.966,5.81
	c2.414,1.245,5.027,1.874,7.773,1.874c4.628,0,8.266-1.543,10.827-4.593c0.226-0.318,0.405-0.318,0.465-0.318
	c0.093,0,0.165,0,0.165,0.225v3.766H9.71v-44.732H3.624v16.042H3.612z M0.912,305.694c1.995,2.025,3.006,4.917,3.006,8.59
	s-1.011,6.593-3.012,8.657c-1.954,2.024-4.588,3.051-7.827,3.051c-3.238,0-5.898-1.025-7.886-3.044
	c-1.955-2.064-2.952-4.983-2.952-8.656c0-3.673,0.991-6.572,2.947-8.597c1.995-2.064,4.647-3.11,7.886-3.11
	c3.238,0,5.871,1.046,7.827,3.11h0.012V305.694z"/>
<path class="st0" d="M22.618,285.781h-6.085v44.732h6.085V285.781z"/>
<path class="st0" d="M43.698,293.087c2.414-1.443,5.254-2.171,8.44-2.171c4.309,0,7.607,1.072,9.808,3.176
	c2.203,2.111,3.486,4.99,3.805,8.551l0.02,0.238h6.689l-0.013-0.278c-0.125-3.057-0.945-5.963-2.44-8.649
	c-1.497-2.693-3.778-4.897-6.763-6.545c-2.947-1.694-6.583-2.555-10.806-2.555c-4.589,0-8.678,0.98-12.156,2.919
	c-3.486,1.9-6.218,4.64-8.127,8.147c-1.863,3.501-2.807,7.61-2.807,12.216c0,4.606,0.925,8.717,2.746,12.216
	c1.869,3.507,4.583,6.274,8.067,8.213c3.478,1.893,7.607,2.859,12.283,2.859c5.924,0,10.613-1.529,13.937-4.553
	c3.372-3.025,5.088-7.247,5.088-12.535v-4.626H48.48v6.056h16.286c-0.06,2.859-1.045,5.181-2.932,6.909
	c-1.956,1.787-5.007,2.693-9.07,2.693c-3.471,0-6.505-0.708-8.998-2.111c-2.494-1.443-4.429-3.475-5.752-6.029
	c-1.29-2.614-1.949-5.672-1.949-9.093c0-3.422,0.672-6.413,2.008-9.027c1.33-2.6,3.226-4.632,5.64-6.029L43.698,293.087z"/>
<path class="st0" d="M100.896,314.9c0,3.68-0.851,6.492-2.52,8.358c-1.622,1.813-4.009,2.733-7.083,2.733
	c-2.713,0-4.801-0.735-6.224-2.191c-1.423-1.455-2.148-3.626-2.148-6.445v-19.298h-6.085v20.219c0,4.149,1.19,7.412,3.538,9.702
	c2.342,2.291,5.6,3.455,9.689,3.455c4.423,0,7.86-1.503,10.181-4.434l0.307-0.305c0.066-0.066,0.133-0.105,0.179-0.105
	c0.14,0,0.166,0.026,0.166,0.165v3.766h6.086v-32.462h-6.086V314.9z"/>
<path class="st0" d="M119.955,298.057h-6.085v32.455h6.085V298.057z"/>
<path class="st0" d="M116.91,285.668c-2.148,0-3.905,1.741-3.905,3.884v0.246c0,2.137,1.75,3.884,3.905,3.884
	c2.154,0,3.903-1.741,3.903-3.884v-0.246C120.812,287.416,119.064,285.668,116.91,285.668z"/>
<path class="st0" d="M152.453,301.823c0,0.225-0.067,0.225-0.167,0.225c-0.059,0-0.232,0-0.472-0.338
	c-2.547-3.038-6.19-4.58-10.813-4.58c-2.746,0-5.359,0.648-7.772,1.932c-2.421,1.245-4.429,3.177-5.966,5.752
	c-1.496,2.568-2.254,5.751-2.254,9.464c0,3.713,0.758,6.897,2.261,9.471c1.536,2.568,3.545,4.52,5.965,5.81
	c2.413,1.245,5.026,1.874,7.774,1.874c4.628,0,8.265-1.543,10.825-4.593c0.226-0.318,0.406-0.318,0.465-0.318
	c0.094,0,0.167,0,0.167,0.225v3.766h6.085v-44.732h-6.085v16.042H152.453z M149.754,305.694c1.995,2.025,3.006,4.917,3.006,8.59
	s-1.011,6.593-3.013,8.657c-1.955,2.024-4.589,3.051-7.826,3.051c-3.239,0-5.899-1.025-7.888-3.044
	c-1.955-2.064-2.952-4.983-2.952-8.656c0-3.673,0.991-6.572,2.946-8.597c1.995-2.064,4.649-3.11,7.887-3.11
	c3.238,0,5.872,1.046,7.827,3.11h0.013V305.694z"/>
<path class="st0" d="M171.46,285.781h-6.085v44.732h6.085V285.781z"/>
<path class="st0" d="M62.716,203.588v59.503H37.824v-17.523c0-7.699-6.238-13.941-13.903-13.941
	c-7.664,0-13.902,6.242-13.902,13.941v17.523h-24.788v-59.503h14.507v8.597c0,3.679,2.986,6.655,6.649,6.655
	s6.649-2.975,6.649-6.655v-8.597h21.761v8.561c0,3.679,2.986,6.655,6.649,6.655s6.649-2.975,6.649-6.655v-8.561H62.716z"/>
<path class="st0" d="M20.54,172.224v36.922h6.469v-16.554c0,0,1.653-3.4,7.679-1.9c7.974,1.985,17.798,0.64,24.104-10.774
	C39.681,186.212,39.17,164.582,20.54,172.224z"/>
</svg>
