<?xml version="1.0" encoding="utf-8"?>
<!-- Generator: Adobe Illustrator 19.0.0, SVG Export Plug-In . SVG Version: 6.00 Build 0)  -->
<svg version="1.1" id="Layer_1" xmlns="http://www.w3.org/2000/svg" xmlns:xlink="http://www.w3.org/1999/xlink" x="0px" y="0px"
	 viewBox="0 0 500 500" style="enable-background:new 0 0 500 500;" xml:space="preserve">
<style type="text/css">
	.st0{fill:#F1F0ED;}
	.st1{fill:#2A2A2C;}
</style>
<g id="XMLID_269_">
	<path id="XMLID_270_" class="st0" d="M474.5,248.6l-24.4-7.5c-2.5-0.8-5-0.9-7.5-0.6c-2.5-6.3-8.7-10.8-15.9-10.8h-15.8
		c-1,0-1.9,0.1-2.9,0.2c-0.9-0.2-1.9-0.2-2.9-0.2h-6.1c-7.1,0-13.2,4.3-15.8,10.5c-2.4-6.7-8.7-11.4-16.2-11.4h-8.4
		c-8,0-14.7,5.5-16.6,12.9c-0.3,0-0.6,0-0.9,0h-6.1c-2,0-3.9,0.3-5.7,1c-1.8-0.6-3.7-1-5.7-1h-2.9c-5.3-6.5-13.4-10.4-23.1-10.4
		h-0.3c-6.6,0-12.4,1.8-17.1,4.9c-3.1-3.9-8-6.4-13.4-6.4H251c-1,0-1.9,0.1-2.9,0.2c-0.9-0.2-1.9-0.2-2.9-0.2h-6.1
		c-7.1,0-13.2,4.3-15.8,10.5c-2.4-6.7-8.7-11.4-16.2-11.4h-8.4c-8,0-14.7,5.5-16.6,12.9c-0.3,0-0.6,0-0.9,0h-6.1c-2,0-3.9,0.4-5.7,1
		c-1.8-0.6-3.7-1-5.7-1h-2.6c-5-6.2-13.1-9.9-22.8-9.9H134c0.1-1.8-0.1-3.6-0.6-5.4c-1.5-5.6-5.7-9.9-11-11.7
		c-2.3-2.5-6.4-5.8-12.9-6.5c0,0-0.1,0-0.1,0c-1.6-0.2-3-0.2-4.4-0.1c-3.3-3.7-8.2-6-13.6-6c-10.1,0-18.3,8.2-18.3,18.3v13.3h-2.4
		c-5.7,0-10.7,2.8-13.8,7c-0.5,0.1-0.9,0.2-1.4,0.4l-24.4,7.5c-7.2,2.2-12.1,8.9-12.1,16.4v7.5c0,7.5,4.9,14.2,12.1,16.4l24.4,7.5
		c1.6,0.5,3.3,0.8,5,0.8c2.1,0,4.2-0.4,6.2-1.2c3.2,4.3,8.3,6.9,13.7,6.9c0.1,0,0.2,0,0.3,0l10.9-0.2l10.9,0.2c0.1,0,0.2,0,0.3,0
		c4.2,0,8.3-1.6,11.4-4.3c3.1,3,7.3,4.8,11.9,4.8h13.7c5.1,0,9.7-1,13.7-2.9c3.8,2.2,8.3,3.5,13.3,3.5h0.2c2.1,0,4.1-0.2,6.1-0.7
		c0.7,0.1,1.4,0.1,2.2,0.1h6.1c4.5,0,8.6-1.7,11.7-4.6c4.1,2.9,9.2,4.6,14.8,4.6h8.2c2,0,4-0.4,5.8-1c2.8,1,5.9,1.5,9.2,1.5h0.1
		c2.1,0,4.2-0.2,6.1-0.7c0.7,0.1,1.4,0.1,2.2,0.1h5.9c3.9,0,7.4-1.3,10.3-3.4c3.7,2.2,8.2,3.4,13,3.4h9.7c2.4,0,4.7-0.5,6.8-1.4
		c3.2,1.3,6.8,1.9,10.7,1.9h0.3c2.3,0,4.4-0.2,6.4-0.7c0.7,0.1,1.4,0.1,2.1,0.1h5.7c2.3,0,4.5-0.5,6.5-1.3c3,1.2,6.3,1.8,9.9,1.8
		h0.2c2.1,0,4.1-0.2,6.1-0.7c0.7,0.1,1.4,0.1,2.2,0.1h6.1c4.5,0,8.6-1.7,11.7-4.6c4.1,2.9,9.2,4.6,14.8,4.6h8.2c2,0,4-0.4,5.8-1
		c2.8,1,5.9,1.5,9.2,1.5h0.1c2.1,0,4.2-0.2,6.1-0.7c0.7,0.1,1.4,0.1,2.2,0.1h5.9c3.9,0,7.4-1.3,10.3-3.4c3.7,2.2,8.2,3.4,13,3.4h9.7
		c6,0,11.2-3,14.3-7.7l22.1-6.8c7.2-2.2,12.1-8.9,12.1-16.4V265C486.7,257.5,481.7,250.9,474.5,248.6L474.5,248.6z"/>
</g>
<path id="XMLID_268_" class="st1" d="M92.7,253.7v-33.2c0-0.6-0.5-1.1-1.1-1.1c-0.6,0-1.1,0.5-1.1,1.1v33.2c0,0.6,0.5,1.1,1.1,1.1
	C92.2,254.8,92.7,254.3,92.7,253.7z"/>
<path id="XMLID_267_" class="st1" d="M80.6,285.7l-9.7-18.2v-16.6h6.2v8.3h9v-8.3h5.8v34.6L80.6,285.7z"/>
<path id="XMLID_266_" class="st1" d="M102.9,285.7l9.7-18.2v-16.6h-6.2v8.3h-8.9v-8.3h-5.8v34.6L102.9,285.7z"/>
<path id="XMLID_265_" class="st1" d="M91.8,221.1c2.4,0,4.8,4.7,7.7,5.4c2.8,0.7,4.1-1.6,8.1-1.1c3.6,0.4,3.2,5.3,9.3,5.7
	c-2.2,1.6-5.3,3.7-10,3.3c-3.6-0.3-4.6-2.7-8.6-1.8c-4.1,0.8-5,3.4-6.4,3.8C91.8,228.7,91.8,221.1,91.8,221.1z"/>
<path id="XMLID_255_" class="st1" d="M60.7,274.7l-19-5.6v-0.7l19-5.6v-5.3L36.3,265v7.5l24.4,7.5V274.7z M231.1,286.8
	c4.1,0,6.5-2.1,7.7-4.9h0.6v4.4h5.9V247h-6.1v16h-0.6c-1.3-2.6-3.6-4.6-7.7-4.6h-0.2c-5.9,0-9.6,4.7-9.6,12.8v3.1
	c0,8.1,3.6,12.6,9.7,12.6H231.1z M232.9,281.2c-3.8,0-5.7-2.6-5.7-7.4v-2.5c0-4.8,1.9-7.4,5.7-7.4h0.2c4,0,6.1,2.6,6.1,7.4v2.5
	c0,4.9-2.1,7.4-6.1,7.4H232.9z M268.6,280.9c-1.5,0-1.8-0.4-1.8-1.7V247H251v5.3h9.7v26.2c0,4.5,2.9,7.7,7.8,7.7h9.7v-5.3H268.6z
	 M390.9,286.8c4.1,0,6.5-2.1,7.7-4.9h0.6v4.4h5.9V247h-6.1v16h-0.6c-1.3-2.6-3.6-4.6-7.7-4.6h-0.2c-5.9,0-9.6,4.7-9.6,12.8v3.1
	c0,8.1,3.6,12.6,9.7,12.6H390.9z M392.8,281.2c-3.8,0-5.7-2.6-5.7-7.4v-2.5c0-4.8,1.9-7.4,5.7-7.4h0.2c4,0,6.1,2.6,6.1,7.4v2.5
	c0,4.9-2.1,7.4-6.1,7.4H392.8z M428.5,280.9c-1.5,0-1.8-0.4-1.8-1.7V247h-15.8v5.3h9.7v26.2c0,4.5,2.9,7.7,7.8,7.7h9.7v-5.3H428.5z
	 M469.5,272.6V265l-24.4-7.5v5.3l19,5.6v0.7l-19,5.6v5.3L469.5,272.6z"/>
<path id="XMLID_243_" class="st1" d="M144.6,266.7c3.3-1.1,5.2-3.6,5.2-7.5v-0.4c0-6.1-4.1-9.7-11.4-9.7h-12.3v37.2h13.7
	c7.2,0,11.4-3.6,11.4-10.1v-0.4c0-4.7-2.5-7.4-6.6-8.4V266.7z M138.6,254.7c3.9,0,5.3,1.3,5.3,4.7v0.2c0,3.6-1.3,5-5.3,5h-6.5v-9.9
	H138.6z M145.2,275.5c0,3.7-1.4,5.1-5.3,5.1h-7.8v-10.5h7.8c3.9,0,5.3,1.4,5.3,5.1V275.5z M175.3,258.9v15.6c0,4-2.2,6.7-6.3,6.7
	h-0.2c-3,0-4.9-1.6-4.9-5.5v-16.7h-6.1v17.2c0,6.9,3.7,10.6,9.1,10.6h0.2c3.7,0,6.4-1.7,7.7-4.6h0.6v4h6.1v-27.3H175.3z
	 M198.8,246.1v8h8.4v-8H198.8z M207.8,280.9c-1.4,0-1.8-0.4-1.8-1.7v-20.2h-15.9v5.4h9.8v14.2c0,4.5,2.9,7.7,7.8,7.7h8.1v-5.3H207.8
	z M304.2,273v0.2c0,6.2-2.7,8.2-6.7,8.2h-0.3c-4.5,0-6.6-2-6.6-8.2v-11c0-6.2,2.1-8.2,6.7-8.2h0.3c4.5,0,6.6,2,6.6,8.2h6.1
	c0-9.1-5.2-13.6-12.7-13.6h-0.3c-7.5,0-12.7,4.5-12.7,13.6v11c0,9.1,4.4,13.6,11.2,13.6h0.3c4.3,0,6.7-1.6,8-4.9h0.6v4.3h5.7v-18.8
	h-12.1v5.6H304.2z M335.1,258.9v15.6c0,4-2.2,6.7-6.3,6.7h-0.2c-3,0-4.9-1.6-4.9-5.5v-16.7h-6.1v17.2c0,6.9,3.7,10.6,9.1,10.6h0.2
	c3.7,0,6.4-1.7,7.7-4.6h0.6v4h6.1v-27.3H335.1z M358.7,246.1v8h8.4v-8H358.7z M367.7,280.9c-1.4,0-1.7-0.4-1.7-1.7v-20.2H350v5.4
	h9.8v14.2c0,4.5,2.9,7.7,7.8,7.7h8.1v-5.3H367.7z"/>
</svg>
