<?xml version="1.0" encoding="utf-8"?>
<!-- Generator: Adobe Illustrator 19.0.0, SVG Export Plug-In . SVG Version: 6.00 Build 0)  -->
<svg version="1.1" id="Layer_1" xmlns="http://www.w3.org/2000/svg" xmlns:xlink="http://www.w3.org/1999/xlink" x="0px" y="0px"
	 viewBox="0 0 500 500" style="enable-background:new 0 0 500 500;" xml:space="preserve">
<style type="text/css">
	.st0{fill:#F1F0ED;}
	.st1{fill:#2A2A2C;}
	.st2{fill:#8A94F5;}
	.st3{fill:#E6C6A8;}
	.st4{fill:#D6E2A1;}
	.st5{fill:#F9D7BB;}
	.st6{fill:#F7AF7F;}
	.st7{fill:#B6BCF2;}
	.st8{fill:#F2AC7C;}
	.st9{fill:#ECF4BD;}
	.st10{fill:#C0D560;}
	.st11{fill:#182232;}
</style>
<path id="XMLID_25_" class="st0" d="M372.573,256.568c0,8.672-1.53,10.33-3.826,15.048l-99.981,207.613
	c-9.565,19.894-37.875,19.894-47.567,0L118.796,267.79c-1.785-3.571-2.678-7.524-2.678-11.35c0-3.953,0.893-7.779,2.678-11.35
	l0.255-0.638L221.199,33.652c9.564-19.894,38.003-19.894,47.567,0l99.981,207.613C371.043,246.111,372.573,249.299,372.573,256.568z
	"/>
<path id="XMLID_24_" class="st0" d="M119.051,244.453l-0.255,0.638c-1.785,3.571-2.678,7.524-2.678,11.35
	C116.118,252.36,117.01,248.279,119.051,244.453L119.051,244.453z"/>
<path id="XMLID_23_" class="st1" d="M247.47,69.997L247.47,69.997L247.47,69.997L247.47,69.997z M338.396,256.568L338.396,256.568
	L338.396,256.568L338.396,256.568z"/>
<path id="XMLID_22_" class="st1" d="M246.832,59.922c-0.638-1.403-2.678-1.403-3.316,0l-95.645,197.539
	c-0.893,1.913-0.893,4.081,0,5.994l97.685,193.458c0.765,1.403,2.678,1.403,3.316,0l91.692-196.646c0.893-1.785,0.893-3.953,0-5.739
	L246.832,59.922z M330.617,242.668l-38.768-50.883L252.061,79.689L330.617,242.668z M335.718,255.548l-79.449,14.793l34.305-73.965
	L335.718,255.548z M288.151,192.677l-35.325,76.133l-5.101-190.142L288.151,192.677z M245.684,441.099l-37.62-101.256l43.359-60.703
	L245.684,441.099z M255.121,281.181l33.539,59.682l-39.023,98.961L255.121,281.181z M247.47,69.869L247.47,69.869L247.47,69.869
	L247.47,69.869z M248.745,259.629l-38.258-67.589l33.412-115.029L248.745,259.629z M250.658,270.724l-96.283-11.095l53.816-64.018
	L250.658,270.724z M240.456,75.098l-33.667,116.177l-53.306,63.253L240.456,75.098z M152.335,263.2c-0.128,0-0.255,0-0.383-0.128
	l-0.255-0.383l0.893-0.638l0.893,1.275l96.538,11.095L205.896,336.4l-52.286-73.073L152.335,263.2z M159.604,278.248l44.634,62.233
	l0,0l36.6,98.451L159.604,278.248z M247.215,451.684L247.215,451.684L247.215,451.684L247.215,451.684z M258.947,426.434
	l33.539-85.06l29.076-49.225L258.947,426.434z M290.701,336.782l-35.07-62.36l-0.383,0.128v-0.638l0.383,0.638l80.724-15.176
	L290.701,336.782z M338.396,256.568L338.396,256.568L338.396,256.568L338.396,256.568z"/>
<polygon id="XMLID_21_" class="st2" points="250.02,274.422 205.896,336.4 153.61,263.327 "/>
<polygon id="XMLID_20_" class="st3" points="240.838,439.059 159.604,278.248 204.238,340.481 204.238,340.608 "/>
<polygon id="XMLID_19_" class="st4" points="321.435,292.276 258.947,426.434 292.487,341.501 "/>
<polygon id="XMLID_18_" class="st4" points="288.533,340.863 249.51,439.824 255.121,281.181 "/>
<polygon id="XMLID_17_" class="st5" points="336.483,259.374 290.701,336.782 255.632,274.422 "/>
<polygon id="XMLID_16_" class="st6" points="335.718,255.548 256.269,270.469 290.574,196.376 "/>
<polygon id="XMLID_15_" class="st7" points="330.617,242.668 291.849,191.785 252.188,79.689 "/>
<polygon id="XMLID_14_" class="st8" points="240.456,75.098 206.789,191.275 153.483,254.655 "/>
<polygon id="XMLID_13_" class="st9" points="288.151,192.677 252.826,268.811 247.725,78.669 "/>
<path id="XMLID_12_" class="st1" d="M152.59,261.924l-0.893,0.638l0.255,0.383c0.128,0,0.255,0.128,0.383,0.128l1.275,0.128
	L152.59,261.924z M247.47,69.997L247.47,69.997L247.47,69.997L247.47,69.997z M255.376,273.784v0.638l0.383-0.128L255.376,273.784z"
	/>
<polygon id="XMLID_11_" class="st7" points="250.658,270.724 154.248,259.501 208.192,195.61 "/>
<polygon id="XMLID_10_" class="st10" points="248.745,259.629 210.487,192.04 243.899,77.011 "/>
<polygon id="XMLID_9_" class="st9" points="251.296,279.14 245.684,441.099 208.064,339.971 "/>
<g id="XMLID_7_">
	<path id="XMLID_8_" class="st1" d="M153.61,263.327l-1.275-0.128c-0.128,0-0.255,0-0.383-0.128l-0.255-0.383l0.893-0.638
		L153.61,263.327z"/>
</g>
<g id="XMLID_5_">
	<polygon id="XMLID_6_" class="st1" points="255.632,274.422 255.249,274.549 255.376,273.784 	"/>
</g>
<g id="XMLID_3_">
	<path id="XMLID_4_" class="st1" d="M338.396,256.568L338.396,256.568L338.396,256.568z"/>
</g>
<g id="XMLID_1_">
	<path id="XMLID_2_" class="st1" d="M338.396,256.568L338.396,256.568L338.396,256.568z"/>
</g>
<path id="XMLID_48_" class="st0" d="M63.277,286.637c8.176-0.392,15.299,0,15.299,0c8.847,0,18.192,2.275,25.92,8.829
	c2.673,2.247,4.847,4.765,6.57,7.465h1.301c4.628,0,8.88,1.615,12.221,4.312c2.516-2.032,5.549-3.449,8.871-4.025
	c1.394-9.383,9.484-16.581,19.255-16.581h10.591c9.502,0,17.415,6.807,19.125,15.811c1.409-0.272,2.835-0.469,4.275-0.591
	c1.937-8.709,9.71-15.22,19.003-15.22h7.333c1.755,0,3.456,0.232,5.073,0.667c1.617-0.435,3.318-0.667,5.073-0.667h7.331
	c4.872,0,9.325,1.789,12.74,4.746c7.719-4.17,16.163-5.968,24.775-5.968c8.08,0,16.267,1.622,23.687,5.867
	c5.198,2.911,9.789,6.775,13.399,11.65h3.223c4.629,0,18.424-2.805,22.326-4.598c6.167-2.833,8.251-11.697,18.022-11.697h10.591
	c9.502,0,17.414,6.807,19.125,15.811c1.408-0.272,2.834-0.469,4.273-0.591c1.938-8.709,9.711-15.22,19.004-15.22h7.331
	c1.756,0,3.456,0.232,5.073,0.667c1.618-0.435,3.318-0.667,5.073-0.667h7.333c10.752,0,15.64,8.716,15.64,19.468v58.659
	c0,10.752-4.888,19.468-15.64,19.468h-7.333c-1.755,0-3.455-0.232-5.073-0.667c-1.617,0.435-3.317,0.667-5.073,0.667h-7.331
	c-1.324,0-2.617-0.131-3.867-0.384c-3.759,1.097-7.676,1.607-11.613,1.607c-6.35,0-12.495-1.404-18.206-4.197
	c-2.997,1.885-6.545,2.974-10.348,2.974h-7.333c-1.765,0-3.475-0.235-5.101-0.675c-1.626,0.44-3.336,0.675-5.101,0.675h-7.333
	c-1.199,0-2.373-0.108-3.512-0.315c-3.619,1.051-7.383,1.538-11.152,1.538c-7.954,0-16.27-2.037-23.274-7.503
	c-8.095,5.485-17.549,7.503-26.812,7.503c-8.628,0-17.126-1.736-24.893-5.867c-3.399,2.897-7.806,4.644-12.621,4.644h-7.331
	c-1.755,0-3.456-0.232-5.073-0.667c-1.617,0.435-3.318,0.667-5.073,0.667h-7.333c-1.324,0-2.617-0.131-3.867-0.384
	c-3.759,1.097-7.676,1.607-11.613,1.607c-6.35,0-12.495-1.404-18.204-4.197c-2.998,1.885-6.546,2.974-10.349,2.974h-7.331
	c-1.765,0-3.476-0.235-5.102-0.675c-1.626,0.44-3.336,0.675-5.101,0.675h-7.333c-1.199,0-2.373-0.108-3.512-0.315
	c-3.618,1.051-7.383,1.538-11.152,1.538c-7.518,0-15.362-1.82-22.113-6.638c-6.774,4.012-14.338,5.415-21.454,5.415H55.764
	c-7.136,0-14.985-4.786-15.132-11.304c-0.425-18.916,0-46.122-0.213-69.927C40.277,286.97,54.448,287.06,63.277,286.637z"/>
<path id="XMLID_44_" class="st11" d="M58.3,306.327h22.414c5.496,0,9.873,1.388,13.129,4.163c3.254,2.722,4.883,6.538,4.883,11.447
	c0,5.123-2.349,9.019-7.045,11.687c-0.32,0.16-0.534,0.32-0.64,0.48c-0.107,0.107-0.161,0.294-0.161,0.56
	c0,0.374,0.213,0.64,0.64,0.8c5.07,2.028,7.606,6.191,7.606,12.488c0,5.123-1.655,9.072-4.963,11.847
	c-3.256,2.775-7.738,4.163-13.449,4.163H58.3V306.327z M79.913,331.142c3.522,0,6.191-0.694,8.006-2.081
	c1.867-1.387,2.802-3.629,2.802-6.724c0-3.095-0.935-5.337-2.802-6.724c-1.815-1.387-4.483-2.081-8.006-2.081H66.305v17.611H79.913z
	 M79.913,356.758c3.736,0,6.538-0.694,8.405-2.081c1.868-1.441,2.802-3.816,2.802-7.124c0-3.309-0.933-5.657-2.802-7.044
	c-1.867-1.441-4.669-2.161-8.405-2.161H66.305v18.411H79.913z"/>
<path id="XMLID_43_" class="st11" d="M145.135,363.963h-7.204V359.4c0-0.374-0.187-0.56-0.56-0.56c-0.161,0-0.321,0.08-0.481,0.24
	c-0.107,0.107-0.24,0.24-0.4,0.4c-2.988,3.789-7.311,5.684-12.968,5.684c-5.23,0-9.339-1.468-12.328-4.403
	c-2.988-2.935-4.483-7.071-4.483-12.408v-26.016h7.205v24.816c0,3.789,0.96,6.671,2.881,8.645c1.922,1.975,4.697,2.962,8.326,2.962
	c4.109,0,7.258-1.227,9.446-3.682c2.241-2.508,3.362-6.217,3.362-11.127v-21.614h7.204V363.963z"/>
<path id="XMLID_40_" class="st11" d="M162.365,322.337v41.626h-7.205v-41.626H162.365z M163.965,306.327v9.606h-10.406v-9.606
	H163.965z"/>
<path id="XMLID_37_" class="st11" d="M170.008,343.15c0-4.803,0.96-8.859,2.881-12.168c1.975-3.309,4.509-5.764,7.606-7.365
	c3.095-1.654,6.403-2.482,9.925-2.482c5.924,0,10.513,1.948,13.769,5.844c0.267,0.374,0.56,0.56,0.88,0.56
	c0.374,0,0.561-0.214,0.561-0.64v-20.573h7.204v57.636h-7.204V359.4c0-0.427-0.187-0.64-0.561-0.64c-0.32,0-0.613,0.187-0.88,0.56
	c-3.256,3.896-7.845,5.844-13.769,5.844c-3.522,0-6.83-0.8-9.925-2.402c-3.096-1.654-5.63-4.136-7.606-7.445
	C170.968,352.008,170.008,347.953,170.008,343.15z M177.212,343.15c0,4.91,1.307,8.752,3.923,11.527
	c2.668,2.722,6.163,4.083,10.487,4.083c4.323,0,7.792-1.361,10.406-4.083c2.669-2.775,4.003-6.617,4.003-11.527
	c0-4.91-1.334-8.725-4.003-11.447c-2.614-2.775-6.083-4.163-10.406-4.163c-4.323,0-7.819,1.388-10.487,4.163
	C178.519,334.424,177.212,338.24,177.212,343.15z"/>
<path id="XMLID_36_" class="st11" d="M230.008,306.327v57.636h-7.205v-57.636H230.008z"/>
<path id="XMLID_35_" class="st11" d="M237.25,335.145c0-5.977,1.2-11.234,3.601-15.77c2.455-4.536,5.924-8.032,10.407-10.487
	c4.483-2.508,9.686-3.762,15.609-3.762c5.443,0,10.059,1.094,13.848,3.282c3.842,2.135,6.724,4.936,8.646,8.405
	c1.921,3.469,2.961,7.178,3.122,11.127h-8.005c-0.427-4.75-2.108-8.539-5.044-11.367c-2.936-2.829-7.258-4.243-12.968-4.243
	c-4.216,0-7.924,0.961-11.127,2.882c-3.202,1.868-5.684,4.536-7.445,8.005c-1.761,3.469-2.641,7.445-2.641,11.927
	c0,4.536,0.853,8.539,2.561,12.008c1.761,3.416,4.296,6.084,7.606,8.005c3.308,1.868,7.258,2.802,11.847,2.802
	c5.389,0,9.392-1.201,12.008-3.602c2.614-2.401,3.921-5.604,3.921-9.606h-21.132v-7.204h29.137v5.683
	c0,6.831-2.16,12.194-6.483,16.09c-4.27,3.896-10.22,5.844-17.851,5.844c-6.031,0-11.287-1.227-15.77-3.682
	c-4.483-2.508-7.924-6.03-10.327-10.567C238.423,346.378,237.25,341.122,237.25,335.145z"/>
<path id="XMLID_34_" class="st11" d="M337.694,363.963h-7.205V359.4c0-0.374-0.186-0.56-0.56-0.56c-0.159,0-0.32,0.08-0.481,0.24
	c-0.106,0.107-0.24,0.24-0.399,0.4c-2.989,3.789-7.312,5.684-12.968,5.684c-5.23,0-9.34-1.468-12.328-4.403
	c-2.989-2.935-4.483-7.071-4.483-12.408v-26.016h7.204v24.816c0,3.789,0.96,6.671,2.882,8.645c1.921,1.975,4.696,2.962,8.325,2.962
	c4.109,0,7.258-1.227,9.446-3.682c2.242-2.508,3.362-6.217,3.362-11.127v-21.614h7.205V363.963z"/>
<path id="XMLID_31_" class="st11" d="M354.922,322.337v41.626h-7.204v-41.626H354.922z M356.524,306.327v9.606h-10.406v-9.606
	H356.524z"/>
<path id="XMLID_28_" class="st11" d="M362.565,343.15c0-4.803,0.96-8.859,2.882-12.168c1.974-3.309,4.509-5.764,7.604-7.365
	c3.095-1.654,6.404-2.482,9.927-2.482c5.924,0,10.513,1.948,13.768,5.844c0.268,0.374,0.561,0.56,0.881,0.56
	c0.374,0,0.56-0.214,0.56-0.64v-20.573h7.205v57.636h-7.205V359.4c0-0.427-0.186-0.64-0.56-0.64c-0.32,0-0.613,0.187-0.881,0.56
	c-3.254,3.896-7.844,5.844-13.768,5.844c-3.522,0-6.832-0.8-9.927-2.402c-3.095-1.654-5.63-4.136-7.604-7.445
	C363.525,352.008,362.565,347.953,362.565,343.15z M369.77,343.15c0,4.91,1.307,8.752,3.921,11.527
	c2.669,2.722,6.165,4.083,10.487,4.083c4.323,0,7.792-1.361,10.407-4.083c2.668-2.775,4.002-6.617,4.002-11.527
	c0-4.91-1.334-8.725-4.002-11.447c-2.616-2.775-6.084-4.163-10.407-4.163c-4.322,0-7.817,1.388-10.487,4.163
	C371.077,334.424,369.77,338.24,369.77,343.15z"/>
<path id="XMLID_27_" class="st11" d="M423.093,306.539v57.636h-7.204v-57.636H423.093z"/>
</svg>
