<?xml version="1.0" encoding="utf-8"?>
<!-- Generator: Adobe Illustrator 19.0.0, SVG Export Plug-In . SVG Version: 6.00 Build 0)  -->
<svg version="1.1" id="Layer_1" xmlns="http://www.w3.org/2000/svg" xmlns:xlink="http://www.w3.org/1999/xlink" x="0px" y="0px"
	 viewBox="0 0 500 500" style="enable-background:new 0 0 500 500;" xml:space="preserve">
<style type="text/css">
	.st0{fill:#F1F0ED;}
	.st1{fill:#2A2A2C;}
	.st2{fill:#8A94F5;}
	.st3{fill:#E6C6A8;}
	.st4{fill:#D6E2A1;}
	.st5{fill:#F9D7BB;}
	.st6{fill:#F7AF7F;}
	.st7{fill:#B6BCF2;}
	.st8{fill:#F2AC7C;}
	.st9{fill:#ECF4BD;}
	.st10{fill:#C0D560;}
	.st11{fill:#182232;}
</style>
<g id="XMLID_18_">
	<path id="XMLID_39_" class="st0" d="M398.415,259.306c0,8.446-1.488,10.06-3.731,14.661L297.268,476.25
		c-9.316,19.387-36.897,19.387-46.339,0l-97.946-202.217c-1.006-2.077-2.127-4.094-3.242-6.114
		c-5.494-9.957-3.729-18.722-7.807-21.701c-6.911-5.048-15.976-7.897-23.693-11.598c-8.961-4.28-5.047-12.143-2.873-17.167
		c2.003-4.658,4.166-8.515,4.166-8.515c2.415-4.921,6.226-9.499,11.971-12.017c1.98-0.87,3.971-1.396,5.951-1.625l0.355-0.721
		c1.259-2.575,3.319-4.498,5.722-5.619c-0.446-1.957-0.401-4.029,0.183-6.031c-4.841-3.342-6.638-9.797-3.983-15.233l2.896-5.894
		c2.586-5.287,8.526-7.84,14.008-6.34c0.229-0.858,0.504-1.705,0.835-2.529c-4.326-3.456-5.825-9.556-3.296-14.729l2.003-4.074
		c0.481-0.973,1.064-1.865,1.751-2.644c0.195-1.019,0.538-2.026,1.007-2.998l2.003-4.086c1.328-2.712,3.536-4.704,6.111-5.791
		c-0.217-5.436,1.087-10.621,3.433-15.416c2.197-4.498,5.333-8.606,9.717-11.582c3.044-2.094,6.443-3.594,10.14-4.28l0.87-1.785
		c1.167-2.369-3.273-8.389-2.083-10.197c0.195,0.698,0.515,1.328,0.961,1.854c0.286,0.938,0.652,1.659,0.893,0.824
		c-0.343-0.24-0.641-0.515-0.893-0.824c-0.252-0.755-0.469-1.694-0.572-2.197c0.011-0.011,0.023-0.023,0.034-0.023
		c-0.114-0.504-0.114-0.412-0.034,0.023c-0.172,0.08-0.309,0.195-0.389,0.343c-1.362-4.589,1.865-12.314,4.017-16.698l2.884-5.894
		c2.598-5.287,8.538-7.828,14.008-6.329c0.24-0.858,0.515-1.705,0.835-2.541c-4.315-3.445-5.814-9.545-3.285-14.718l2.003-4.074
		c0.469-0.984,1.064-1.865,1.751-2.644c0.195-1.019,0.526-2.026,1.007-3.01l2.003-4.074c2.93-5.986,9.11-6.329,15.095-3.399
		c0,0,21.849,10.754,31.066,15.362c2.439,1.22,5.212,1.458,7.874,0.868c10.935-2.423,23.26,2.215,28.881,13.915l97.417,202.283
		C396.928,249.109,398.415,252.222,398.415,259.306z"/>
	<path id="XMLID_73_" class="st0" d="M151.397,247.499l-0.249,0.621c-1.74,3.479-2.609,7.331-2.609,11.059
		C148.539,255.203,149.409,251.227,151.397,247.499L151.397,247.499z"/>
	<path id="XMLID_72_" class="st1" d="M276.522,77.518L276.522,77.518L276.522,77.518L276.522,77.518z M365.115,259.303
		L365.115,259.303L365.115,259.303L365.115,259.303z"/>
	<path id="XMLID_71_" class="st1" d="M275.9,67.702c-0.621-1.367-2.609-1.367-3.231,0l-93.191,192.471
		c-0.87,1.864-0.87,3.976,0,5.84l95.179,188.495c0.746,1.367,2.609,1.367,3.231,0l89.339-191.601c0.87-1.74,0.87-3.852,0-5.591
		L275.9,67.702z M357.536,245.76l-37.774-49.578l-38.768-109.22L357.536,245.76z M362.506,258.309l-77.411,14.414l33.425-72.068
		L362.506,258.309z M316.159,197.052l-34.419,74.18l-4.97-185.264L316.159,197.052z M274.782,439.101l-36.655-98.659l42.247-59.145
		L274.782,439.101z M283.977,283.285l32.679,58.151l-38.022,96.422L283.977,283.285z M276.522,77.394L276.522,77.394L276.522,77.394
		L276.522,77.394z M277.764,262.286l-37.277-65.855l32.555-112.078L277.764,262.286z M279.628,273.096l-93.813-10.81l52.436-62.376
		L279.628,273.096z M269.688,82.488l-32.803,113.196l-51.939,61.631L269.688,82.488z M184.946,265.889l94.061,10.81l-42.992,60.388
		l-50.945-71.198 M190.91,280.427l43.489,60.637l0,0l35.661,95.925L190.91,280.427z M276.273,449.414L276.273,449.414
		L276.273,449.414L276.273,449.414z M287.705,424.811l32.679-82.878l28.33-47.962L287.705,424.811z M318.644,337.46l-34.17-60.761
		l-0.373,0.124v-0.621l0.373,0.621l78.653-14.786L318.644,337.46z M365.115,259.303L365.115,259.303L365.115,259.303
		L365.115,259.303z"/>
	<polygon id="XMLID_70_" class="st2" points="279.007,276.699 236.014,337.087 185.07,265.889 	"/>
	<polygon id="XMLID_69_" class="st3" points="270.06,437.113 190.91,280.427 234.399,341.063 234.399,341.188 	"/>
	<polygon id="XMLID_68_" class="st4" points="348.59,294.095 287.705,424.811 320.384,342.057 	"/>
	<polygon id="XMLID_67_" class="st4" points="316.532,341.436 278.51,437.858 283.977,283.285 	"/>
	<polygon id="XMLID_66_" class="st5" points="363.252,262.037 318.644,337.46 284.474,276.699 	"/>
	<polygon id="XMLID_65_" class="st6" points="362.506,258.309 285.095,272.847 318.52,200.655 	"/>
	<polygon id="XMLID_64_" class="st7" points="357.536,245.76 319.762,196.182 281.119,86.962 	"/>
	<polygon id="XMLID_63_" class="st8" points="269.688,82.488 236.884,195.685 184.946,257.44 	"/>
	<polygon id="XMLID_62_" class="st9" points="316.159,197.052 281.74,271.232 276.77,85.968 	"/>
	<polygon id="XMLID_60_" class="st7" points="279.628,273.096 185.372,262.309 238.251,199.91 	"/>
	<polygon id="XMLID_59_" class="st10" points="277.764,262.286 240.488,196.43 273.042,84.352 	"/>
	<polygon id="XMLID_58_" class="st9" points="280.249,281.297 274.782,439.101 238.127,340.566 	"/>
	<g id="XMLID_52_">
		<path id="XMLID_53_" class="st1" d="M365.115,259.303L365.115,259.303L365.115,259.303z"/>
	</g>
	<g id="XMLID_50_">
		<path id="XMLID_51_" class="st1" d="M365.115,259.303L365.115,259.303L365.115,259.303z"/>
	</g>
	<path id="XMLID_17_" class="st0" d="M190.089,77.2c-0.446-0.526-0.767-1.156-0.961-1.854c0.08-0.149,0.217-0.263,0.389-0.343
		C189.62,75.506,189.837,76.444,190.089,77.2z"/>
	<path id="XMLID_82_" class="st11" d="M124.961,225.583l6.109-12.471c1.498-3.058,3.463-5.115,5.894-6.17
		c2.401-1.069,4.968-0.935,7.7,0.403c2.85,1.396,4.378,3.765,4.583,7.105c0.002,0.222,0.032,0.385,0.093,0.487
		c0.03,0.089,0.12,0.169,0.268,0.242c0.208,0.102,0.414,0.056,0.62-0.138c2.51-2.268,5.517-2.545,9.021-0.828
		c2.85,1.396,4.597,3.393,5.239,5.99c0.657,2.568,0.207,5.44-1.349,8.617l-6.109,12.471L124.961,225.583z M144.658,220.321
		c0.96-1.96,1.301-3.634,1.024-5.021c-0.263-1.417-1.255-2.548-2.978-3.391c-1.722-0.844-3.224-0.934-4.505-0.274
		c-1.267,0.632-2.38,1.927-3.34,3.887l-3.709,7.571l9.798,4.8L144.658,220.321z M158.91,227.302
		c1.018-2.078,1.396-3.827,1.133-5.243c-0.293-1.432-1.359-2.599-3.2-3.5c-1.841-0.902-3.402-1.022-4.683-0.361
		c-1.311,0.646-2.475,2.009-3.493,4.087l-3.709,7.571l10.244,5.018L158.91,227.302z"/>
	<path id="XMLID_13_" class="st11" d="M180.693,192.978l-1.963,4.008l-2.539-1.244c-0.208-0.102-0.363-0.048-0.464,0.159
		c-0.044,0.089-0.043,0.201,0.003,0.333c0.03,0.089,0.068,0.199,0.114,0.332c1.294,2.695,1.17,5.617-0.372,8.764
		c-1.425,2.91-3.362,4.796-5.809,5.659c-2.447,0.863-5.156,0.567-8.125-0.887l-14.475-7.09l1.964-4.009l13.807,6.763
		c2.108,1.033,3.973,1.284,5.595,0.753c1.622-0.531,2.928-1.806,3.917-3.825c1.12-2.286,1.295-4.372,0.526-6.259
		c-0.785-1.93-2.543-3.565-5.275-4.903l-12.025-5.89l1.963-4.008L180.693,192.978z"/>
	<path id="XMLID_78_" class="st11" d="M162.229,172.047l23.16,11.344l-1.964,4.009l-23.16-11.344L162.229,172.047z M153.758,166.793
		l5.345,2.618l-2.836,5.79l-5.345-2.618L153.758,166.793z"/>
	<path id="XMLID_75_" class="st11" d="M175.892,173.467c-2.672-1.309-4.667-2.949-5.985-4.919c-1.303-2.001-1.978-4.08-2.025-6.239
		c-0.077-2.173,0.364-4.239,1.324-6.199c1.614-3.296,3.949-5.318,7.004-6.068c0.281-0.046,0.464-0.159,0.552-0.337
		c0.102-0.208,0.034-0.37-0.203-0.487l-11.446-5.607l1.963-4.008l32.067,15.708l-1.963,4.008l-2.539-1.244
		c-0.237-0.116-0.407-0.07-0.509,0.138c-0.087,0.178-0.063,0.392,0.072,0.642c1.28,2.873,1.113,5.958-0.501,9.253
		c-0.96,1.96-2.307,3.582-4.041,4.868c-1.764,1.272-3.836,2.005-6.215,2.203C181.083,175.347,178.564,174.776,175.892,173.467z
		 M177.856,169.459c2.732,1.338,5.226,1.658,7.482,0.959c2.241-0.743,3.951-2.317,5.129-4.722c1.178-2.405,1.366-4.706,0.565-6.902
		c-0.817-2.241-2.591-4.031-5.322-5.369c-2.732-1.338-5.218-1.636-7.46-0.893c-2.256,0.698-3.974,2.25-5.152,4.655
		s-1.359,4.728-0.542,6.969C173.357,166.354,175.124,168.121,177.856,169.459z"/>
	<path id="XMLID_8_" class="st11" d="M171.757,130.049l32.067,15.708l-1.964,4.009l-32.067-15.708L171.757,130.049z"/>
	<path id="XMLID_7_" class="st11" d="M189.764,133.873c-3.325-1.629-5.923-3.729-7.792-6.301c-1.855-2.602-2.854-5.485-2.998-8.648
		c-0.174-3.178,0.546-6.414,2.161-9.71c1.483-3.028,3.35-5.299,5.6-6.81c2.235-1.556,4.579-2.396,7.033-2.52
		c2.453-0.123,4.801,0.309,7.042,1.296l-2.182,4.454c-2.759-1.057-5.325-1.154-7.699-0.292c-2.374,0.862-4.338,2.882-5.895,6.059
		c-1.149,2.346-1.625,4.671-1.429,6.976c0.166,2.291,0.975,4.399,2.425,6.324c1.45,1.925,3.422,3.498,5.916,4.72
		c2.524,1.236,4.983,1.852,7.379,1.848c2.38-0.049,4.556-0.732,6.527-2.05c1.941-1.331,3.537-3.274,4.788-5.828
		c1.469-2.998,1.892-5.553,1.268-7.663c-0.624-2.109-2.049-3.709-4.276-4.8l-5.759,11.758l-4.008-1.963l7.941-16.211l3.162,1.549
		c3.801,1.862,6.196,4.525,7.185,7.992c1.004,3.437,0.466,7.279-1.614,11.525c-1.644,3.355-3.759,5.946-6.347,7.77
		c-2.617,1.81-5.515,2.766-8.693,2.866C196.334,136.282,193.09,135.502,189.764,133.873z"/>
	<path id="XMLID_6_" class="st11" d="M233.172,85.843l-1.964,4.009l-2.539-1.244c-0.208-0.102-0.363-0.049-0.464,0.159
		c-0.043,0.089-0.043,0.2,0.003,0.333c0.031,0.088,0.068,0.199,0.114,0.331c1.293,2.696,1.169,5.617-0.372,8.764
		c-1.425,2.91-3.362,4.797-5.809,5.659c-2.448,0.863-5.156,0.567-8.125-0.887l-14.475-7.09l1.963-4.008l13.807,6.763
		c2.108,1.033,3.973,1.284,5.596,0.753c1.622-0.53,2.928-1.805,3.917-3.825c1.12-2.286,1.295-4.372,0.526-6.259
		c-0.785-1.931-2.543-3.565-5.275-4.903l-12.025-5.89l1.964-4.009L233.172,85.843z"/>
	<path id="XMLID_45_" class="st11" d="M214.707,64.912l23.16,11.344l-1.963,4.008l-23.16-11.344L214.707,64.912z M206.236,59.658
		l5.345,2.618l-2.836,5.79l-5.345-2.618L206.236,59.658z"/>
	<path id="XMLID_42_" class="st11" d="M228.37,66.333c-2.672-1.309-4.667-2.949-5.984-4.92c-1.303-2-1.978-4.08-2.025-6.238
		c-0.077-2.173,0.365-4.24,1.325-6.199c1.614-3.296,3.949-5.318,7.003-6.067c0.281-0.047,0.465-0.159,0.552-0.338
		c0.102-0.208,0.034-0.37-0.204-0.486l-11.446-5.607l1.964-4.009l32.067,15.708l-1.964,4.009l-2.539-1.244
		c-0.237-0.116-0.407-0.071-0.509,0.137c-0.087,0.178-0.063,0.392,0.072,0.643c1.281,2.872,1.113,5.957-0.501,9.253
		c-0.96,1.96-2.307,3.583-4.042,4.868c-1.764,1.271-3.836,2.005-6.214,2.202C233.561,68.213,231.043,67.641,228.37,66.333z
		 M230.334,62.324c2.732,1.338,5.226,1.658,7.482,0.96c2.242-0.743,3.952-2.317,5.129-4.722c1.178-2.405,1.366-4.706,0.565-6.903
		c-0.817-2.241-2.591-4.03-5.323-5.368c-2.732-1.338-5.218-1.636-7.46-0.893c-2.257,0.699-3.974,2.251-5.152,4.656
		c-1.178,2.405-1.358,4.728-0.542,6.969C225.836,59.218,227.602,60.986,230.334,62.324z"/>
	<path id="XMLID_1_" class="st11" d="M224.497,22.678l32.067,15.708l-1.963,4.008l-32.067-15.708L224.497,22.678z"/>
</g>
</svg>
