<?xml version="1.0" encoding="utf-8"?>
<!-- Generator: Adobe Illustrator 19.0.0, SVG Export Plug-In . SVG Version: 6.00 Build 0)  -->
<svg version="1.1" id="Layer_1" xmlns="http://www.w3.org/2000/svg" xmlns:xlink="http://www.w3.org/1999/xlink" x="0px" y="0px"
	 viewBox="0 0 500 500" style="enable-background:new 0 0 500 500;" xml:space="preserve">
<style type="text/css">
	.st0{fill:#F1F0ED;}
	.st1{fill:#2A2A2C;}
	.st2{fill:#8A94F5;}
	.st3{fill:#E6C6A8;}
	.st4{fill:#D6E2A1;}
	.st5{fill:#F9D7BB;}
	.st6{fill:#F7AF7F;}
	.st7{fill:#B6BCF2;}
	.st8{fill:#F2AC7C;}
	.st9{fill:#ECF4BD;}
	.st10{fill:#C0D560;}
	.st11{fill:#182232;}
</style>
<path id="XMLID_216_" class="st0" d="M380.068,247.884c0,8.32-1.468,9.91-3.67,14.437l-95.92,199.181
	c-9.176,19.086-36.337,19.086-45.635,0l-98.245-202.851c-1.713-3.426-2.569-7.218-2.569-10.889c0-3.793,0.856-7.463,2.569-10.889
	l0.245-0.612l98-202.24c9.176-19.086,36.459-19.086,45.635,0l95.92,199.181C378.6,237.852,380.068,240.911,380.068,247.884z"/>
<path id="XMLID_212_" class="st0" d="M136.842,236.261l-0.245,0.612c-1.713,3.426-2.569,7.218-2.569,10.889
	C134.028,243.847,134.885,239.932,136.842,236.261L136.842,236.261z"/>
<path id="XMLID_1926_" class="st1" d="M260.046,68.891L260.046,68.891L260.046,68.891L260.046,68.891z M347.279,247.884
	L347.279,247.884L347.279,247.884L347.279,247.884z"/>
<path id="XMLID_208_" class="st1" d="M259.434,59.225c-0.612-1.346-2.569-1.346-3.181,0l-91.76,189.515
	c-0.856,1.835-0.856,3.915,0,5.75l93.718,185.6c0.734,1.346,2.569,1.346,3.181,0l87.967-188.659c0.856-1.713,0.856-3.793,0-5.506
	L259.434,59.225z M339.816,234.549l-37.193-48.816L264.45,78.189L339.816,234.549z M344.71,246.906l-76.222,14.192l32.911-70.961
	L344.71,246.906z M299.074,186.589l-33.89,73.041L260.29,77.21L299.074,186.589z M258.333,424.92l-36.092-97.143l41.598-58.237
	L258.333,424.92z M267.386,271.497l32.177,57.258l-37.438,94.941L267.386,271.497z M260.046,68.768L260.046,68.768L260.046,68.768
	L260.046,68.768z M261.269,250.821l-36.704-64.844L256.62,75.62L261.269,250.821z M263.104,261.465l-92.372-10.644l51.63-61.418
	L263.104,261.465z M253.316,73.785l-32.3,111.458l-51.141,60.684L253.316,73.785z M168.775,254.246c-0.122,0-0.245,0-0.367-0.122
	l-0.245-0.367l0.856-0.612l0.856,1.223l92.617,10.644l-42.332,59.461l-50.162-70.105L168.775,254.246z M175.748,268.683
	l42.821,59.705l0,0l35.114,94.452L175.748,268.683z M259.801,435.075L259.801,435.075L259.801,435.075L259.801,435.075z
	 M271.057,410.851l32.177-81.605l27.895-47.226L271.057,410.851z M301.521,324.841l-33.645-59.828l-0.367,0.122v-0.612l0.367,0.612
	l77.446-14.559L301.521,324.841z M347.279,247.884L347.279,247.884L347.279,247.884L347.279,247.884z"/>
<polygon id="XMLID_207_" class="st2" points="262.492,265.013 220.16,324.474 169.998,254.369 "/>
<polygon id="XMLID_206_" class="st3" points="253.683,422.963 175.748,268.683 218.57,328.389 218.57,328.511 "/>
<polygon id="XMLID_205_" class="st4" points="331.007,282.142 271.057,410.851 303.234,329.367 "/>
<polygon id="XMLID_204_" class="st4" points="299.441,328.756 262.003,423.697 267.386,271.497 "/>
<polygon id="XMLID_203_" class="st5" points="345.444,250.576 301.521,324.841 267.876,265.013 "/>
<polygon id="XMLID_202_" class="st6" points="344.71,246.906 268.487,261.22 301.399,190.137 "/>
<polygon id="XMLID_201_" class="st7" points="339.816,234.549 302.622,185.732 264.572,78.189 "/>
<polygon id="XMLID_200_" class="st8" points="253.316,73.785 221.017,185.243 169.876,246.049 "/>
<polygon id="XMLID_199_" class="st9" points="299.074,186.589 265.184,259.63 260.29,77.21 "/>
<path id="XMLID_1922_" class="st1" d="M169.019,253.023l-0.856,0.612l0.245,0.367c0.122,0,0.245,0.122,0.367,0.122l1.223,0.122
	L169.019,253.023z M260.046,68.891L260.046,68.891L260.046,68.891L260.046,68.891z M267.631,264.401v0.612l0.367-0.122
	L267.631,264.401z"/>
<polygon id="XMLID_198_" class="st7" points="263.104,261.465 170.61,250.698 222.363,189.403 "/>
<polygon id="XMLID_197_" class="st10" points="261.269,250.821 224.565,185.977 256.62,75.62 "/>
<polygon id="XMLID_196_" class="st9" points="263.716,269.54 258.333,424.92 222.24,327.899 "/>
<g id="XMLID_1909_">
	<path id="XMLID_195_" class="st1" d="M169.998,254.369l-1.223-0.122c-0.122,0-0.245,0-0.367-0.122l-0.245-0.367l0.856-0.612
		L169.998,254.369z"/>
</g>
<g id="XMLID_1910_">
	<polygon id="XMLID_194_" class="st1" points="267.876,265.013 267.509,265.135 267.631,264.401 	"/>
</g>
<g id="XMLID_1911_">
	<path id="XMLID_193_" class="st1" d="M347.279,247.884L347.279,247.884L347.279,247.884z"/>
</g>
<g id="XMLID_1907_">
	<polygon id="XMLID_192_" class="st1" points="260.046,68.768 260.046,68.891 260.046,68.891 	"/>
</g>
<g id="XMLID_1913_">
	<path id="XMLID_191_" class="st1" d="M347.279,247.884L347.279,247.884L347.279,247.884z"/>
</g>
<path id="XMLID_24_" class="st0" d="M116.591,264.253c0.385,1.387,0.603,2.792,0.663,4.188h14.678c8.488,0,17.453,2.183,24.868,8.47
	c2.564,2.156,4.65,4.571,6.303,7.162h1.248c4.44,0,8.519,1.55,11.725,4.137c2.414-1.949,5.323-3.309,8.51-3.862
	c1.337-9.002,9.099-15.908,18.473-15.908h10.161c9.116,0,16.708,6.531,18.348,15.169c1.352-0.261,2.72-0.45,4.101-0.567
	c1.858-8.355,9.316-14.602,18.231-14.602h7.035c1.684,0,3.316,0.223,4.867,0.64c1.551-0.418,3.183-0.64,4.867-0.64h7.034
	c4.674,0,8.946,1.716,12.222,4.553c7.406-4.001,15.506-5.726,23.768-5.726c7.752,0,15.607,1.556,22.725,5.628
	c4.987,2.793,9.391,6.5,12.855,11.176h3.092c4.441,0,10.346-12.105,13.552-9.517c2.415-1.949-6.448,4.631-3.263,4.078
	c1.338-9.002,19.046-10.194,28.42-10.194h10.161c9.116,0,16.706,6.531,18.348,15.169c1.351-0.261,2.719-0.45,4.1-0.567
	c1.86-8.355,9.317-14.602,18.232-14.602h7.034c1.685,0,3.316,0.223,4.867,0.64c1.553-0.418,3.183-0.64,4.867-0.64h7.035
	c10.315,0,18.678,8.362,18.678,18.678v56.276c0,10.315-8.362,18.677-18.678,18.677h-7.035c-1.684,0-3.314-0.223-4.867-0.64
	c-1.551,0.417-3.182,0.64-4.867,0.64h-7.034c-1.27,0-2.511-0.126-3.71-0.368c-3.607,1.052-7.364,1.542-11.141,1.542
	c-6.092,0-11.988-1.347-17.466-4.026c-2.875,1.808-6.279,2.853-9.927,2.853h-7.035c-1.693,0-3.334-0.225-4.894-0.647
	c-1.56,0.422-3.201,0.647-4.894,0.647h-7.035c-1.15,0-2.277-0.104-3.369-0.302c-3.472,1.008-7.083,1.476-10.699,1.476
	c-7.631,0-15.609-1.954-22.328-7.199c-7.767,5.262-16.836,7.199-25.723,7.199c-8.278,0-16.43-1.665-23.882-5.629
	c-3.261,2.779-7.489,4.456-12.109,4.456h-7.034c-1.684,0-3.316-0.223-4.867-0.64c-1.551,0.417-3.183,0.64-4.867,0.64H253.9
	c-1.27,0-2.511-0.126-3.71-0.368c-3.607,1.052-7.364,1.542-11.141,1.542c-6.092,0-11.988-1.347-17.465-4.026
	c-2.876,1.808-6.28,2.853-9.928,2.853h-7.034c-1.693,0-3.335-0.225-4.895-0.647c-1.56,0.422-3.201,0.647-4.894,0.647h-7.035
	c-1.15,0-2.277-0.104-3.369-0.302c-3.471,1.008-7.083,1.476-10.699,1.476c-7.212,0-14.738-1.746-21.215-6.368
	c-6.499,3.849-13.755,5.195-20.583,5.195h-21.885c-6.846,0-11.583-2.853-15.702-5.195c-4.336,4.547-10.088,5.664-16.955,5.56
	l-15.084-0.228l-15.084,0.228c-6.997,0.106-13.467-3.708-16.761-9.883l-13.459-25.227c-1.444-2.706-2.199-5.725-2.199-8.792v-22.94
	c0-10.315,8.362-18.678,18.678-18.678h7.705v-20.165c0-11.806,9.57-21.376,21.376-21.376c5.623,0,10.722,2.171,14.526,5.698
	c0.875,0.621,1.574,1.195,2.083,1.628c0.092,0.078,0.182,0.156,0.273,0.235c2.333-0.379,5.149-0.557,8.358-0.197l0.099,0.011
	c8.231,0.968,13.4,5.913,15.621,8.477C109.782,252.94,114.809,257.831,116.591,264.253z"/>
<path id="XMLID_20_" class="st11" d="M112.479,287.331h21.504c5.273,0,9.472,1.331,12.595,3.994
	c3.122,2.611,4.685,6.272,4.685,10.982c0,4.915-2.254,8.653-6.758,11.213c-0.307,0.154-0.513,0.307-0.614,0.461
	c-0.103,0.102-0.154,0.282-0.154,0.538c0,0.358,0.204,0.614,0.614,0.768c4.865,1.946,7.297,5.939,7.297,11.981
	c0,4.915-1.588,8.704-4.762,11.366c-3.124,2.662-7.424,3.994-12.903,3.994h-21.504V287.331z M133.215,311.138
	c3.379,0,5.939-0.666,7.68-1.997c1.791-1.331,2.688-3.482,2.688-6.451s-0.897-5.12-2.688-6.451c-1.741-1.331-4.301-1.997-7.68-1.997
	h-13.056v16.896H133.215z M133.215,335.714c3.584,0,6.272-0.666,8.063-1.997c1.792-1.382,2.688-3.661,2.688-6.835
	c0-3.174-0.896-5.427-2.688-6.758c-1.791-1.382-4.479-2.074-8.063-2.074h-13.056v17.664H133.215z"/>
<path id="XMLID_19_" class="st11" d="M195.788,342.626h-6.911v-4.378c0-0.358-0.18-0.538-0.537-0.538
	c-0.154,0-0.308,0.077-0.461,0.23c-0.103,0.102-0.23,0.23-0.384,0.384c-2.867,3.635-7.014,5.453-12.441,5.453
	c-5.017,0-8.959-1.408-11.827-4.224c-2.867-2.816-4.301-6.784-4.301-11.904v-24.96h6.913v23.808c0,3.635,0.921,6.4,2.764,8.294
	c1.844,1.894,4.506,2.842,7.988,2.842c3.942,0,6.963-1.178,9.062-3.533c2.15-2.406,3.225-5.965,3.225-10.675v-20.736h6.911V342.626z
	"/>
<path id="XMLID_16_" class="st11" d="M212.318,302.691v39.935h-6.913v-39.935H212.318z M213.853,287.331v9.216h-9.984v-9.216
	H213.853z"/>
<path id="XMLID_13_" class="st11" d="M219.65,322.658c0-4.608,0.921-8.499,2.764-11.674c1.895-3.174,4.326-5.529,7.297-7.066
	c2.969-1.587,6.143-2.381,9.522-2.381c5.683,0,10.086,1.869,13.21,5.606c0.256,0.358,0.537,0.538,0.844,0.538
	c0.358,0,0.538-0.205,0.538-0.614v-19.737h6.911v55.295h-6.911v-4.378c0-0.41-0.18-0.614-0.538-0.614
	c-0.307,0-0.589,0.179-0.844,0.538c-3.124,3.737-7.527,5.606-13.21,5.606c-3.379,0-6.553-0.768-9.522-2.304
	c-2.971-1.587-5.402-3.968-7.297-7.142C220.571,331.157,219.65,327.266,219.65,322.658z M226.562,322.658
	c0,4.71,1.254,8.397,3.763,11.059c2.559,2.611,5.913,3.917,10.061,3.917s7.475-1.306,9.984-3.917
	c2.561-2.662,3.84-6.349,3.84-11.059c0-4.71-1.28-8.371-3.84-10.982c-2.508-2.662-5.836-3.994-9.984-3.994
	s-7.501,1.331-10.061,3.994C227.816,314.287,226.562,317.948,226.562,322.658z"/>
<path id="XMLID_12_" class="st11" d="M277.213,287.331v55.295h-6.913v-55.295H277.213z"/>
<path id="XMLID_11_" class="st11" d="M284.161,314.978c0-5.734,1.151-10.777,3.455-15.129c2.355-4.352,5.683-7.706,9.985-10.061
	c4.301-2.406,9.292-3.609,14.975-3.609c5.222,0,9.651,1.049,13.286,3.149c3.686,2.048,6.451,4.736,8.295,8.064
	c1.843,3.328,2.841,6.886,2.995,10.675h-7.68c-0.41-4.557-2.022-8.192-4.839-10.905c-2.816-2.714-6.963-4.07-12.441-4.07
	c-4.045,0-7.603,0.922-10.675,2.765c-3.072,1.792-5.453,4.352-7.143,7.68c-1.69,3.328-2.534,7.142-2.534,11.443
	c0,4.352,0.819,8.192,2.457,11.52c1.69,3.277,4.122,5.837,7.297,7.68c3.174,1.792,6.963,2.688,11.366,2.688
	c5.17,0,9.011-1.152,11.52-3.456c2.508-2.304,3.762-5.376,3.762-9.216h-20.274v-6.912h27.954v5.453
	c0,6.554-2.073,11.699-6.22,15.437c-4.096,3.737-9.805,5.606-17.126,5.606c-5.786,0-10.829-1.178-15.129-3.533
	c-4.3-2.406-7.603-5.786-9.908-10.137C285.287,325.756,284.161,320.713,284.161,314.978z"/>
<path id="XMLID_10_" class="st11" d="M380.525,342.626h-6.913v-4.378c0-0.358-0.179-0.538-0.537-0.538
	c-0.153,0-0.307,0.077-0.461,0.23c-0.102,0.102-0.23,0.23-0.383,0.384c-2.868,3.635-7.015,5.453-12.441,5.453
	c-5.017,0-8.961-1.408-11.827-4.224c-2.868-2.816-4.301-6.784-4.301-11.904v-24.96h6.911v23.808c0,3.635,0.921,6.4,2.765,8.294
	c1.843,1.894,4.505,2.842,7.987,2.842c3.942,0,6.963-1.178,9.062-3.533c2.151-2.406,3.225-5.965,3.225-10.675v-20.736h6.913V342.626
	z"/>
<path id="XMLID_7_" class="st11" d="M397.055,302.691v39.935h-6.911v-39.935H397.055z M398.591,287.331v9.216h-9.984v-9.216H398.591
	z"/>
<path id="XMLID_4_" class="st11" d="M404.387,322.658c0-4.608,0.921-8.499,2.765-11.674c1.894-3.174,4.326-5.529,7.296-7.066
	c2.969-1.587,6.144-2.381,9.524-2.381c5.683,0,10.086,1.869,13.209,5.606c0.257,0.358,0.538,0.538,0.845,0.538
	c0.358,0,0.537-0.205,0.537-0.614v-19.737h6.913v55.295h-6.913v-4.378c0-0.41-0.179-0.614-0.537-0.614
	c-0.307,0-0.589,0.179-0.845,0.538c-3.122,3.737-7.526,5.606-13.209,5.606c-3.379,0-6.554-0.768-9.524-2.304
	c-2.969-1.587-5.402-3.968-7.296-7.142C405.308,331.157,404.387,327.266,404.387,322.658z M411.299,322.658
	c0,4.71,1.254,8.397,3.762,11.059c2.561,2.611,5.914,3.917,10.061,3.917c4.148,0,7.475-1.306,9.985-3.917
	c2.56-2.662,3.839-6.349,3.839-11.059c0-4.71-1.28-8.371-3.839-10.982c-2.509-2.662-5.837-3.994-9.985-3.994
	c-4.146,0-7.5,1.331-10.061,3.994C412.553,314.287,411.299,317.948,411.299,322.658z"/>
<path id="XMLID_3_" class="st11" d="M461.95,287.331v55.295h-6.911v-55.295H461.95z"/>
<path id="XMLID_2_" class="st11" d="M68.472,276.163v19.497h4.896v11.27h12.116v-11.27h8.409v22.54l-13.224,24.787L65.57,342.76
	l-15.098,0.228l-13.225-24.787v-22.54h8.37v11.27h12.154v-11.27h5.398v-38.166c0-1.464,1.187-2.651,2.651-2.651
	c1.056,0,1.968,0.618,2.394,1.511c1.34,0.514,2.69,1.871,4.085,3.274c1.658,1.667,3.38,3.398,5.227,3.858
	c1.865,0.465,3.248-0.032,4.806-0.592c1.634-0.587,3.461-1.243,6.24-0.931c2.084,0.245,3.188,1.606,4.424,3.127
	c1.642,2.023,3.516,4.33,8.227,4.678l-0.03,0.021c-3.017,2.13-7.139,5.041-13.539,4.472c-2.002-0.173-3.412-0.818-4.764-1.437
	c-1.927-0.882-3.736-1.709-6.97-1.038c-3.501,0.702-5.27,2.36-6.615,3.62C69.014,275.683,68.74,275.94,68.472,276.163z"/>
</svg>
