<?xml version="1.0" encoding="utf-8"?>
<!-- Generator: Adobe Illustrator 19.0.0, SVG Export Plug-In . SVG Version: 6.00 Build 0)  -->
<svg version="1.1" id="Layer_1" xmlns="http://www.w3.org/2000/svg" xmlns:xlink="http://www.w3.org/1999/xlink" x="0px" y="0px"
	 viewBox="-139 158 221 186" style="enable-background:new -139 158 221 186;" xml:space="preserve">
<style type="text/css">
	.st0{fill:#0D0A03;}
	.st1{fill:#824419;}
	.st2{fill:#A35A27;}
	.st3{fill:#D09062;}
	.st4{fill:#824418;}
	.st5{fill:#F5F5F5;}
	.st6{fill:#FFFFFF;}
</style>
<rect x="-76.2" y="324.4" class="st0" width="32.4" height="12"/>
<rect x="7.7" y="322" class="st0" width="33.6" height="14.4"/>
<path class="st1" d="M-65,177.7h-22.4v8.1h-10.8v18.8h40.3v-18.8H-65V177.7z M-118.8,204.6h71.7v29.6h-2.7v26.9h-10.8v16.1h-69.9
	v-16.1h2.7V245h3.6v-9h-9v-7.2h5.4v-5.4h7.2v5.4h0.9v4.5h0.9V204.6z M-118.8,277.2h28.7V288h-5.4v10.8h-16.1V288h-7.2V277.2z"/>
<path class="st2" d="M-9.5,175h-37.6v78h-5.4v13.4h-10.8v16.1h-16.1v10.8h4.5v24.2h13.4v-22.4h0.9v31.4h16.1v-22.4h35v-5.4H6.7v-5.4
	h3.5v21.4h13.2v-21.4h2.4v31h15.6v-20.2h8.4v-86.1h-5.4v-5.4H33.6v-5.4h-5.4v-5.4H17.4v85.3l0,0v-90.6H6.7v-5.4H-9.5v0h5.4v-5.4
	h-5.4V175z M-47.1,285.3h-2.7v-2.7h2.7V285.3z M49.7,223.5h5.4v10.8h5.4v26.9h-5.4V288h-5.4v-26.9v-26.9V223.5z"/>
<rect x="-47.1" y="175" class="st3" width="21.5" height="21.5"/>
<rect x="-28.3" y="180.4" class="st3" width="21.5" height="5.4"/>
<rect x="-25.6" y="185.8" class="st3" width="21.5" height="5.4"/>
<rect x="-9.5" y="191.2" class="st3" width="16.1" height="5.4"/>
<rect x="6.7" y="196.6" class="st3" width="10.8" height="5.4"/>
<rect x="17.4" y="201.9" class="st3" width="10.8" height="5.4"/>
<rect x="28.2" y="207.3" class="st3" width="10.8" height="5.4"/>
<rect x="-7.4" y="235.1" transform="matrix(-0.8562 0.5166 -0.5166 -0.8562 114.307 443.8488)" class="st3" width="5.6" height="5.4"/>
<rect x="-2.7" y="232.3" transform="matrix(-0.8562 0.5166 -0.5166 -0.8562 121.657 436.0596)" class="st3" width="5.6" height="5.4"/>
<rect x="-4.6" y="239.7" transform="matrix(-0.8562 0.5166 -0.5166 -0.8562 121.8393 450.9564)" class="st3" width="5.6" height="5.4"/>
<rect x="-1.8" y="244.4" transform="matrix(-0.8562 0.5166 -0.5166 -0.8562 129.429 458.1183)" class="st3" width="5.6" height="5.4"/>
<rect x="1" y="249" transform="matrix(-0.8562 0.5166 -0.5166 -0.8562 137.0188 465.2802)" class="st3" width="5.6" height="5.4"/>
<rect x="8.5" y="250.8" transform="matrix(-0.8562 0.5166 -0.5166 -0.8562 152.0179 464.7088)" class="st3" width="5.6" height="5.4"/>
<rect x="5" y="234" transform="matrix(-0.8562 0.5166 -0.5166 -0.8562 136.7425 435.3931)" class="st3" width="5.6" height="5.4"/>
<rect x="3" y="241.6" transform="matrix(-0.8562 0.5166 -0.5166 -0.8562 136.9501 450.3801)" class="st3" width="5.6" height="5.4"/>
<rect x="10.7" y="243.2" transform="matrix(-0.8562 0.5166 -0.5166 -0.8562 152.0892 449.5434)" class="st3" width="5.6" height="5.4"/>
<rect x="3.7" y="253.6" transform="matrix(-0.8562 0.5166 -0.5166 -0.8562 144.5511 472.3878)" class="st3" width="5.6" height="5.4"/>
<rect x="14.4" y="221.6" transform="matrix(-0.8562 0.5166 -0.5166 -0.8562 147.8314 407.4441)" class="st3" width="5.6" height="5.4"/>
<rect x="19.2" y="218.7" transform="matrix(-0.8562 0.5166 -0.5166 -0.8562 155.2696 399.5615)" class="st3" width="5.6" height="5.4"/>
<rect x="12.6" y="229" transform="matrix(-0.8562 0.5166 -0.5166 -0.8562 148.2285 422.1132)" class="st3" width="5.6" height="5.4"/>
<rect x="15.4" y="233.6" transform="matrix(-0.8562 0.5166 -0.5166 -0.8562 155.8183 429.2751)" class="st3" width="5.6" height="5.4"/>
<rect x="18.2" y="238.3" transform="matrix(-0.8562 0.5166 -0.5166 -0.8562 163.4081 436.437)" class="st3" width="5.6" height="5.4"/>
<rect x="25.8" y="240" transform="matrix(-0.8562 0.5166 -0.5166 -0.8562 178.4061 435.6328)" class="st3" width="5.6" height="5.4"/>
<rect x="30.5" y="237.1" transform="matrix(-0.8562 0.5166 -0.5166 -0.8562 185.679 427.9254)" class="st3" width="5.6" height="5.4"/>
<rect x="24.8" y="227.9" transform="matrix(-0.8562 0.5166 -0.5166 -0.8562 170.3875 413.7167)" class="st3" width="5.6" height="5.4"/>
<rect x="32.4" y="229.6" transform="matrix(-0.8562 0.5166 -0.5166 -0.8562 185.3613 413.0552)" class="st3" width="5.6" height="5.4"/>
<rect x="47" y="239.6" class="st4" width="13.4" height="21.5"/>
<rect x="41.6" y="253.9" class="st4" width="13.4" height="23.3"/>
<rect x="36.3" y="261.1" class="st4" width="13.4" height="26.9"/>
<rect x="17.4" y="277.2" class="st4" width="18.8" height="16.1"/>
<rect x="12.1" y="266.5" class="st4" width="16.1" height="10.8"/>
<rect x="41.6" y="228.8" class="st4" width="18.8" height="16.1"/>
<rect x="-31" y="293.4" class="st4" width="21.5" height="10.8"/>
<rect x="-41.7" y="288" class="st4" width="16.1" height="10.8"/>
<rect x="-47.1" y="277.2" class="st4" width="12.5" height="10.8"/>
<rect x="-65" y="288" class="st4" width="12.5" height="10.8"/>
<rect x="-15" y="288.4" class="st4" width="21.6" height="10.8"/>
<rect x="-1.9" y="277.6" class="st4" width="27.6" height="20.4"/>
<rect x="28.1" y="282.4" class="st4" width="16.8" height="21.6"/>
<rect x="10.1" y="293.2" class="st4" width="14.4" height="28.8"/>
<rect x="-76.7" y="293.4" class="st4" width="32.3" height="32.3"/>
<path class="st5" d="M-50.7,204.6v-17.9l-4.9-4.9l-6.3,6.7l-6.3,13l2.2,3.1l4,4h1.8L-50.7,204.6z"/>
<path class="st6" d="M-89.7,194.3l-9-4.9h-5.4l-4,3.1l-5.4-2.2l-7.6-1.8l-3.1,6.7l-6.7,2.7v8.1l6.7,13.9h13l6.7,4.9l11.2,2.2
	l6.3-7.2l4.5-3.1v-18.8L-89.7,194.3z"/>
<rect x="-111.6" y="175" class="st5" width="5.4" height="16.1"/>
<rect x="-84.8" y="274.5" class="st1" width="5.4" height="6.3"/>
<rect x="26.9" y="301.6" class="st4" width="14.4" height="20.4"/>
<rect x="-52.5" y="175" width="5.4" height="26.9"/>
<rect x="-57.9" y="169.7" width="5.4" height="10.8"/>
<rect x="-57.9" y="201.9" width="5.4" height="5.4"/>
<rect x="-68.6" y="191.2" width="5.4" height="5.4"/>
<rect x="-79.4" y="175" width="5.4" height="5.4"/>
<rect x="-95.5" y="180.4" width="5.4" height="5.4"/>
<rect x="-100.9" y="180.4" width="5.4" height="5.4"/>
<rect x="-106.3" y="180.4" width="5.4" height="5.4"/>
<rect x="-122.4" y="185.8" width="5.4" height="5.4"/>
<rect x="-127.8" y="191.2" width="5.4" height="5.4"/>
<rect x="-122.4" y="201.9" width="5.4" height="5.4"/>
<rect x="-100.9" y="204.6" width="5.4" height="5.4"/>
<rect x="-84.8" y="196.6" width="5.4" height="21.5"/>
<rect x="-127.8" y="212.7" width="5.4" height="10.8"/>
<rect x="-122.4" y="218.1" width="5.4" height="10.8"/>
<rect x="-133.2" y="223.5" width="5.4" height="5.4"/>
<rect x="-133.2" y="271.9" width="10.8" height="5.4"/>
<rect x="-127.8" y="277.2" width="21.5" height="5.4"/>
<rect x="-133.2" y="234.2" width="5.4" height="5.4"/>
<rect x="-127.8" y="234.2" width="5.4" height="10.8"/>
<rect x="-135.8" y="261.1" width="5.4" height="10.8"/>
<rect x="-133.2" y="245" width="5.4" height="16.1"/>
<rect x="-122.4" y="228.8" width="5.4" height="5.4"/>
<rect x="-117" y="218.1" width="5.4" height="5.4"/>
<rect x="-138.5" y="228.8" width="5.4" height="10.8"/>
<rect x="-133.2" y="196.6" width="5.4" height="16.1"/>
<rect x="-117" y="196.6" width="5.4" height="10.8"/>
<rect x="-118.8" y="207.3" width="5.4" height="10.8"/>
<rect x="-106.3" y="175" width="5.4" height="5.4"/>
<rect x="-117" y="169.7" width="5.4" height="21.5"/>
<rect x="-111.6" y="158.9" width="5.4" height="16.1"/>
<rect x="-100.9" y="185.8" width="5.4" height="5.4"/>
<rect x="-95.5" y="191.2" width="10.8" height="5.4"/>
<rect x="-90.1" y="218.1" width="5.4" height="5.4"/>
<rect x="-111.6" y="218.1" width="5.4" height="5.4"/>
<rect x="-106.3" y="223.5" width="16.1" height="5.4"/>
<rect x="-111.6" y="298.8" width="16.1" height="5.4"/>
<rect x="-111.6" y="191.2" width="5.4" height="5.4"/>
<rect x="-106.3" y="185.8" width="5.4" height="5.4"/>
<rect x="-84.8" y="175" width="5.4" height="5.4"/>
<rect x="-90.1" y="175" width="5.4" height="10.8"/>
<rect x="-63.2" y="185.8" width="5.4" height="5.4"/>
<rect x="-57.9" y="180.4" width="5.4" height="5.4"/>
<rect x="-63.2" y="207.3" width="5.4" height="5.4"/>
<rect x="-68.6" y="212.7" width="5.4" height="5.4"/>
<rect x="-74" y="223.5" width="5.4" height="5.4"/>
<rect x="-68.6" y="228.8" width="5.4" height="9"/>
<rect x="-63.2" y="218.1" width="5.4" height="19.7"/>
<rect x="-68.6" y="196.6" width="5.4" height="10.8"/>
<rect x="-63.2" y="180.4" width="5.4" height="5.4"/>
<rect x="-68.6" y="175" width="5.4" height="10.8"/>
<rect x="-74" y="175" width="5.4" height="10.8"/>
<rect x="-47.1" y="169.7" width="21.5" height="5.4"/>
<rect x="-25.6" y="175" width="16.1" height="5.4"/>
<rect x="-9.5" y="180.4" width="5.4" height="5.4"/>
<rect x="28.2" y="201.9" width="5.4" height="5.4"/>
<rect x="44.3" y="212.7" width="5.4" height="5.4"/>
<rect x="49.7" y="218.1" width="5.4" height="5.4"/>
<rect x="55.1" y="223.5" width="5.4" height="5.4"/>
<rect x="55.1" y="228.8" width="5.4" height="5.4"/>
<rect x="71.2" y="239.6" width="5.4" height="10.8"/>
<rect x="-4.1" y="185.8" width="10.8" height="5.4"/>
<rect x="6.7" y="191.2" width="10.8" height="5.4"/>
<rect x="17.4" y="196.6" width="10.8" height="5.4"/>
<rect x="33.6" y="207.3" width="10.8" height="5.4"/>
<rect x="65.8" y="234.2" width="5.4" height="5.4"/>
<rect x="60.5" y="234.2" width="5.4" height="26.9"/>
<rect x="55.1" y="261.1" width="5.4" height="16.1"/>
<rect x="76.6" y="250.3" width="5.4" height="16.1"/>
<rect x="71.2" y="266.5" width="5.4" height="10.8"/>
<rect x="49.7" y="277.2" width="5.4" height="10.8"/>
<rect x="44.3" y="288" width="5.4" height="16.1"/>
<rect x="38.9" y="304" width="6" height="34.8"/>
<rect x="23.3" y="293.2" width="4.8" height="32.4"/>
<rect x="10.1" y="298.8" width="5.4" height="16.1"/>
<rect x="18.5" y="322" width="4.8" height="13.2"/>
<rect x="5.3" y="314.8" width="4.8" height="24"/>
<rect x="6.5" y="320.8" width="33.6" height="4.8"/>
<rect x="5.3" y="334" width="36" height="4.8"/>
<rect x="17.4" y="282.6" width="5.4" height="10.8"/>
<rect x="12.1" y="277.2" width="5.4" height="5.4"/>
<rect x="12.1" y="288" width="5.4" height="5.4"/>
<rect x="-47.4" y="293.2" width="6" height="45.6"/>
<rect x="-63" y="293.2" width="4.8" height="28.8"/>
<rect x="-79.8" y="293.2" width="6" height="40.8"/>
<rect x="-47.1" y="288" width="5.4" height="5.4"/>
<rect x="-52.5" y="282.6" width="5.4" height="5.4"/>
<rect x="-74" y="277.2" width="5.4" height="5.4"/>
<rect x="-68.6" y="271.9" width="5.4" height="10.8"/>
<rect x="-47.1" y="218.1" width="5.4" height="10.8"/>
<rect x="-52.5" y="201.9" width="5.4" height="16.1"/>
<rect x="-63.2" y="261.1" width="5.4" height="16.1"/>
<rect x="-57.9" y="250.3" width="5.4" height="16.1"/>
<rect x="-52.5" y="228.8" width="5.4" height="26.9"/>
<rect x="6.7" y="293.4" width="5.4" height="5.4"/>
<rect x="-9.5" y="298.8" width="16.1" height="5.4"/>
<rect x="75.5" y="338.7" width="5.9" height="4.9"/>
<rect x="-41.7" y="298.8" width="10.8" height="5.4"/>
<rect x="-79.8" y="320.8" width="33.6" height="6"/>
<rect x="-79.8" y="334" width="32.4" height="4.8"/>
<rect x="-31" y="304.1" width="21.5" height="5.4"/>
<rect x="-103.2" y="338.7" width="174.7" height="4.9"/>
<rect x="6.7" y="266.5" width="5.4" height="10.8"/>
<rect x="-67.8" y="322" width="4.8" height="16.8"/>
<rect x="-67.8" y="288.4" width="5.4" height="10.8"/>
<rect x="-84.8" y="280.8" width="5.4" height="12.5"/>
<rect x="-79.4" y="274.5" width="5.4" height="8.1"/>
<rect x="-106.3" y="271.9" width="5.4" height="5.4"/>
<rect x="-122.4" y="282.6" width="5.4" height="5.4"/>
<rect x="-117" y="288" width="5.4" height="10.8"/>
<rect x="-100.9" y="293.4" width="5.4" height="5.4"/>
<rect x="-95.5" y="288" width="5.4" height="10.8"/>
<rect x="-90.1" y="274.5" width="5.4" height="13.4"/>
</svg>
