<?xml version="1.0" encoding="utf-8"?>
<!-- Generator: Adobe Illustrator 19.0.0, SVG Export Plug-In . SVG Version: 6.00 Build 0)  -->
<svg version="1.1" id="Layer_1" xmlns="http://www.w3.org/2000/svg" xmlns:xlink="http://www.w3.org/1999/xlink" x="0px" y="0px"
	 viewBox="-308 221 342 120" style="enable-background:new -308 221 342 120;" xml:space="preserve">
<style type="text/css">
	.st0{fill:#629FFC;}
	.st1{fill:#A9CBFF;}
	.st2{fill:#629FFC;stroke:#629FFC;stroke-width:5.6965;}
</style>
<path class="st0" d="M-260.2,305.7v-4.9l-19.5-6v-0.6l19.5-6.1v-4.9l-24.4,7.9v6.8L-260.2,305.7z M-130.6,312.3
	c-2.3,0-4.1-0.7-5.4-2.1c-1.3-1.4-1.9-3.2-1.9-5.4v-32.4h5.4v33.4c0,0.6,0.1,1.1,0.3,1.3c0.3,0.2,0.7,0.3,1.3,0.3h10.1v4.9H-130.6z
	 M-148,277.2v-4.9h15.5l-1.4,4.9H-148z M-105.4,312.8c-2.4,0-4.3-0.7-5.8-2c-1.5-1.4-2.3-3.2-2.3-5.5V305c0-2.3,0.8-4,2.4-5.2
	c1.6-1.3,4.1-2.1,7.4-2.4l9.7-1.1l0.5,3.8l-9.4,1.1c-2,0.2-3.3,0.6-4.2,1.3c-0.8,0.6-1.2,1.4-1.2,2.5v0.2c0,1,0.3,1.8,1,2.3
	c0.7,0.6,1.7,0.8,2.9,0.8h0.2c1.4,0,2.8-0.3,4.2-0.9c1.3-0.7,2.4-1.6,3.3-2.8c0.8-1.2,1.3-2.7,1.3-4.3v-4.8c0-2.2-0.4-3.8-1.3-4.8
	c-0.9-1-2.2-1.5-4-1.5h-0.2c-1.8,0-3.2,0.4-4.2,1.3c-1,0.9-1.6,2.3-1.8,4.2h-5.6c0.3-3.4,1.5-6,3.6-7.7c2.1-1.7,4.8-2.6,8.2-2.6h0.2
	c3.6,0,6.2,0.9,7.9,2.8c1.7,1.8,2.6,4.6,2.6,8.4v12h4.7v4.9h-9.5l-0.4-5h-0.6c-0.7,1.5-1.9,2.8-3.5,3.9c-1.6,1.1-3.5,1.6-5.8,1.6
	H-105.4z M-65,312.8c-2,0-3.7-0.4-5-1.3c-1.3-0.9-2.3-2.2-2.9-3.7h-0.6v4.5h-5.3v-39.9h5.5v16.6h0.6c0.7-1.4,1.7-2.6,3-3.4
	c1.3-0.9,3-1.3,4.9-1.3h0.2c3,0,5.4,1.1,7.2,3.4c1.8,2.2,2.7,5.4,2.7,9.5v2.9c0,4.1-0.9,7.3-2.7,9.5c-1.8,2.2-4.2,3.3-7.3,3.3H-65z
	 M-66.5,307.8c2.1,0,3.6-0.7,4.7-2c1.1-1.3,1.6-3.4,1.6-6.1v-2.4c0-5.3-2.1-8-6.3-8h-0.2c-2.1,0-3.7,0.7-4.9,2
	c-1.1,1.3-1.7,3.3-1.7,6v2.4c0,2.7,0.6,4.8,1.7,6.1c1.1,1.3,2.8,2,4.9,2H-66.5z M-33.4,312.8c-3.9,0-6.9-0.8-9-2.4
	c-2.1-1.7-3.2-4.1-3.3-7.3h5.3c0,1.8,0.6,3.1,1.6,4c1,0.8,2.8,1.2,5.4,1.2h0.2c4.2,0,6.3-1.2,6.3-3.7c0-0.9-0.3-1.6-0.9-2.2
	c-0.6-0.5-1.3-0.9-2.3-1.2c-0.9-0.3-2.2-0.6-3.8-0.9l-0.2-0.1l-0.2-0.1c-2.3-0.4-4.2-0.9-5.7-1.4c-1.4-0.5-2.7-1.3-3.7-2.4
	c-1-1.1-1.5-2.5-1.5-4.3c0-2.4,0.9-4.4,2.8-5.8c1.9-1.4,4.5-2.2,7.9-2.2h0.2c3.7,0,6.5,0.8,8.4,2.4c2,1.6,3.1,3.9,3.2,7h-5.4
	c0-1.7-0.5-3-1.5-3.8c-1-0.8-2.5-1.2-4.7-1.2h-0.2c-2,0-3.4,0.3-4.3,0.9c-0.9,0.6-1.3,1.4-1.3,2.4c0,0.9,0.3,1.5,0.8,2.1
	c0.6,0.5,1.3,0.9,2.2,1.2c0.9,0.3,2.1,0.5,3.7,0.8l0.3,0.1c0.1,0,0.1,0,0.2,0.1c2.3,0.4,4.2,0.9,5.7,1.4c1.5,0.5,2.8,1.3,3.8,2.4
	c1,1.1,1.6,2.6,1.6,4.4c0,2.6-1,4.7-3.1,6.2c-2,1.5-4.8,2.2-8.4,2.2H-33.4z M-12.8,305.7v-4.9l19.5-6v-0.6l-19.5-6.1v-4.9l24.4,7.9
	v6.8L-12.8,305.7z"/>
<path d="M-211.5,312.3v-37.8h12.3c3.6,0,6.4,0.9,8.4,2.6c2,1.7,2.9,4.1,2.9,7.2v0.6c0,3.9-1.8,6.5-5.3,7.7v0.6
	c2.2,0.5,3.8,1.5,4.9,2.9c1.1,1.4,1.7,3.3,1.7,5.6v0.4c0,3.3-1,5.8-2.9,7.6c-2,1.8-4.7,2.7-8.3,2.7H-211.5z M-206.1,308.8l-2-1.6
	h10.4c2.1,0,3.6-0.4,4.5-1.3c0.9-0.9,1.3-2.3,1.3-4.4v-0.3c0-2-0.5-3.4-1.4-4.3c-0.9-0.9-2.4-1.3-4.4-1.3h-10.4l2-1.9V308.8z
	 M-206.1,292.4l-2-1.9h9c2.1,0,3.6-0.4,4.5-1.3c0.9-0.9,1.3-2.3,1.3-4.2v-0.3c0-1.8-0.4-3.1-1.3-3.9c-0.9-0.9-2.4-1.3-4.5-1.3h-9
	l2-1.7V292.4z M-168.3,312.8c-3.6,0-6.3-1.1-8.4-3.4c-2-2.3-3-5.8-3-10.3v-11.4c0-3,0.5-5.6,1.6-7.6c1.1-2.1,2.6-3.6,4.4-4.6
	c1.9-1,4.2-1.6,6.7-1.6h0.3c2.6,0,4.8,0.5,6.7,1.6c1.9,1,3.4,2.5,4.4,4.5c1.1,2,1.6,4.6,1.6,7.7h-5.5c0-3.2-0.6-5.5-1.7-6.8
	c-1.1-1.3-3-2-5.5-2h-0.3c-2.6,0-4.4,0.7-5.5,2c-1.1,1.3-1.7,3.5-1.7,6.8v11.4c0,3.2,0.6,5.5,1.7,6.8c1.1,1.3,3,1.9,5.4,1.9h0.3
	c2.4,0,4.2-0.7,5.5-2c1.3-1.4,1.9-3.6,1.9-6.8v-2.3l2.1,1.7h-8.5v-5.1h11.9v18.9h-5.2v-4.5h-0.6c-0.7,1.7-1.7,3-3.1,3.8
	c-1.3,0.8-3.1,1.2-5.2,1.2H-168.3z"/>
<circle class="st0" cx="-234" cy="270.1" r="5.5"/>
<path class="st1" d="M-237.3,308.5l10.2-30.8c0.2-0.7,0.9-1,1.6-0.8c0.6,0.2,1.3-0.1,1.6-0.7c0.3-0.7-0.1-1.5-0.8-1.7l-15.8-5.3
	c-0.6-0.2-1.3,0.1-1.6,0.7l-0.1,0.3c-0.2,0.5,0.1,1.1,0.6,1.3c0.5,0.2,0.8,0.7,0.6,1.2l-10.4,31.2c-1.3,3.9,0.8,8,4.7,9.3
	C-242.8,314.5-238.6,312.4-237.3,308.5z"/>
<path class="st2" d="M-245.7,304.8l3.2-9.5l3.5,1.2l-3.2,9.5c-0.3,1-1.4,1.5-2.3,1.2C-245.5,306.8-246,305.8-245.7,304.8z"/>
<circle class="st0" cx="-223.3" cy="257.7" r="8.3"/>
<circle class="st1" cx="-231.7" cy="243.9" r="4.5"/>
</svg>
