<svg width="388" height="78" viewBox="0 0 388 78" fill="none" xmlns="http://www.w3.org/2000/svg">
<path d="M111.154 51.8617C110.85 51.7469 110.808 51.5956 110.808 51.4665C110.808 51.2578 110.859 51.2004 110.895 51.1574C110.93 51.1065 111.031 50.9995 111.335 50.8482C115.338 48.5864 117.373 45.2264 117.373 40.875C117.373 36.5236 115.966 33.4439 113.188 31.1313C110.425 28.7912 106.673 27.599 102.027 27.599H82.9863V76.1296H102.012C106.832 76.1296 110.684 74.9375 113.44 72.5974C116.262 70.2417 117.689 66.8529 117.689 62.5172C117.689 57.1758 115.489 53.5848 111.146 51.8552L111.154 51.8617ZM107.864 46.5777C106.407 47.6903 104.213 48.2512 101.349 48.2512H90.2592V34.1718H101.349C104.213 34.1718 106.407 34.7314 107.871 35.8453C109.349 36.9371 110.1 38.7384 110.1 41.2089C110.1 43.6794 109.351 45.4807 107.871 46.5725L107.864 46.5777ZM90.2592 54.8201H101.349C104.394 54.8201 106.695 55.4018 108.203 56.5575C109.682 57.6493 110.432 59.5445 110.432 62.1872C110.432 64.8298 109.682 66.7538 108.203 67.8808C106.702 68.9934 104.394 69.5543 101.349 69.5543H90.2592V54.8135V54.8201Z" fill="#182232"/>
<path d="M149.226 59.1923C149.226 63.185 148.302 66.2359 146.49 68.2603C144.73 70.2273 142.14 71.2252 138.807 71.2252C135.871 71.2252 133.598 70.4282 132.053 68.8486C130.508 67.269 129.723 64.9146 129.723 61.8558V40.9193H123.121V62.855C123.121 67.3564 124.412 70.8965 126.952 73.3813C129.492 75.8661 133.027 77.1288 137.465 77.1288C142.262 77.1288 145.984 75.4983 148.51 72.3182L148.842 71.9882C148.914 71.9165 148.987 71.8734 149.037 71.8734C149.188 71.8734 149.217 71.9021 149.217 72.0534V76.1388H155.819V40.9206H149.217V59.1936H149.226V59.1923Z" fill="#182232"/>
<path d="M169.903 40.9193H163.301V76.1296H169.903V40.9193Z" fill="#182232"/>
<path d="M166.599 27.4777C164.268 27.4777 162.37 29.3664 162.37 31.6921V31.9582C162.37 34.2774 164.268 36.1726 166.599 36.1726C168.929 36.1726 170.827 34.2839 170.827 31.9582V31.6921C170.827 29.3742 168.929 27.4777 166.599 27.4777Z" fill="#182232"/>
<path d="M205.162 45.0046C205.162 45.2485 205.09 45.2485 204.981 45.2485C204.917 45.2485 204.729 45.2485 204.468 44.882C201.705 41.5858 197.751 39.9136 192.738 39.9136C189.757 39.9136 186.922 40.6167 184.304 42.0098C181.678 43.3598 179.5 45.4559 177.833 48.2499C176.209 51.036 175.387 54.4887 175.387 58.518C175.387 62.5459 176.209 65.9998 177.839 68.7925C179.506 71.5787 181.685 73.697 184.311 75.0966C186.93 76.4466 189.765 77.1288 192.744 77.1288C197.766 77.1288 201.712 75.4553 204.491 72.1461C204.736 71.8017 204.93 71.8017 204.995 71.8017C205.096 71.8017 205.175 71.8017 205.175 72.0457V76.1309H211.777V27.6003H205.175V45.0046H205.162ZM202.232 49.2047C204.396 51.4013 205.493 54.5396 205.493 58.5245C205.493 62.5094 204.396 65.6764 202.226 67.916C200.105 70.1125 197.248 71.2265 193.734 71.2265C190.221 71.2265 187.335 70.1139 185.178 67.9238C183.057 65.6842 181.974 62.5172 181.974 58.5323C181.974 54.5474 183.049 51.4026 185.171 49.206C187.335 46.9664 190.213 45.8316 193.727 45.8316C197.24 45.8316 200.097 46.9664 202.219 49.206H202.232V49.2047Z" fill="#182232"/>
<path d="M225.781 27.6003H219.179V76.1309H225.781V27.6003Z" fill="#182232"/>
<path d="M248.652 35.527C251.27 33.9617 254.352 33.1713 257.808 33.1713C262.483 33.1713 266.061 34.3348 268.449 36.6175C270.839 38.9079 272.231 42.0306 272.577 45.8942L272.599 46.1524H279.856L279.842 45.8511C279.706 42.5341 278.817 39.3814 277.194 36.4675C275.57 33.5457 273.096 31.1547 269.857 29.3664C266.66 27.5286 262.715 26.5946 258.133 26.5946C253.155 26.5946 248.718 27.6577 244.945 29.7617C241.164 31.8226 238.199 34.7953 236.128 38.6001C234.107 42.3985 233.083 46.8568 233.083 51.8539C233.083 56.8509 234.086 61.3106 236.062 65.1077C238.09 68.9125 241.034 71.9139 244.814 74.0179C248.587 76.0709 253.067 77.1196 258.14 77.1196C264.567 77.1196 269.654 75.4605 273.261 72.18C276.919 68.8982 278.78 64.3172 278.78 58.5806V53.5613H253.839V60.1315H271.509C271.443 63.2333 270.375 65.7533 268.328 67.6277C266.206 69.566 262.895 70.5495 258.487 70.5495C254.721 70.5495 251.43 69.7812 248.725 68.259C246.02 66.6938 243.92 64.4894 242.485 61.7176C241.085 58.8819 240.371 55.5648 240.371 51.8526C240.371 48.1403 241.099 44.895 242.549 42.0593C243.992 39.2379 246.049 37.0336 248.667 35.5179L248.652 35.527Z" fill="#182232"/>
<path d="M310.707 59.1923C310.707 63.185 309.783 66.2359 307.973 68.2603C306.213 70.2273 303.623 71.2252 300.288 71.2252C297.345 71.2252 295.08 70.4282 293.536 68.8486C291.992 67.269 291.205 64.9146 291.205 61.8558V40.9193H284.603V62.855C284.603 67.3564 285.894 70.8965 288.442 73.3813C290.983 75.8661 294.517 77.1288 298.954 77.1288C303.753 77.1288 307.481 75.4983 309.999 72.3182L310.332 71.9882C310.404 71.9165 310.476 71.8734 310.526 71.8734C310.678 71.8734 310.707 71.9021 310.707 72.0534V76.1388H317.309V40.9206H310.707V59.1923Z" fill="#182232"/>
<path d="M331.384 40.9193H324.782V76.1296H331.384V40.9193Z" fill="#182232"/>
<path d="M328.08 27.4777C325.75 27.4777 323.844 29.3664 323.844 31.6921V31.9582C323.844 34.2774 325.742 36.1726 328.08 36.1726C330.417 36.1726 332.315 34.2839 332.315 31.9582V31.6921C332.314 29.3742 330.417 27.4777 328.08 27.4777Z" fill="#182232"/>
<path d="M366.642 45.0046C366.642 45.2485 366.57 45.2485 366.461 45.2485C366.397 45.2485 366.209 45.2485 365.948 44.882C363.185 41.5858 359.232 39.9136 354.218 39.9136C351.239 39.9136 348.404 40.6167 345.785 42.0098C343.158 43.3598 340.98 45.4559 339.313 48.2499C337.69 51.036 336.867 54.4887 336.867 58.518C336.867 62.5459 337.69 65.9998 339.321 68.7925C340.986 71.5787 343.166 73.697 345.791 75.0966C348.41 76.4466 351.245 77.1288 354.226 77.1288C359.247 77.1288 363.193 75.4553 365.971 72.1461C366.216 71.8017 366.411 71.8017 366.475 71.8017C366.576 71.8017 366.656 71.8017 366.656 72.0457V76.1309H373.258V27.6003H366.656V45.0046H366.642ZM363.714 49.2047C365.878 51.4013 366.975 54.5396 366.975 58.5245C366.975 62.5094 365.878 65.6764 363.706 67.916C361.585 70.1125 358.728 71.2265 355.215 71.2265C351.701 71.2265 348.815 70.1139 346.658 67.9238C344.537 65.6842 343.454 62.5172 343.454 58.5323C343.454 54.5474 344.531 51.4026 346.651 49.206C348.815 46.9664 351.695 45.8316 355.207 45.8316C358.721 45.8316 361.579 46.9664 363.699 49.206H363.714V49.2047Z" fill="#182232"/>
<path d="M387.263 27.6003H380.661V76.1309H387.263V27.6003Z" fill="#182232"/>
<path d="M63.1218 27.7353V76.2086H42.8441V61.9337C42.8441 55.6618 37.7624 50.5771 31.5185 50.5771C25.2747 50.5771 20.193 55.6618 20.193 61.9337V76.2086H0V27.7353H11.818V34.7392C11.818 37.7366 14.2505 40.1603 17.2345 40.1603C20.2186 40.1603 22.6511 37.7366 22.6511 34.7392V27.7353H40.3781V34.7095C40.3781 37.7069 42.8106 40.1306 45.7947 40.1306C48.7787 40.1306 51.2112 37.7069 51.2112 34.7095V27.7353H63.1218Z" fill="#182232"/>
<path d="M28.7643 2.18495V32.263H34.0339V18.7778C34.0339 18.7778 35.3804 16.0081 40.2893 17.2299C46.7851 18.8468 54.7881 17.7511 59.9257 8.45259C44.3573 13.5802 43.9403 -4.04034 28.7643 2.18495Z" fill="#182232"/>
</svg>
