<?xml version="1.0" encoding="utf-8"?>
<!-- Generator: Adobe Illustrator 19.0.0, SVG Export Plug-In . SVG Version: 6.00 Build 0)  -->
<svg version="1.1" id="Layer_1" xmlns="http://www.w3.org/2000/svg" xmlns:xlink="http://www.w3.org/1999/xlink" x="0px" y="0px"
	 viewBox="0 0 500 500" style="enable-background:new 0 0 500 500;" xml:space="preserve">
<style type="text/css">
	.st0{fill:#182232;}
	.st1{fill:none;}
</style>
<g id="XMLID_20_">
	<path id="XMLID_60_" class="st0" d="M150.97,253.717c-0.365-0.138-0.415-0.319-0.415-0.474c0-0.25,0.061-0.319,0.104-0.371
		c0.042-0.061,0.163-0.189,0.528-0.371c4.802-2.713,7.244-6.744,7.244-11.965s-1.688-8.915-5.021-11.689
		c-3.315-2.807-7.816-4.238-13.39-4.238h-22.843v58.222h22.825c5.783,0,10.404-1.43,13.71-4.238
		c3.386-2.826,5.097-6.892,5.097-12.093c0-6.408-2.639-10.716-7.85-12.791L150.97,253.717z M147.023,247.378
		c-1.748,1.335-4.38,2.008-7.816,2.008h-13.304v-16.891h13.304c3.436,0,6.068,0.671,7.824,2.008c1.773,1.31,2.674,3.471,2.674,6.435
		c0,2.964-0.899,5.125-2.674,6.435L147.023,247.378z M125.902,257.266h13.304c3.653,0,6.414,0.698,8.223,2.084
		c1.774,1.31,2.674,3.583,2.674,6.754c0,3.17-0.9,5.479-2.674,6.831c-1.801,1.335-4.57,2.008-8.223,2.008h-13.304v-17.684V257.266z"
		/>
	<path id="XMLID_16_" class="st0" d="M196.644,262.511c0,4.79-1.109,8.45-3.282,10.879c-2.111,2.36-5.219,3.557-9.217,3.557
		c-3.522,0-6.249-0.956-8.103-2.851c-1.854-1.895-2.795-4.72-2.795-8.389v-25.117h-7.92v26.316c0,5.4,1.549,9.647,4.596,12.628
		s7.288,4.496,12.612,4.496c5.755,0,10.22-1.956,13.251-5.771l0.398-0.396c0.086-0.086,0.174-0.138,0.234-0.138
		c0.181,0,0.216,0.034,0.216,0.216v4.901h7.92v-42.251h-7.92v21.922h0.011V262.511z"/>
	<path id="XMLID_15_" class="st0" d="M221.45,240.589h-7.92v42.242h7.92V240.589z"/>
	<path id="XMLID_14_" class="st0" d="M217.487,224.464c-2.796,0-5.074,2.266-5.074,5.056v0.319c0,2.782,2.277,5.056,5.074,5.056
		c2.795,0,5.072-2.266,5.072-5.056v-0.319C222.559,226.739,220.282,224.464,217.487,224.464z"/>
	<path id="XMLID_54_" class="st0" d="M263.75,245.491c0,0.293-0.086,0.293-0.217,0.293c-0.077,0-0.302,0-0.615-0.44
		c-3.315-3.954-8.058-5.961-14.072-5.961c-3.576,0-6.977,0.844-10.118,2.515c-3.15,1.62-5.763,4.134-7.763,7.486
		c-1.948,3.342-2.934,7.485-2.934,12.319c0,4.832,0.986,8.976,2.942,12.326c2,3.343,4.614,5.884,7.764,7.563
		c3.142,1.62,6.543,2.438,10.117,2.438c6.025,0,10.759-2.008,14.093-5.978c0.294-0.413,0.527-0.413,0.605-0.413
		c0.121,0,0.216,0,0.216,0.293v4.901h7.92v-58.222h-7.92v20.88H263.75z M260.235,250.529c2.596,2.635,3.912,6.4,3.912,11.181
		c0,4.781-1.316,8.58-3.919,11.267c-2.545,2.635-5.972,3.972-10.188,3.972c-4.215,0-7.677-1.335-10.265-3.962
		c-2.545-2.687-3.844-6.486-3.844-11.267c0-4.781,1.29-8.553,3.835-11.189c2.596-2.687,6.049-4.048,10.265-4.048
		c4.215,0,7.642,1.361,10.188,4.048h0.016V250.529z"/>
	<path id="XMLID_11_" class="st0" d="M288.487,224.611h-7.92v58.222h7.92V224.611z"/>
	<path id="XMLID_10_" class="st0" d="M315.925,234.12c3.141-1.878,6.838-2.826,10.984-2.826c5.609,0,9.901,1.396,12.766,4.134
		c2.867,2.748,4.537,6.494,4.952,11.129l0.026,0.31h8.706l-0.017-0.361c-0.163-3.979-1.23-7.762-3.177-11.257
		c-1.948-3.505-4.916-6.374-8.802-8.519c-3.835-2.205-8.568-3.325-14.065-3.325c-5.972,0-11.295,1.275-15.822,3.8
		c-4.536,2.472-8.093,6.039-10.578,10.603c-2.425,4.557-3.653,9.906-3.653,15.9c0,5.995,1.203,11.345,3.574,15.9
		c2.433,4.565,5.965,8.165,10.5,10.689c4.526,2.463,9.901,3.721,15.987,3.721c7.71,0,13.813-1.99,18.141-5.926
		c4.388-3.937,6.621-9.433,6.621-16.315v-6.022h-29.922v7.882h21.199c-0.079,3.721-1.36,6.744-3.816,8.993
		c-2.546,2.325-6.518,3.505-11.806,3.505c-4.518,0-8.466-0.922-11.711-2.748c-3.245-1.878-5.765-4.522-7.486-7.848
		c-1.68-3.402-2.536-7.381-2.536-11.835c0-4.454,0.873-8.347,2.613-11.749c1.731-3.385,4.199-6.029,7.34-7.848L315.925,234.12z"/>
	<path id="XMLID_9_" class="st0" d="M390.372,262.511c0,4.79-1.109,8.45-3.28,10.879c-2.111,2.36-5.219,3.557-9.22,3.557
		c-3.531,0-6.248-0.956-8.1-2.851c-1.852-1.895-2.797-4.72-2.797-8.389v-25.117h-7.92v26.316c0,5.4,1.549,9.647,4.606,12.628
		c3.048,2.981,7.288,4.496,12.611,4.496c5.757,0,10.23-1.956,13.251-5.771l0.4-0.396c0.086-0.086,0.173-0.138,0.233-0.138
		c0.182,0,0.217,0.034,0.217,0.216v4.901h7.92v-42.251h-7.92V262.511z"/>
	<path id="XMLID_8_" class="st0" d="M415.178,240.589h-7.92v42.242h7.92V240.589z"/>
	<path id="XMLID_7_" class="st0" d="M411.214,224.464c-2.795,0-5.082,2.266-5.082,5.056v0.319c0,2.782,2.277,5.056,5.082,5.056
		c2.804,0,5.081-2.266,5.081-5.056v-0.319C416.294,226.739,414.018,224.464,411.214,224.464z"/>
	<path id="XMLID_46_" class="st0" d="M457.477,245.491c0,0.293-0.086,0.293-0.217,0.293c-0.077,0-0.302,0-0.615-0.44
		c-3.315-3.954-8.057-5.961-14.072-5.961c-3.574,0-6.975,0.844-10.117,2.515c-3.152,1.62-5.764,4.134-7.764,7.486
		c-1.947,3.342-2.934,7.485-2.934,12.319c0,4.832,0.987,8.976,2.944,12.326c1.997,3.343,4.613,5.884,7.762,7.563
		c3.142,1.62,6.543,2.438,10.119,2.438c6.024,0,10.758-2.008,14.09-5.978c0.294-0.413,0.528-0.413,0.605-0.413
		c0.121,0,0.217,0,0.217,0.293v4.901h7.92v-58.222h-7.92v20.88H457.477z M453.964,250.529c2.596,2.635,3.912,6.4,3.912,11.181
		c0,4.781-1.316,8.58-3.922,11.267c-2.545,2.635-5.972,3.972-10.187,3.972c-4.216,0-7.678-1.335-10.266-3.962
		c-2.545-2.687-3.844-6.486-3.844-11.267c0-4.781,1.292-8.553,3.835-11.189c2.596-2.687,6.051-4.048,10.265-4.048
		c4.216,0,7.644,1.361,10.188,4.048h0.018V250.529z"/>
	<path id="XMLID_4_" class="st0" d="M482.215,224.611h-7.92v58.222h7.92V224.611z"/>
	<path id="XMLID_3_" class="st0" d="M93.346,224.773v58.153H69.019V265.8c0-7.524-6.096-13.624-13.587-13.624
		c-7.491,0-13.587,6.1-13.587,13.624v17.125H17.619v-58.153h14.178v8.403c0,3.596,2.918,6.504,6.498,6.504
		c3.58,0,6.498-2.908,6.498-6.504v-8.403H66.06v8.367c0,3.596,2.918,6.504,6.498,6.504c3.58,0,6.498-2.908,6.498-6.504v-8.367
		H93.346z"/>
	<path id="XMLID_2_" class="st0" d="M52.127,194.12v36.084h6.322v-16.178c0,0,1.615-3.323,7.505-1.857
		c7.793,1.94,17.394,0.625,23.558-10.53C70.834,207.791,70.334,186.652,52.127,194.12z"/>
</g>
<rect id="XMLID_1_" x="0" y="0" class="st1" width="500" height="500"/>
</svg>
