<?xml version="1.0" encoding="utf-8"?>
<!-- Generator: Adobe Illustrator 19.0.0, SVG Export Plug-In . SVG Version: 6.00 Build 0)  -->
<svg version="1.1" id="Layer_1" xmlns="http://www.w3.org/2000/svg" xmlns:xlink="http://www.w3.org/1999/xlink" x="0px" y="0px"
	 viewBox="0 0 500 500" style="enable-background:new 0 0 500 500;" xml:space="preserve">
<style type="text/css">
	.st0{fill:none;}
	.st1{fill:#7F8CFF;}
</style>
<rect id="XMLID_1_" class="st0" width="500" height="500"/>
<path class="st1" d="M151.542,252.773c-0.365-0.138-0.416-0.32-0.416-0.475c0-0.251,0.061-0.32,0.105-0.371
	c0.042-0.061,0.163-0.19,0.529-0.371c4.809-2.717,7.254-6.754,7.254-11.982s-1.69-8.928-5.028-11.706
	c-3.32-2.811-7.827-4.244-13.409-4.244h-22.876v58.305h22.858c5.791,0,10.419-1.432,13.73-4.244c3.39-2.83,5.105-6.902,5.105-12.111
	c0-6.417-2.643-10.731-7.861-12.809L151.542,252.773z M147.589,246.424c-1.75,1.337-4.386,2.011-7.827,2.011h-13.323V231.52h13.323
	c3.441,0,6.077,0.672,7.836,2.011c1.776,1.312,2.678,3.476,2.678,6.444s-0.9,5.132-2.678,6.444L147.589,246.424z M126.439,256.327
	h13.323c3.658,0,6.423,0.699,8.234,2.087c1.777,1.312,2.678,3.589,2.678,6.764c0,3.175-0.901,5.486-2.678,6.84
	c-1.803,1.337-4.576,2.011-8.234,2.011h-13.323v-17.71V256.327z"/>
<path class="st1" d="M197.282,261.58c0,4.797-1.11,8.462-3.287,10.894c-2.115,2.363-5.226,3.562-9.23,3.562
	c-3.527,0-6.258-0.958-8.114-2.855c-1.856-1.898-2.799-4.726-2.799-8.401v-25.153h-7.932v26.354c0,5.408,1.551,9.661,4.603,12.646
	c3.052,2.985,7.299,4.502,12.63,4.502c5.763,0,10.235-1.959,13.27-5.78l0.399-0.396c0.087-0.086,0.174-0.138,0.234-0.138
	c0.181,0,0.216,0.034,0.216,0.216v4.908h7.932v-42.312h-7.932v21.953h0.011V261.58z"/>
<path class="st1" d="M222.124,239.626h-7.932v42.302h7.932V239.626z"/>
<path class="st1" d="M218.154,223.477c-2.8,0-5.081,2.269-5.081,5.063v0.32c0,2.786,2.28,5.063,5.081,5.063
	c2.799,0,5.08-2.269,5.08-5.063v-0.32C223.234,225.756,220.954,223.477,218.154,223.477z"/>
<path class="st1" d="M264.484,244.534c0,0.293-0.087,0.293-0.217,0.293c-0.077,0-0.303,0-0.616-0.44
	c-3.32-3.96-8.07-5.969-14.093-5.969c-3.581,0-6.987,0.845-10.134,2.518c-3.154,1.622-5.77,4.14-7.773,7.497
	c-1.951,3.347-2.939,7.495-2.939,12.336c0,4.839,0.988,8.989,2.946,12.344c2.003,3.347,4.621,5.892,7.776,7.574
	c3.146,1.622,6.553,2.441,10.132,2.441c6.034,0,10.774-2.011,14.113-5.986c0.294-0.414,0.527-0.414,0.605-0.414
	c0.121,0,0.216,0,0.216,0.293v4.908h7.932v-58.305H264.5v20.91H264.484z M260.964,249.58c2.6,2.639,3.918,6.409,3.918,11.197
	s-1.318,8.592-3.925,11.283c-2.548,2.639-5.981,3.977-10.202,3.977c-4.221,0-7.688-1.337-10.279-3.968
	c-2.548-2.691-3.849-6.496-3.849-11.283s1.292-8.566,3.841-11.205c2.6-2.691,6.058-4.054,10.279-4.054
	c4.221,0,7.653,1.363,10.202,4.054h0.016V249.58z"/>
<path class="st1" d="M289.256,223.625h-7.932v58.305h7.932V223.625z"/>
<path class="st1" d="M316.734,233.148c3.145-1.881,6.848-2.83,11-2.83c5.617,0,9.915,1.398,12.784,4.14
	c2.871,2.752,4.544,6.503,4.959,11.145l0.026,0.31h8.719l-0.017-0.362c-0.163-3.985-1.231-7.773-3.181-11.274
	c-1.951-3.51-4.923-6.383-8.815-8.531c-3.841-2.208-8.581-3.33-14.085-3.33c-5.981,0-11.311,1.277-15.844,3.805
	c-4.543,2.476-8.105,6.047-10.593,10.619c-2.428,4.563-3.658,9.92-3.658,15.923c0,6.003,1.205,11.361,3.579,15.923
	c2.436,4.571,5.973,8.177,10.515,10.705c4.533,2.466,9.915,3.726,16.01,3.726c7.721,0,13.833-1.993,18.167-5.934
	c4.395-3.943,6.631-9.447,6.631-16.339v-6.03h-29.964v7.894h21.229c-0.079,3.727-1.362,6.754-3.822,9.006
	c-2.549,2.329-6.527,3.51-11.823,3.51c-4.525,0-8.478-0.923-11.728-2.752c-3.25-1.88-5.773-4.529-7.497-7.859
	c-1.682-3.407-2.54-7.392-2.54-11.852c0-4.46,0.875-8.359,2.617-11.766c1.734-3.39,4.205-6.038,7.35-7.859L316.734,233.148z"/>
<path class="st1" d="M391.288,261.58c0,4.797-1.11,8.462-3.285,10.894c-2.114,2.363-5.226,3.562-9.233,3.562
	c-3.536,0-6.257-0.958-8.112-2.855c-1.855-1.898-2.801-4.726-2.801-8.401v-25.153h-7.932v26.354c0,5.408,1.551,9.661,4.612,12.646
	c3.053,2.985,7.299,4.502,12.629,4.502c5.766,0,10.244-1.959,13.27-5.78l0.4-0.396c0.086-0.086,0.173-0.138,0.233-0.138
	c0.183,0,0.217,0.034,0.217,0.216v4.908h7.932v-42.312h-7.932V261.58z"/>
<path class="st1" d="M416.129,239.626h-7.932v42.302h7.932V239.626z"/>
<path class="st1" d="M412.16,223.477c-2.799,0-5.089,2.269-5.089,5.063v0.32c0,2.786,2.28,5.063,5.089,5.063
	c2.808,0,5.088-2.269,5.088-5.063v-0.32C417.247,225.756,414.967,223.477,412.16,223.477z"/>
<path class="st1" d="M458.489,244.534c0,0.293-0.086,0.293-0.217,0.293c-0.077,0-0.303,0-0.616-0.44
	c-3.318-3.96-8.069-5.969-14.093-5.969c-3.579,0-6.985,0.845-10.132,2.518c-3.156,1.622-5.773,4.14-7.776,7.497
	c-1.95,3.347-2.939,7.495-2.939,12.336c0,4.839,0.989,8.989,2.948,12.344c2,3.347,4.619,5.892,7.773,7.574
	c3.147,1.622,6.553,2.441,10.134,2.441c6.032,0,10.773-2.011,14.111-5.986c0.294-0.414,0.529-0.414,0.605-0.414
	c0.121,0,0.217,0,0.217,0.293v4.908h7.932v-58.305h-7.932v20.91H458.489z M454.971,249.58c2.6,2.639,3.918,6.409,3.918,11.197
	s-1.318,8.592-3.927,11.283c-2.548,2.639-5.981,3.977-10.201,3.977c-4.222,0-7.689-1.337-10.281-3.968
	c-2.548-2.691-3.848-6.496-3.848-11.283s1.293-8.566,3.84-11.205c2.6-2.691,6.06-4.054,10.279-4.054
	c4.222,0,7.655,1.363,10.202,4.054h0.018V249.58z"/>
<path class="st1" d="M483.263,223.625h-7.932v58.305h7.932V223.625z"/>
<path class="st1" d="M93.835,223.787v58.236H69.473v-17.15c0-7.535-6.105-13.644-13.607-13.644c-7.501,0-13.607,6.109-13.607,13.644
	v17.15H18v-58.236h14.198v8.415c0,3.601,2.922,6.513,6.507,6.513c3.585,0,6.508-2.912,6.508-6.513v-8.415h21.297v8.379
	c0,3.601,2.922,6.513,6.508,6.513c3.585,0,6.507-2.912,6.507-6.513v-8.379H93.835z"/>
<path class="st1" d="M52.558,193.09v36.136h6.331v-16.201c0,0,1.618-3.328,7.515-1.86c7.804,1.943,17.419,0.626,23.591-10.545
	C71.291,206.781,70.79,185.611,52.558,193.09z"/>
</svg>
