<svg width="169" height="201" viewBox="0 0 169 201" fill="none" xmlns="http://www.w3.org/2000/svg">
<path d="M168.405 71.9012V200.719H114.517V162.784C114.517 146.116 101.013 132.603 84.4197 132.603C67.8266 132.603 54.3219 146.116 54.3219 162.784V200.719H0.658936V71.9012H32.0653V90.514C32.0653 98.4797 38.5298 104.921 46.4599 104.921C54.39 104.921 60.8544 98.4797 60.8544 90.514V71.9012H107.964V90.4352C107.964 98.4009 114.428 104.842 122.359 104.842C130.289 104.842 136.753 98.4009 136.753 90.4352V71.9012H168.405Z" fill="#7F8CFF"/>
<path d="M77.1001 4.00109V83.9337H91.1042V48.0968C91.1042 48.0968 94.6825 40.7362 107.728 43.9831C124.991 48.2801 146.259 45.3683 159.912 20.6574C118.539 34.2841 117.431 -12.5426 77.1001 4.00109Z" fill="#7F8CFF"/>
</svg>
