<svg width="118" height="142" viewBox="0 0 118 142" fill="none" xmlns="http://www.w3.org/2000/svg">
<path d="M118 50.8355V141.452H80.0929V114.766C80.0929 103.041 70.5931 93.536 58.9208 93.536C47.2486 93.536 37.7488 103.041 37.7488 114.766V141.452H0V50.8355H22.0926V63.9285C22.0926 69.5319 26.6399 74.0628 32.2183 74.0628C37.7967 74.0628 42.3441 69.5319 42.3441 63.9285V50.8355H75.4829V63.8731C75.4829 69.4765 80.0303 74.0073 85.6086 74.0073C91.187 74.0073 95.7344 69.4765 95.7344 63.8731V50.8355H118Z" fill="#182232"/>
<path d="M53.772 3.07162V59.2996H63.623V34.0904C63.623 34.0904 66.1402 28.9126 75.3168 31.1967C87.4602 34.2193 102.421 32.171 112.025 14.7884C82.9216 24.374 82.1421 -8.56594 53.772 3.07162Z" fill="#182232"/>
</svg>
